<svg width="1200" height="630" viewBox="0 0 1200 630" xmlns="http://www.w3.org/2000/svg">
<defs>
  <linearGradient id="sky" x1="0" y1="0" x2="0" y2="1"><stop offset="0%" stop-color="#E6F1FB"/><stop offset="55%" stop-color="#F0F7FF"/><stop offset="100%" stop-color="#F8FAFC"/></linearGradient>
  <linearGradient id="bldA" x1="0" y1="0" x2="0" y2="1"><stop offset="0%" stop-color="#D4E8FA"/><stop offset="100%" stop-color="#85B7EB"/></linearGradient>
  <linearGradient id="bldB" x1="0" y1="0" x2="0" y2="1"><stop offset="0%" stop-color="#B5D4F4"/><stop offset="100%" stop-color="#378ADD"/></linearGradient>
  <linearGradient id="bldC" x1="0" y1="0" x2="0" y2="1"><stop offset="0%" stop-color="#E6F1FB"/><stop offset="100%" stop-color="#B5D4F4"/></linearGradient>
  <linearGradient id="accentV" x1="0" y1="0" x2="0" y2="1"><stop offset="0%" stop-color="#2E5BFF"/><stop offset="100%" stop-color="#00FFC2"/></linearGradient>
  <linearGradient id="accentH" x1="0" y1="0" x2="1" y2="0"><stop offset="0%" stop-color="#2E5BFF"/><stop offset="100%" stop-color="#2E5BFF" stop-opacity="0"/></linearGradient>
  <linearGradient id="docG" x1="0" y1="0" x2="0" y2="1"><stop offset="0%" stop-color="#FFFFFF"/><stop offset="100%" stop-color="#E6F1FB"/></linearGradient>
  <linearGradient id="badgeG" x1="0" y1="0" x2="0" y2="1"><stop offset="0%" stop-color="#2E5BFF"/><stop offset="100%" stop-color="#185FA5"/></linearGradient>
  <linearGradient id="ground" x1="0" y1="0" x2="0" y2="1"><stop offset="0%" stop-color="#B5D4F4"/><stop offset="100%" stop-color="#85B7EB"/></linearGradient>
  <clipPath id="mainClip"><rect width="1200" height="630"/></clipPath>
</defs>
<g clip-path="url(#mainClip)">
<rect width="1200" height="630" fill="url(#sky)"/>
<g stroke="#2E5BFF" stroke-width="0.4" opacity="0.05"><line x1="0" y1="126" x2="1200" y2="126"/><line x1="0" y1="252" x2="1200" y2="252"/><line x1="0" y1="378" x2="1200" y2="378"/><line x1="0" y1="504" x2="1200" y2="504"/><line x1="200" y1="0" x2="200" y2="630"/><line x1="400" y1="0" x2="400" y2="630"/><line x1="600" y1="0" x2="600" y2="630"/><line x1="800" y1="0" x2="800" y2="630"/><line x1="1000" y1="0" x2="1000" y2="630"/></g>
<ellipse cx="600" cy="480" rx="600" ry="200" fill="#2E5BFF" opacity="0.03"/>
<rect x="0" y="580" width="1200" height="50" fill="url(#ground)" opacity="0.3"/>
<line x1="0" y1="580" x2="1200" y2="580" stroke="#185FA5" stroke-width="0.8" opacity="0.18"/>
<rect x="700" y="400" width="28" height="180" fill="#D4E8FA" opacity="0.65"/><rect x="742" y="375" width="36" height="205" fill="#B5D4F4" opacity="0.55"/><rect x="792" y="355" width="42" height="225" fill="#D4E8FA" opacity="0.6"/>
<rect x="850" y="68" width="165" height="512" fill="url(#bldA)" rx="3"/><rect x="850" y="68" width="165" height="512" fill="none" stroke="#378ADD" stroke-width="0.9" opacity="0.25"/>
<line x1="893" y1="68" x2="893" y2="580" stroke="#378ADD" stroke-width="0.5" opacity="0.2"/><line x1="936" y1="68" x2="936" y2="580" stroke="#378ADD" stroke-width="0.5" opacity="0.2"/><line x1="979" y1="68" x2="979" y2="580" stroke="#378ADD" stroke-width="0.5" opacity="0.2"/>
<g stroke="#378ADD" stroke-width="0.4" opacity="0.15"><line x1="850" y1="106" x2="1015" y2="106"/><line x1="850" y1="144" x2="1015" y2="144"/><line x1="850" y1="182" x2="1015" y2="182"/><line x1="850" y1="220" x2="1015" y2="220"/><line x1="850" y1="258" x2="1015" y2="258"/><line x1="850" y1="296" x2="1015" y2="296"/><line x1="850" y1="334" x2="1015" y2="334"/><line x1="850" y1="372" x2="1015" y2="372"/><line x1="850" y1="410" x2="1015" y2="410"/><line x1="850" y1="448" x2="1015" y2="448"/></g>
<g opacity="0.42"><rect x="856" y="76" width="30" height="24" rx="1" fill="#2E5BFF" opacity="0.13"/><rect x="898" y="76" width="30" height="24" rx="1" fill="#2E5BFF" opacity="0.18"/><rect x="941" y="76" width="30" height="24" rx="1" fill="#00FFC2" opacity="0.1"/><rect x="856" y="114" width="30" height="24" rx="1" fill="#00FFC2" opacity="0.09"/><rect x="898" y="114" width="30" height="24" rx="1" fill="#2E5BFF" opacity="0.15"/><rect x="941" y="114" width="30" height="24" rx="1" fill="#2E5BFF" opacity="0.1"/><rect x="856" y="152" width="30" height="24" rx="1" fill="#2E5BFF" opacity="0.15"/><rect x="898" y="152" width="30" height="24" rx="1" fill="#2E5BFF" opacity="0.1"/><rect x="941" y="152" width="30" height="24" rx="1" fill="#00FFC2" opacity="0.1"/><rect x="856" y="190" width="30" height="24" rx="1" fill="#2E5BFF" opacity="0.1"/><rect x="898" y="190" width="30" height="24" rx="1" fill="#00FFC2" opacity="0.09"/><rect x="941" y="190" width="30" height="24" rx="1" fill="#2E5BFF" opacity="0.15"/><rect x="856" y="228" width="30" height="24" rx="1" fill="#00FFC2" opacity="0.09"/><rect x="898" y="228" width="30" height="24" rx="1" fill="#2E5BFF" opacity="0.18"/><rect x="941" y="228" width="30" height="24" rx="1" fill="#2E5BFF" opacity="0.1"/><rect x="856" y="266" width="30" height="24" rx="1" fill="#2E5BFF" opacity="0.15"/><rect x="898" y="266" width="30" height="24" rx="1" fill="#00FFC2" opacity="0.09"/><rect x="941" y="266" width="30" height="24" rx="1" fill="#2E5BFF" opacity="0.13"/></g>
<rect x="1030" y="160" width="105" height="420" fill="url(#bldB)" rx="2"/><rect x="1030" y="160" width="105" height="420" fill="none" stroke="#378ADD" stroke-width="0.7" opacity="0.2"/>
<line x1="1063" y1="160" x2="1063" y2="580" stroke="#378ADD" stroke-width="0.4" opacity="0.18"/><line x1="1100" y1="160" x2="1100" y2="580" stroke="#378ADD" stroke-width="0.4" opacity="0.18"/>
<g opacity="0.35"><rect x="1036" y="170" width="20" height="16" rx="1" fill="#2E5BFF" opacity="0.15"/><rect x="1068" y="170" width="20" height="16" rx="1" fill="#00FFC2" opacity="0.12"/><rect x="1106" y="170" width="20" height="16" rx="1" fill="#2E5BFF" opacity="0.15"/><rect x="1036" y="202" width="20" height="16" rx="1" fill="#00FFC2" opacity="0.1"/><rect x="1068" y="202" width="20" height="16" rx="1" fill="#2E5BFF" opacity="0.18"/></g>
<rect x="1148" y="225" width="75" height="355" fill="url(#bldC)" rx="2"/><rect x="1148" y="225" width="75" height="355" fill="none" stroke="#378ADD" stroke-width="0.5" opacity="0.18"/>

<!-- ILLUSTRATION: THE GAP — two columns showing manager vs owner perspective -->
<!-- Panel card -->
<rect x="652" y="95" width="190" height="318" rx="7" fill="url(#docG)" opacity="0.97"/>
<rect x="652" y="95" width="190" height="318" rx="7" fill="none" stroke="#2E5BFF" stroke-width="1.2" opacity="0.35"/>
<rect x="652" y="95" width="190" height="30" rx="7" fill="#0C447C"/>
<rect x="652" y="112" width="190" height="13" fill="#0C447C"/>
<text x="747" y="114" text-anchor="middle" font-family="Inter,sans-serif" font-size="9" font-weight="600" fill="#85B7EB" letter-spacing="1.5">THE TRANSPARENCY GAP</text>

<!-- Manager column header -->
<text x="704" y="148" text-anchor="middle" font-family="Inter,sans-serif" font-size="8" font-weight="600" fill="#64748B" letter-spacing="0.5">MANAGER THINKS</text>
<line x1="664" y1="153" x2="744" y2="153" stroke="#B5D4F4" stroke-width="0.8"/>

<!-- Owner column header -->
<text x="794" y="148" text-anchor="middle" font-family="Inter,sans-serif" font-size="8" font-weight="600" fill="#2E5BFF" letter-spacing="0.5">OWNER FEELS</text>
<line x1="754" y1="153" x2="834" y2="153" stroke="#2E5BFF" stroke-width="0.8" opacity="0.4"/>

<!-- Central divider -->
<line x1="747" y1="138" x2="747" y2="400" stroke="#E2E8F0" stroke-width="1"/>

<!-- Row 1 -->
<text x="704" y="172" text-anchor="middle" font-family="Inter,sans-serif" font-size="7.5" font-weight="300" fill="#64748B">I send quarterly reports</text>
<text x="794" y="172" text-anchor="middle" font-family="Inter,sans-serif" font-size="7.5" font-weight="600" fill="#2E5BFF">I hear nothing</text>
<!-- Arrow showing gap -->
<line x1="738" y1="169" x2="756" y2="169" stroke="#FF9500" stroke-width="1" stroke-dasharray="2 2" opacity="0.7"/>

<!-- Row 2 -->
<text x="704" y="198" text-anchor="middle" font-family="Inter,sans-serif" font-size="7.5" font-weight="300" fill="#64748B">I communicate enough</text>
<text x="794" y="198" text-anchor="middle" font-family="Inter,sans-serif" font-size="7.5" font-weight="600" fill="#2E5BFF">I check, find nothing new</text>
<line x1="738" y1="195" x2="756" y2="195" stroke="#FF9500" stroke-width="1" stroke-dasharray="2 2" opacity="0.7"/>

<!-- Row 3 -->
<text x="704" y="224" text-anchor="middle" font-family="Inter,sans-serif" font-size="7.5" font-weight="300" fill="#64748B">Annual report is detailed</text>
<text x="794" y="224" text-anchor="middle" font-family="Inter,sans-serif" font-size="7.5" font-weight="600" fill="#2E5BFF">I can't understand it</text>
<line x1="738" y1="221" x2="756" y2="221" stroke="#FF9500" stroke-width="1" stroke-dasharray="2 2" opacity="0.7"/>

<!-- Row 4 -->
<text x="704" y="250" text-anchor="middle" font-family="Inter,sans-serif" font-size="7.5" font-weight="300" fill="#64748B">Fees are in the contract</text>
<text x="794" y="250" text-anchor="middle" font-family="Inter,sans-serif" font-size="7.5" font-weight="600" fill="#2E5BFF">What am I paying for?</text>
<line x1="738" y1="247" x2="756" y2="247" stroke="#FF9500" stroke-width="1" stroke-dasharray="2 2" opacity="0.7"/>

<!-- Row 5 -->
<text x="704" y="276" text-anchor="middle" font-family="Inter,sans-serif" font-size="7.5" font-weight="300" fill="#64748B">I'm managing it well</text>
<text x="794" y="276" text-anchor="middle" font-family="Inter,sans-serif" font-size="7.5" font-weight="600" fill="#2E5BFF">What's going on?</text>
<line x1="738" y1="273" x2="756" y2="273" stroke="#FF9500" stroke-width="1" stroke-dasharray="2 2" opacity="0.7"/>

<!-- Gap label -->
<rect x="664" y="292" width="164" height="30" rx="4" fill="rgba(255,149,0,0.08)" stroke="rgba(255,149,0,0.4)" stroke-width="0.8"/>
<text x="746" y="311" text-anchor="middle" font-family="Inter,sans-serif" font-size="8" font-weight="600" fill="#FF9500">The gap = frequency + clarity + access</text>

<!-- Solution hint -->
<text x="664" y="344" font-family="Inter,sans-serif" font-size="8" font-weight="600" fill="#121C2D">Fix: weekly 100-word update</text>
<rect x="664" y="348" width="164" height="3" rx="1.5" fill="#E2E8F0"/>
<rect x="664" y="348" width="120" height="3" rx="1.5" fill="#2E5BFF" opacity="0.5"/>
<text x="664" y="365" font-family="Inter,sans-serif" font-size="8" font-weight="600" fill="#121C2D">Fix: monthly plain-English snapshot</text>
<rect x="664" y="369" width="164" height="3" rx="1.5" fill="#E2E8F0"/>
<rect x="664" y="369" width="144" height="3" rx="1.5" fill="#00FFC2" opacity="0.6"/>
<text x="664" y="386" font-family="Inter,sans-serif" font-size="8" font-weight="600" fill="#121C2D">Fix: clear role definition in writing</text>
<rect x="664" y="390" width="164" height="3" rx="1.5" fill="#E2E8F0"/>
<rect x="664" y="390" width="100" height="3" rx="1.5" fill="#2E5BFF" opacity="0.4"/>

<!-- Action badge -->
<rect x="652" y="420" width="190" height="30" rx="6" fill="url(#badgeG)"/>
<text x="747" y="440" text-anchor="middle" font-family="Inter,sans-serif" font-size="10" font-weight="600" fill="white" letter-spacing="1">CLOSE THE GAP</text>

<!-- Frequency badge -->
<circle cx="615" cy="285" r="48" fill="#042C53" opacity="0.88"/>
<circle cx="615" cy="285" r="48" fill="none" stroke="url(#accentV)" stroke-width="2.5"/>
<circle cx="615" cy="285" r="40" fill="none" stroke="rgba(46,91,255,0.18)" stroke-width="1"/>
<!-- Calendar/frequency icon — simple grid of dots -->
<g fill="#2E5BFF" opacity="0.7"><circle cx="601" cy="271" r="3"/><circle cx="615" cy="271" r="3"/><circle cx="629" cy="271" r="3"/><circle cx="601" cy="283" r="3"/><circle cx="615" cy="283" r="3" fill="#00FFC2" opacity="1"/><circle cx="629" cy="283" r="3"/><circle cx="601" cy="295" r="3"/><circle cx="615" cy="295" r="3"/><circle cx="629" cy="295" r="3"/></g>
<text x="615" y="316" text-anchor="middle" font-family="Inter,sans-serif" font-size="7" font-weight="400" fill="#85B7EB" letter-spacing="1">WEEKLY BEATS</text>
<text x="615" y="328" text-anchor="middle" font-family="Inter,sans-serif" font-size="7" font-weight="300" fill="#00FFC2" letter-spacing="1">QUARTERLY</text>

<!-- Stat cards -->
<rect x="840" y="420" width="155" height="62" rx="5" fill="white" fill-opacity="0.85" stroke="#2E5BFF" stroke-width="0.8" stroke-opacity="0.3"/>
<rect x="840" y="420" width="3" height="62" fill="#2E5BFF"/>
<text x="858" y="445" font-family="Inter,sans-serif" font-size="20" font-weight="600" fill="#121C2D">15–20</text>
<text x="858" y="461" font-family="Inter,sans-serif" font-size="10" font-weight="300" fill="#64748B">owner touchpoints/yr</text>
<text x="858" y="474" font-family="Inter,sans-serif" font-size="10" font-weight="300" fill="#64748B">vs what owners expect</text>

<rect x="1007" y="420" width="157" height="62" rx="5" fill="white" fill-opacity="0.85" stroke="#00FFC2" stroke-width="0.8" stroke-opacity="0.5"/>
<rect x="1007" y="420" width="3" height="62" fill="#00FFC2"/>
<text x="1025" y="445" font-family="Inter,sans-serif" font-size="20" font-weight="600" fill="#121C2D">#1 reason</text>
<text x="1025" y="461" font-family="Inter,sans-serif" font-size="10" font-weight="300" fill="#64748B">owners leave isn&#x2019;t price</text>
<text x="1025" y="474" font-family="Inter,sans-serif" font-size="10" font-weight="300" fill="#64748B">it&#x2019;s feeling uninformed</text>

<!-- Left accent bar -->
<rect x="0" y="0" width="6" height="630" fill="url(#accentV)"/>
<text x="72" y="58" font-family="Inter,sans-serif" font-size="13" font-weight="400" fill="#64748B" letter-spacing="2.5">THE STRATA EDIT  ·  THE HUMAN SIDE</text>
<rect x="72" y="70" width="280" height="1" fill="url(#accentH)" opacity="0.4"/>
<text font-family="Inter,sans-serif" fill="#121C2D"><tspan x="72" y="148" font-size="56" font-weight="300" letter-spacing="-1">The</tspan><tspan x="72" dy="66" font-size="56" font-weight="300" letter-spacing="-1">Transparency</tspan><tspan x="72" dy="66" font-size="56" font-weight="700" letter-spacing="-1" fill="#2E5BFF">Gap.</tspan></text>
<circle cx="226" cy="278" r="7" fill="#00FFC2"/>
<rect x="72" y="300" width="300" height="1.5" fill="url(#accentH)" opacity="0.6"/>
<text x="72" y="328" font-family="Inter,sans-serif" font-size="16" font-weight="300" fill="#334155">What owners actually want from</text>
<text x="72" y="347" font-family="Inter,sans-serif" font-size="16" font-weight="300" fill="#334155">their strata manager.</text>
<rect x="72" y="370" width="200" height="30" rx="15" fill="rgba(46,91,255,0.07)" stroke="rgba(46,91,255,0.35)" stroke-width="1"/>
<text x="172" y="390" text-anchor="middle" font-family="Inter,sans-serif" font-size="12" font-weight="600" fill="#2E5BFF">Informed &gt; cheapest</text>
<rect x="282" y="370" width="175" height="30" rx="15" fill="rgba(0,255,194,0.07)" stroke="rgba(15,110,86,0.35)" stroke-width="1"/>
<text x="369" y="390" text-anchor="middle" font-family="Inter,sans-serif" font-size="12" font-weight="600" fill="#0F6E56">Weekly &gt; quarterly</text>
<rect x="72" y="412" width="200" height="30" rx="15" fill="rgba(46,91,255,0.06)" stroke="rgba(46,91,255,0.28)" stroke-width="1"/>
<text x="172" y="432" text-anchor="middle" font-family="Inter,sans-serif" font-size="12" font-weight="600" fill="#185FA5">Trust = retention</text>
</g>
</svg>
