<svg width="1200" height="630" viewBox="0 0 1200 630" xmlns="http://www.w3.org/2000/svg">
  <defs>
    <linearGradient id="sky" x1="0" y1="0" x2="0" y2="1">
      <stop offset="0%" stop-color="#E6F1FB"/>
      <stop offset="55%" stop-color="#F0F7FF"/>
      <stop offset="100%" stop-color="#F8FAFC"/>
    </linearGradient>
    <linearGradient id="bldA" x1="0" y1="0" x2="0" y2="1">
      <stop offset="0%" stop-color="#D4E8FA"/>
      <stop offset="100%" stop-color="#85B7EB"/>
    </linearGradient>
    <linearGradient id="bldB" x1="0" y1="0" x2="0" y2="1">
      <stop offset="0%" stop-color="#B5D4F4"/>
      <stop offset="100%" stop-color="#378ADD"/>
    </linearGradient>
    <linearGradient id="bldC" x1="0" y1="0" x2="0" y2="1">
      <stop offset="0%" stop-color="#E6F1FB"/>
      <stop offset="100%" stop-color="#B5D4F4"/>
    </linearGradient>
    <linearGradient id="accentV" x1="0" y1="0" x2="0" y2="1">
      <stop offset="0%" stop-color="#2E5BFF"/>
      <stop offset="100%" stop-color="#00FFC2"/>
    </linearGradient>
    <linearGradient id="accentH" x1="0" y1="0" x2="1" y2="0">
      <stop offset="0%" stop-color="#2E5BFF"/>
      <stop offset="100%" stop-color="#2E5BFF" stop-opacity="0"/>
    </linearGradient>
    <linearGradient id="docG" x1="0" y1="0" x2="0" y2="1">
      <stop offset="0%" stop-color="#FFFFFF"/>
      <stop offset="100%" stop-color="#E6F1FB"/>
    </linearGradient>
    <linearGradient id="badgeG" x1="0" y1="0" x2="0" y2="1">
      <stop offset="0%" stop-color="#2E5BFF"/>
      <stop offset="100%" stop-color="#185FA5"/>
    </linearGradient>
    <linearGradient id="ground" x1="0" y1="0" x2="0" y2="1">
      <stop offset="0%" stop-color="#B5D4F4"/>
      <stop offset="100%" stop-color="#85B7EB"/>
    </linearGradient>
    <!-- Countdown ring fills -->
    <linearGradient id="ring6w" x1="0" y1="0" x2="1" y2="0">
      <stop offset="0%" stop-color="#E2E8F0"/>
      <stop offset="100%" stop-color="#CBD5E1"/>
    </linearGradient>
    <linearGradient id="ring3w" x1="0" y1="0" x2="1" y2="0">
      <stop offset="0%" stop-color="#2E5BFF"/>
      <stop offset="100%" stop-color="#378ADD"/>
    </linearGradient>
    <linearGradient id="ringDay" x1="0" y1="0" x2="1" y2="0">
      <stop offset="0%" stop-color="#2E5BFF"/>
      <stop offset="100%" stop-color="#00FFC2"/>
    </linearGradient>
    <clipPath id="mainClip"><rect width="1200" height="630"/></clipPath>
  </defs>

  <g clip-path="url(#mainClip)">

  <rect width="1200" height="630" fill="url(#sky)"/>

  <!-- Grid -->
  <g stroke="#2E5BFF" stroke-width="0.4" opacity="0.05">
    <line x1="0" y1="126" x2="1200" y2="126"/><line x1="0" y1="252" x2="1200" y2="252"/>
    <line x1="0" y1="378" x2="1200" y2="378"/><line x1="0" y1="504" x2="1200" y2="504"/>
    <line x1="200" y1="0" x2="200" y2="630"/><line x1="400" y1="0" x2="400" y2="630"/>
    <line x1="600" y1="0" x2="600" y2="630"/><line x1="800" y1="0" x2="800" y2="630"/>
    <line x1="1000" y1="0" x2="1000" y2="630"/>
  </g>
  <ellipse cx="600" cy="480" rx="600" ry="200" fill="#2E5BFF" opacity="0.03"/>

  <!-- Ground -->
  <rect x="0" y="580" width="1200" height="50" fill="url(#ground)" opacity="0.3"/>
  <line x1="0" y1="580" x2="1200" y2="580" stroke="#185FA5" stroke-width="0.8" opacity="0.18"/>

  <!-- Distant buildings -->
  <rect x="700" y="400" width="28" height="180" fill="#D4E8FA" opacity="0.65"/>
  <rect x="742" y="375" width="36" height="205" fill="#B5D4F4" opacity="0.55"/>
  <rect x="792" y="355" width="42" height="225" fill="#D4E8FA" opacity="0.6"/>

  <!-- Main tall building -->
  <rect x="850" y="68" width="165" height="512" fill="url(#bldA)" rx="3"/>
  <rect x="850" y="68" width="165" height="512" fill="none" stroke="#378ADD" stroke-width="0.9" opacity="0.25"/>
  <line x1="893" y1="68" x2="893" y2="580" stroke="#378ADD" stroke-width="0.5" opacity="0.2"/>
  <line x1="936" y1="68" x2="936" y2="580" stroke="#378ADD" stroke-width="0.5" opacity="0.2"/>
  <line x1="979" y1="68" x2="979" y2="580" stroke="#378ADD" stroke-width="0.5" opacity="0.2"/>
  <g stroke="#378ADD" stroke-width="0.4" opacity="0.15">
    <line x1="850" y1="106" x2="1015" y2="106"/><line x1="850" y1="144" x2="1015" y2="144"/>
    <line x1="850" y1="182" x2="1015" y2="182"/><line x1="850" y1="220" x2="1015" y2="220"/>
    <line x1="850" y1="258" x2="1015" y2="258"/><line x1="850" y1="296" x2="1015" y2="296"/>
    <line x1="850" y1="334" x2="1015" y2="334"/><line x1="850" y1="372" x2="1015" y2="372"/>
    <line x1="850" y1="410" x2="1015" y2="410"/><line x1="850" y1="448" x2="1015" y2="448"/>
    <line x1="850" y1="486" x2="1015" y2="486"/><line x1="850" y1="524" x2="1015" y2="524"/>
    <line x1="850" y1="562" x2="1015" y2="562"/>
  </g>
  <g opacity="0.42">
    <rect x="856" y="76" width="30" height="24" rx="1" fill="#2E5BFF" opacity="0.13"/>
    <rect x="898" y="76" width="30" height="24" rx="1" fill="#2E5BFF" opacity="0.18"/>
    <rect x="941" y="76" width="30" height="24" rx="1" fill="#00FFC2" opacity="0.1"/>
    <rect x="982" y="76" width="25" height="24" rx="1" fill="#2E5BFF" opacity="0.13"/>
    <rect x="856" y="114" width="30" height="24" rx="1" fill="#00FFC2" opacity="0.09"/>
    <rect x="898" y="114" width="30" height="24" rx="1" fill="#2E5BFF" opacity="0.15"/>
    <rect x="941" y="114" width="30" height="24" rx="1" fill="#2E5BFF" opacity="0.1"/>
    <rect x="982" y="114" width="25" height="24" rx="1" fill="#00FFC2" opacity="0.09"/>
    <rect x="856" y="152" width="30" height="24" rx="1" fill="#2E5BFF" opacity="0.15"/>
    <rect x="898" y="152" width="30" height="24" rx="1" fill="#2E5BFF" opacity="0.1"/>
    <rect x="941" y="152" width="30" height="24" rx="1" fill="#00FFC2" opacity="0.1"/>
    <rect x="982" y="152" width="25" height="24" rx="1" fill="#2E5BFF" opacity="0.13"/>
    <rect x="856" y="190" width="30" height="24" rx="1" fill="#2E5BFF" opacity="0.1"/>
    <rect x="898" y="190" width="30" height="24" rx="1" fill="#00FFC2" opacity="0.09"/>
    <rect x="941" y="190" width="30" height="24" rx="1" fill="#2E5BFF" opacity="0.15"/>
    <rect x="982" y="190" width="25" height="24" rx="1" fill="#2E5BFF" opacity="0.1"/>
    <rect x="856" y="228" width="30" height="24" rx="1" fill="#00FFC2" opacity="0.09"/>
    <rect x="898" y="228" width="30" height="24" rx="1" fill="#2E5BFF" opacity="0.18"/>
    <rect x="941" y="228" width="30" height="24" rx="1" fill="#2E5BFF" opacity="0.1"/>
    <rect x="982" y="228" width="25" height="24" rx="1" fill="#00FFC2" opacity="0.09"/>
    <rect x="856" y="266" width="30" height="24" rx="1" fill="#2E5BFF" opacity="0.15"/>
    <rect x="898" y="266" width="30" height="24" rx="1" fill="#00FFC2" opacity="0.09"/>
    <rect x="941" y="266" width="30" height="24" rx="1" fill="#2E5BFF" opacity="0.13"/>
    <rect x="982" y="266" width="25" height="24" rx="1" fill="#2E5BFF" opacity="0.1"/>
    <rect x="856" y="304" width="30" height="24" rx="1" fill="#2E5BFF" opacity="0.1"/>
    <rect x="898" y="304" width="30" height="24" rx="1" fill="#2E5BFF" opacity="0.15"/>
    <rect x="941" y="304" width="30" height="24" rx="1" fill="#00FFC2" opacity="0.09"/>
    <rect x="982" y="304" width="25" height="24" rx="1" fill="#2E5BFF" opacity="0.13"/>
    <rect x="856" y="342" width="30" height="24" rx="1" fill="#00FFC2" opacity="0.09"/>
    <rect x="898" y="342" width="30" height="24" rx="1" fill="#2E5BFF" opacity="0.13"/>
    <rect x="941" y="342" width="30" height="24" rx="1" fill="#2E5BFF" opacity="0.1"/>
    <rect x="982" y="342" width="25" height="24" rx="1" fill="#00FFC2" opacity="0.09"/>
    <rect x="856" y="380" width="30" height="24" rx="1" fill="#2E5BFF" opacity="0.15"/>
    <rect x="898" y="380" width="30" height="24" rx="1" fill="#2E5BFF" opacity="0.1"/>
    <rect x="941" y="380" width="30" height="24" rx="1" fill="#00FFC2" opacity="0.09"/>
    <rect x="982" y="380" width="25" height="24" rx="1" fill="#2E5BFF" opacity="0.13"/>
    <rect x="856" y="418" width="30" height="24" rx="1" fill="#2E5BFF" opacity="0.1"/>
    <rect x="898" y="418" width="30" height="24" rx="1" fill="#00FFC2" opacity="0.09"/>
    <rect x="941" y="418" width="30" height="24" rx="1" fill="#2E5BFF" opacity="0.15"/>
    <rect x="982" y="418" width="25" height="24" rx="1" fill="#2E5BFF" opacity="0.1"/>
    <rect x="856" y="456" width="30" height="24" rx="1" fill="#00FFC2" opacity="0.09"/>
    <rect x="898" y="456" width="30" height="24" rx="1" fill="#2E5BFF" opacity="0.18"/>
    <rect x="941" y="456" width="30" height="24" rx="1" fill="#2E5BFF" opacity="0.1"/>
    <rect x="982" y="456" width="25" height="24" rx="1" fill="#00FFC2" opacity="0.09"/>
    <rect x="856" y="494" width="30" height="24" rx="1" fill="#2E5BFF" opacity="0.13"/>
    <rect x="898" y="494" width="30" height="24" rx="1" fill="#2E5BFF" opacity="0.1"/>
    <rect x="941" y="494" width="30" height="24" rx="1" fill="#00FFC2" opacity="0.09"/>
    <rect x="982" y="494" width="25" height="24" rx="1" fill="#2E5BFF" opacity="0.13"/>
    <rect x="856" y="532" width="30" height="24" rx="1" fill="#00FFC2" opacity="0.09"/>
    <rect x="898" y="532" width="30" height="24" rx="1" fill="#2E5BFF" opacity="0.15"/>
    <rect x="941" y="532" width="30" height="24" rx="1" fill="#2E5BFF" opacity="0.1"/>
    <rect x="982" y="532" width="25" height="24" rx="1" fill="#2E5BFF" opacity="0.09"/>
  </g>

  <!-- Secondary right building -->
  <rect x="1030" y="160" width="105" height="420" fill="url(#bldB)" rx="2"/>
  <rect x="1030" y="160" width="105" height="420" fill="none" stroke="#378ADD" stroke-width="0.7" opacity="0.2"/>
  <line x1="1063" y1="160" x2="1063" y2="580" stroke="#378ADD" stroke-width="0.4" opacity="0.18"/>
  <line x1="1100" y1="160" x2="1100" y2="580" stroke="#378ADD" stroke-width="0.4" opacity="0.18"/>
  <g stroke="#378ADD" stroke-width="0.3" opacity="0.12">
    <line x1="1030" y1="196" x2="1135" y2="196"/><line x1="1030" y1="232" x2="1135" y2="232"/>
    <line x1="1030" y1="268" x2="1135" y2="268"/><line x1="1030" y1="304" x2="1135" y2="304"/>
    <line x1="1030" y1="340" x2="1135" y2="340"/>
  </g>
  <g opacity="0.35">
    <rect x="1036" y="170" width="20" height="16" rx="1" fill="#2E5BFF" opacity="0.15"/>
    <rect x="1068" y="170" width="20" height="16" rx="1" fill="#00FFC2" opacity="0.12"/>
    <rect x="1106" y="170" width="20" height="16" rx="1" fill="#2E5BFF" opacity="0.15"/>
    <rect x="1036" y="202" width="20" height="16" rx="1" fill="#00FFC2" opacity="0.1"/>
    <rect x="1068" y="202" width="20" height="16" rx="1" fill="#2E5BFF" opacity="0.18"/>
    <rect x="1106" y="202" width="20" height="16" rx="1" fill="#2E5BFF" opacity="0.12"/>
  </g>
  <rect x="1148" y="225" width="75" height="355" fill="url(#bldC)" rx="2"/>
  <rect x="1148" y="225" width="75" height="355" fill="none" stroke="#378ADD" stroke-width="0.5" opacity="0.18"/>

  <!-- ═══════════════════════════════════════════════
       ILLUSTRATION: 6-WEEK COUNTDOWN CARD
       Nested concentric rings, each a prep stage,
       read from outer (6 weeks) to inner (day of)
  ═══════════════════════════════════════════════ -->

  <!-- Card background -->
  <rect x="652" y="95" width="190" height="326" rx="7" fill="url(#docG)" opacity="0.97"/>
  <rect x="652" y="95" width="190" height="326" rx="7" fill="none" stroke="#2E5BFF" stroke-width="1.2" opacity="0.35"/>
  <!-- Header -->
  <rect x="652" y="95" width="190" height="30" rx="7" fill="#0C447C"/>
  <rect x="652" y="112" width="190" height="13" fill="#0C447C"/>
  <text x="747" y="114" text-anchor="middle" font-family="Inter,sans-serif" font-size="9" font-weight="600" fill="#85B7EB" letter-spacing="1.5">6-WEEK PREP PLAN</text>

  <!-- Concentric countdown rings centred in card -->
  <!-- cx=747, cy=255 — centre of illustration within card -->

  <!-- Ring 6: outermost — 6 weeks — grey/slate -->
  <circle cx="747" cy="255" r="72" fill="none" stroke="#E2E8F0" stroke-width="10" opacity="0.8"/>
  <!-- Ring 5: 5 weeks — light blue -->
  <circle cx="747" cy="255" r="58" fill="none" stroke="#B5D4F4" stroke-width="10" opacity="0.7"/>
  <!-- Ring 4: 3 weeks — blue -->
  <circle cx="747" cy="255" r="44" fill="none" stroke="#378ADD" stroke-width="10" opacity="0.7"/>
  <!-- Ring 3: 2 weeks — cobalt -->
  <circle cx="747" cy="255" r="30" fill="none" stroke="#2E5BFF" stroke-width="10" opacity="0.8"/>
  <!-- Ring 2: 1 week — cobalt-mint -->
  <circle cx="747" cy="255" r="16" fill="none" stroke="#185FA5" stroke-width="8" opacity="0.8"/>
  <!-- Ring 1: day of — mint dot -->
  <circle cx="747" cy="255" r="5" fill="#00FFC2" opacity="0.95"/>
  <circle cx="747" cy="255" r="8" fill="none" stroke="#00FFC2" stroke-width="1" opacity="0.5"/>

  <!-- Ring labels — placed at 12 o'clock position on each ring -->
  <!-- 6 weeks label — top of outer ring -->
  <text x="747" y="176" text-anchor="middle" font-family="Inter,sans-serif" font-size="7" font-weight="600" fill="#94A3B8">6 WKS</text>
  <!-- 5 weeks -->
  <text x="747" y="189" text-anchor="middle" font-family="Inter,sans-serif" font-size="7" font-weight="300" fill="#64748B">5W</text>
  <!-- 3 weeks -->
  <text x="747" y="203" text-anchor="middle" font-family="Inter,sans-serif" font-size="7" font-weight="300" fill="#378ADD">3W</text>
  <!-- 2 weeks -->
  <text x="747" y="217" text-anchor="middle" font-family="Inter,sans-serif" font-size="7" font-weight="300" fill="#2E5BFF">2W</text>
  <!-- 1 week -->
  <text x="747" y="231" text-anchor="middle" font-family="Inter,sans-serif" font-size="7" font-weight="300" fill="#185FA5">1W</text>

  <!-- Small callouts positioned around the rings at 3/6/9 o'clock -->
  <!-- 6 weeks right side -->
  <line x1="819" y1="255" x2="830" y2="248" stroke="#94A3B8" stroke-width="0.6" opacity="0.5"/>
  <text x="832" y="246" font-family="Inter,sans-serif" font-size="7" font-weight="300" fill="#64748B">Confirm date</text>
  <text x="832" y="256" font-family="Inter,sans-serif" font-size="7" font-weight="300" fill="#64748B">Draft financials</text>

  <!-- 3 weeks left side -->
  <line x1="703" y1="255" x2="692" y2="248" stroke="#378ADD" stroke-width="0.6" opacity="0.5"/>
  <text x="690" y="244" text-anchor="end" font-family="Inter,sans-serif" font-size="7" font-weight="300" fill="#378ADD">Issue notice</text>
  <text x="690" y="254" text-anchor="end" font-family="Inter,sans-serif" font-size="7" font-weight="300" fill="#64748B">Send proxies</text>

  <!-- 2 weeks — below right -->
  <line x1="747" y1="285" x2="760" y2="298" stroke="#2E5BFF" stroke-width="0.6" opacity="0.5"/>
  <text x="762" y="297" font-family="Inter,sans-serif" font-size="7" font-weight="300" fill="#2E5BFF">Brief chair</text>
  <text x="762" y="307" font-family="Inter,sans-serif" font-size="7" font-weight="300" fill="#64748B">Test tech</text>

  <!-- Day of — centre mint dot label -->
  <text x="747" y="273" text-anchor="middle" font-family="Inter,sans-serif" font-size="7" font-weight="600" fill="#00FFC2">AGM</text>

  <!-- Quorum stat below the rings -->
  <line x1="662" y1="340" x2="832" y2="340" stroke="#B5D4F4" stroke-width="0.8" opacity="0.6"/>
  <!-- Quorum mini visual: 10 lot circles, 3 highlighted = 25% quorum -->
  <text x="668" y="357" font-family="Inter,sans-serif" font-size="7.5" font-weight="600" fill="#121C2D">Quorum = 25% of lots</text>
  <!-- 8 small lot dots: first 2 filled cobalt, rest grey -->
  <circle cx="668" cy="370" r="5" fill="#2E5BFF" opacity="0.8"/>
  <circle cx="682" cy="370" r="5" fill="#2E5BFF" opacity="0.8"/>
  <circle cx="696" cy="370" r="5" fill="#2E5BFF" opacity="0.5"/>
  <circle cx="710" cy="370" r="5" fill="#E2E8F0"/>
  <circle cx="724" cy="370" r="5" fill="#E2E8F0"/>
  <circle cx="738" cy="370" r="5" fill="#E2E8F0"/>
  <circle cx="752" cy="370" r="5" fill="#E2E8F0"/>
  <circle cx="766" cy="370" r="5" fill="#E2E8F0"/>
  <text x="780" y="374" font-family="Inter,sans-serif" font-size="7" font-weight="300" fill="#64748B">= 40-lot scheme</text>
  <text x="668" y="385" font-family="Inter,sans-serif" font-size="7" font-weight="300" fill="#64748B">needs 10 present or by proxy</text>

  <!-- Action badge -->
  <rect x="652" y="426" width="190" height="30" rx="6" fill="url(#badgeG)"/>
  <text x="747" y="446" text-anchor="middle" font-family="Inter,sans-serif" font-size="10" font-weight="600" fill="white" letter-spacing="1">SSMA 2015 COMPLIANT</text>

  <!-- ═══════════════════════════════════════════════
       PROXY / AGENDA BADGE — replaces QS circle
       A calendar/agenda visual with proxy count
  ═══════════════════════════════════════════════ -->
  <circle cx="615" cy="285" r="48" fill="#042C53" opacity="0.88"/>
  <circle cx="615" cy="285" r="48" fill="none" stroke="url(#accentV)" stroke-width="2.5"/>
  <circle cx="615" cy="285" r="40" fill="none" stroke="rgba(46,91,255,0.18)" stroke-width="1"/>
  <!-- Calendar icon -->
  <rect x="596" y="263" width="38" height="30" rx="3" fill="none" stroke="#85B7EB" stroke-width="1.5" opacity="0.7"/>
  <rect x="596" y="263" width="38" height="9" rx="3" fill="#2E5BFF" opacity="0.6"/>
  <rect x="596" y="268" width="38" height="4" fill="#2E5BFF" opacity="0.6"/>
  <!-- Calendar binding ticks -->
  <line x1="604" y1="260" x2="604" y2="266" stroke="#85B7EB" stroke-width="1.5" stroke-linecap="round" opacity="0.7"/>
  <line x1="626" y1="260" x2="626" y2="266" stroke="#85B7EB" stroke-width="1.5" stroke-linecap="round" opacity="0.7"/>
  <!-- Calendar grid dots -->
  <circle cx="604" cy="279" r="1.5" fill="#85B7EB" opacity="0.6"/>
  <circle cx="614" cy="279" r="1.5" fill="#85B7EB" opacity="0.6"/>
  <circle cx="624" cy="279" r="1.5" fill="#2E5BFF" opacity="0.8"/>
  <circle cx="604" cy="288" r="1.5" fill="#85B7EB" opacity="0.6"/>
  <circle cx="614" cy="288" r="1.5" fill="#00FFC2" opacity="0.9"/>
  <circle cx="624" cy="288" r="1.5" fill="#85B7EB" opacity="0.6"/>
  <!-- AGM label -->
  <text x="615" y="310" text-anchor="middle" font-family="Inter,sans-serif" font-size="8" font-weight="700" fill="#E6F1FB">AGM</text>
  <text x="615" y="322" text-anchor="middle" font-family="Inter,sans-serif" font-size="7" font-weight="300" fill="#00FFC2" letter-spacing="1">7 DAY NOTICE</text>

  <!-- ═══════════════════════════════════════════════
       STAT CARDS — bottom right
  ═══════════════════════════════════════════════ -->
  <rect x="840" y="420" width="160" height="62" rx="5" fill="white" fill-opacity="0.85" stroke="#2E5BFF" stroke-width="0.8" stroke-opacity="0.3"/>
  <rect x="840" y="420" width="3" height="62" fill="#2E5BFF"/>
  <text x="858" y="445" font-family="Inter,sans-serif" font-size="22" font-weight="600" fill="#121C2D">25%</text>
  <text x="858" y="461" font-family="Inter,sans-serif" font-size="10" font-weight="300" fill="#64748B">quorum required</text>
  <text x="858" y="474" font-family="Inter,sans-serif" font-size="10" font-weight="300" fill="#64748B">in person or by proxy</text>

  <rect x="1012" y="420" width="152" height="62" rx="5" fill="white" fill-opacity="0.85" stroke="#00FFC2" stroke-width="0.8" stroke-opacity="0.5"/>
  <rect x="1012" y="420" width="3" height="62" fill="#00FFC2"/>
  <text x="1030" y="445" font-family="Inter,sans-serif" font-size="22" font-weight="600" fill="#121C2D">6 <tspan font-size="14" font-weight="300" fill="#64748B">weeks</tspan></text>
  <text x="1030" y="461" font-family="Inter,sans-serif" font-size="10" font-weight="300" fill="#64748B">of preparation needed</text>
  <text x="1030" y="474" font-family="Inter,sans-serif" font-size="10" font-weight="300" fill="#64748B">for a compliant AGM</text>

  <!-- Left accent bar -->
  <rect x="0" y="0" width="6" height="630" fill="url(#accentV)"/>

  <!-- Eyebrow -->
  <text x="72" y="58" font-family="Inter,sans-serif" font-size="13" font-weight="400" fill="#64748B" letter-spacing="2.5">THE STRATA EDIT  &#xB7;  OPERATIONAL EFFICIENCY</text>
  <rect x="72" y="70" width="280" height="1" fill="url(#accentH)" opacity="0.4"/>

  <!-- Headline -->
  <text font-family="Inter,sans-serif" fill="#121C2D">
    <tspan x="72" y="148" font-size="58" font-weight="300" letter-spacing="-1">The AGM</tspan>
    <tspan x="72" dy="70" font-size="58" font-weight="300" letter-spacing="-1">Survival Guide.</tspan>
    <tspan x="72" dy="70" font-size="58" font-weight="700" letter-spacing="-1" fill="#2E5BFF">Run meetings that</tspan>
    <tspan x="72" dy="70" font-size="58" font-weight="700" letter-spacing="-1" fill="#2E5BFF">don&#x2019;t waste time.</tspan>
  </text>
  <circle cx="484" cy="356" r="7" fill="#00FFC2"/>

  <!-- Divider -->
  <rect x="72" y="380" width="300" height="1.5" fill="url(#accentH)" opacity="0.6"/>

  <!-- Subhead -->
  <text x="72" y="410" font-family="Inter,sans-serif" font-size="16" font-weight="300" fill="#334155" letter-spacing="0.2">Prepare. Comply. Close.</text>

  <!-- Stat pills -->
  <rect x="72" y="436" width="178" height="32" rx="16" fill="rgba(46,91,255,0.07)" stroke="rgba(46,91,255,0.35)" stroke-width="1"/>
  <text x="161" y="457" text-anchor="middle" font-family="Inter,sans-serif" font-size="12" font-weight="600" fill="#2E5BFF">7-day notice required</text>

  <rect x="260" y="436" width="175" height="32" rx="16" fill="rgba(0,255,194,0.07)" stroke="rgba(15,110,86,0.35)" stroke-width="1"/>
  <text x="347" y="457" text-anchor="middle" font-family="Inter,sans-serif" font-size="12" font-weight="600" fill="#0F6E56">Proxy Form 4 SSMA</text>

  <rect x="72" y="480" width="192" height="32" rx="16" fill="rgba(46,91,255,0.06)" stroke="rgba(46,91,255,0.28)" stroke-width="1"/>
  <text x="168" y="501" text-anchor="middle" font-family="Inter,sans-serif" font-size="12" font-weight="600" fill="#185FA5">Minutes within 7 days</text>

  </g>
</svg>
