<svg width="1200" height="630" viewBox="0 0 1200 630" xmlns="http://www.w3.org/2000/svg">
  <defs>
    <linearGradient id="sky" x1="0" y1="0" x2="0" y2="1">
      <stop offset="0%" stop-color="#E6F1FB"/>
      <stop offset="55%" stop-color="#F0F7FF"/>
      <stop offset="100%" stop-color="#F8FAFC"/>
    </linearGradient>
    <linearGradient id="bldA" x1="0" y1="0" x2="0" y2="1">
      <stop offset="0%" stop-color="#D4E8FA"/>
      <stop offset="100%" stop-color="#85B7EB"/>
    </linearGradient>
    <linearGradient id="bldB" x1="0" y1="0" x2="0" y2="1">
      <stop offset="0%" stop-color="#B5D4F4"/>
      <stop offset="100%" stop-color="#378ADD"/>
    </linearGradient>
    <linearGradient id="bldC" x1="0" y1="0" x2="0" y2="1">
      <stop offset="0%" stop-color="#E6F1FB"/>
      <stop offset="100%" stop-color="#B5D4F4"/>
    </linearGradient>
    <linearGradient id="accentV" x1="0" y1="0" x2="0" y2="1">
      <stop offset="0%" stop-color="#2E5BFF"/>
      <stop offset="100%" stop-color="#00FFC2"/>
    </linearGradient>
    <linearGradient id="accentH" x1="0" y1="0" x2="1" y2="0">
      <stop offset="0%" stop-color="#2E5BFF"/>
      <stop offset="100%" stop-color="#2E5BFF" stop-opacity="0"/>
    </linearGradient>
    <linearGradient id="timelineG" x1="0" y1="0" x2="1" y2="0">
      <stop offset="0%" stop-color="#2E5BFF"/>
      <stop offset="100%" stop-color="#00FFC2"/>
    </linearGradient>
    <linearGradient id="docG" x1="0" y1="0" x2="0" y2="1">
      <stop offset="0%" stop-color="#FFFFFF"/>
      <stop offset="100%" stop-color="#E6F1FB"/>
    </linearGradient>
    <linearGradient id="badgeG" x1="0" y1="0" x2="0" y2="1">
      <stop offset="0%" stop-color="#2E5BFF"/>
      <stop offset="100%" stop-color="#185FA5"/>
    </linearGradient>
    <linearGradient id="ground" x1="0" y1="0" x2="0" y2="1">
      <stop offset="0%" stop-color="#B5D4F4"/>
      <stop offset="100%" stop-color="#85B7EB"/>
    </linearGradient>
    <clipPath id="mainClip"><rect width="1200" height="630"/></clipPath>
  </defs>

  <g clip-path="url(#mainClip)">

  <rect width="1200" height="630" fill="url(#sky)"/>

  <g stroke="#2E5BFF" stroke-width="0.4" opacity="0.05">
    <line x1="0" y1="126" x2="1200" y2="126"/><line x1="0" y1="252" x2="1200" y2="252"/>
    <line x1="0" y1="378" x2="1200" y2="378"/><line x1="0" y1="504" x2="1200" y2="504"/>
    <line x1="200" y1="0" x2="200" y2="630"/><line x1="400" y1="0" x2="400" y2="630"/>
    <line x1="600" y1="0" x2="600" y2="630"/><line x1="800" y1="0" x2="800" y2="630"/>
    <line x1="1000" y1="0" x2="1000" y2="630"/>
  </g>

  <ellipse cx="600" cy="480" rx="600" ry="200" fill="#2E5BFF" opacity="0.03"/>

  <rect x="0" y="580" width="1200" height="50" fill="url(#ground)" opacity="0.3"/>
  <line x1="0" y1="580" x2="1200" y2="580" stroke="#185FA5" stroke-width="0.8" opacity="0.18"/>

  <!-- Distant buildings -->
  <rect x="700" y="400" width="28" height="180" fill="#D4E8FA" opacity="0.65"/>
  <rect x="742" y="375" width="36" height="205" fill="#B5D4F4" opacity="0.55"/>
  <rect x="792" y="355" width="42" height="225" fill="#D4E8FA" opacity="0.6"/>

  <!-- Main tall building -->
  <rect x="850" y="68" width="165" height="512" fill="url(#bldA)" rx="3"/>
  <rect x="850" y="68" width="165" height="512" fill="none" stroke="#378ADD" stroke-width="0.9" opacity="0.25"/>
  <line x1="893" y1="68" x2="893" y2="580" stroke="#378ADD" stroke-width="0.5" opacity="0.2"/>
  <line x1="936" y1="68" x2="936" y2="580" stroke="#378ADD" stroke-width="0.5" opacity="0.2"/>
  <line x1="979" y1="68" x2="979" y2="580" stroke="#378ADD" stroke-width="0.5" opacity="0.2"/>
  <g stroke="#378ADD" stroke-width="0.4" opacity="0.15">
    <line x1="850" y1="106" x2="1015" y2="106"/><line x1="850" y1="144" x2="1015" y2="144"/>
    <line x1="850" y1="182" x2="1015" y2="182"/><line x1="850" y1="220" x2="1015" y2="220"/>
    <line x1="850" y1="258" x2="1015" y2="258"/><line x1="850" y1="296" x2="1015" y2="296"/>
    <line x1="850" y1="334" x2="1015" y2="334"/><line x1="850" y1="372" x2="1015" y2="372"/>
    <line x1="850" y1="410" x2="1015" y2="410"/><line x1="850" y1="448" x2="1015" y2="448"/>
    <line x1="850" y1="486" x2="1015" y2="486"/><line x1="850" y1="524" x2="1015" y2="524"/>
    <line x1="850" y1="562" x2="1015" y2="562"/>
  </g>
  <g opacity="0.42">
    <rect x="856" y="76" width="30" height="24" rx="1" fill="#2E5BFF" opacity="0.13"/>
    <rect x="898" y="76" width="30" height="24" rx="1" fill="#2E5BFF" opacity="0.18"/>
    <rect x="941" y="76" width="30" height="24" rx="1" fill="#00FFC2" opacity="0.1"/>
    <rect x="982" y="76" width="25" height="24" rx="1" fill="#2E5BFF" opacity="0.13"/>
    <rect x="856" y="114" width="30" height="24" rx="1" fill="#00FFC2" opacity="0.09"/>
    <rect x="898" y="114" width="30" height="24" rx="1" fill="#2E5BFF" opacity="0.15"/>
    <rect x="941" y="114" width="30" height="24" rx="1" fill="#2E5BFF" opacity="0.1"/>
    <rect x="982" y="114" width="25" height="24" rx="1" fill="#00FFC2" opacity="0.09"/>
    <rect x="856" y="152" width="30" height="24" rx="1" fill="#2E5BFF" opacity="0.15"/>
    <rect x="898" y="152" width="30" height="24" rx="1" fill="#2E5BFF" opacity="0.1"/>
    <rect x="941" y="152" width="30" height="24" rx="1" fill="#00FFC2" opacity="0.1"/>
    <rect x="982" y="152" width="25" height="24" rx="1" fill="#2E5BFF" opacity="0.13"/>
    <rect x="856" y="190" width="30" height="24" rx="1" fill="#2E5BFF" opacity="0.1"/>
    <rect x="898" y="190" width="30" height="24" rx="1" fill="#00FFC2" opacity="0.09"/>
    <rect x="941" y="190" width="30" height="24" rx="1" fill="#2E5BFF" opacity="0.15"/>
    <rect x="982" y="190" width="25" height="24" rx="1" fill="#2E5BFF" opacity="0.1"/>
    <rect x="856" y="228" width="30" height="24" rx="1" fill="#00FFC2" opacity="0.09"/>
    <rect x="898" y="228" width="30" height="24" rx="1" fill="#2E5BFF" opacity="0.18"/>
    <rect x="941" y="228" width="30" height="24" rx="1" fill="#2E5BFF" opacity="0.1"/>
    <rect x="982" y="228" width="25" height="24" rx="1" fill="#00FFC2" opacity="0.09"/>
    <rect x="856" y="266" width="30" height="24" rx="1" fill="#2E5BFF" opacity="0.15"/>
    <rect x="898" y="266" width="30" height="24" rx="1" fill="#00FFC2" opacity="0.09"/>
    <rect x="941" y="266" width="30" height="24" rx="1" fill="#2E5BFF" opacity="0.13"/>
    <rect x="982" y="266" width="25" height="24" rx="1" fill="#2E5BFF" opacity="0.1"/>
    <rect x="856" y="304" width="30" height="24" rx="1" fill="#2E5BFF" opacity="0.1"/>
    <rect x="898" y="304" width="30" height="24" rx="1" fill="#2E5BFF" opacity="0.15"/>
    <rect x="941" y="304" width="30" height="24" rx="1" fill="#00FFC2" opacity="0.09"/>
    <rect x="982" y="304" width="25" height="24" rx="1" fill="#2E5BFF" opacity="0.13"/>
    <rect x="856" y="342" width="30" height="24" rx="1" fill="#00FFC2" opacity="0.09"/>
    <rect x="898" y="342" width="30" height="24" rx="1" fill="#2E5BFF" opacity="0.13"/>
    <rect x="941" y="342" width="30" height="24" rx="1" fill="#2E5BFF" opacity="0.1"/>
    <rect x="982" y="342" width="25" height="24" rx="1" fill="#00FFC2" opacity="0.09"/>
    <rect x="856" y="380" width="30" height="24" rx="1" fill="#2E5BFF" opacity="0.15"/>
    <rect x="898" y="380" width="30" height="24" rx="1" fill="#2E5BFF" opacity="0.1"/>
    <rect x="941" y="380" width="30" height="24" rx="1" fill="#00FFC2" opacity="0.09"/>
    <rect x="982" y="380" width="25" height="24" rx="1" fill="#2E5BFF" opacity="0.13"/>
    <rect x="856" y="418" width="30" height="24" rx="1" fill="#2E5BFF" opacity="0.1"/>
    <rect x="898" y="418" width="30" height="24" rx="1" fill="#00FFC2" opacity="0.09"/>
    <rect x="941" y="418" width="30" height="24" rx="1" fill="#2E5BFF" opacity="0.15"/>
    <rect x="982" y="418" width="25" height="24" rx="1" fill="#2E5BFF" opacity="0.1"/>
    <rect x="856" y="456" width="30" height="24" rx="1" fill="#00FFC2" opacity="0.09"/>
    <rect x="898" y="456" width="30" height="24" rx="1" fill="#2E5BFF" opacity="0.18"/>
    <rect x="941" y="456" width="30" height="24" rx="1" fill="#2E5BFF" opacity="0.1"/>
    <rect x="982" y="456" width="25" height="24" rx="1" fill="#00FFC2" opacity="0.09"/>
    <rect x="856" y="494" width="30" height="24" rx="1" fill="#2E5BFF" opacity="0.13"/>
    <rect x="898" y="494" width="30" height="24" rx="1" fill="#2E5BFF" opacity="0.1"/>
    <rect x="941" y="494" width="30" height="24" rx="1" fill="#00FFC2" opacity="0.09"/>
    <rect x="982" y="494" width="25" height="24" rx="1" fill="#2E5BFF" opacity="0.13"/>
    <rect x="856" y="532" width="30" height="24" rx="1" fill="#00FFC2" opacity="0.09"/>
    <rect x="898" y="532" width="30" height="24" rx="1" fill="#2E5BFF" opacity="0.15"/>
    <rect x="941" y="532" width="30" height="24" rx="1" fill="#2E5BFF" opacity="0.1"/>
    <rect x="982" y="532" width="25" height="24" rx="1" fill="#2E5BFF" opacity="0.09"/>
  </g>

  <!-- Secondary right building -->
  <rect x="1030" y="160" width="105" height="420" fill="url(#bldB)" rx="2"/>
  <rect x="1030" y="160" width="105" height="420" fill="none" stroke="#378ADD" stroke-width="0.7" opacity="0.2"/>
  <line x1="1063" y1="160" x2="1063" y2="580" stroke="#378ADD" stroke-width="0.4" opacity="0.18"/>
  <line x1="1100" y1="160" x2="1100" y2="580" stroke="#378ADD" stroke-width="0.4" opacity="0.18"/>
  <g stroke="#378ADD" stroke-width="0.3" opacity="0.12">
    <line x1="1030" y1="196" x2="1135" y2="196"/><line x1="1030" y1="232" x2="1135" y2="232"/>
    <line x1="1030" y1="268" x2="1135" y2="268"/><line x1="1030" y1="304" x2="1135" y2="304"/>
    <line x1="1030" y1="340" x2="1135" y2="340"/><line x1="1030" y1="376" x2="1135" y2="376"/>
    <line x1="1030" y1="412" x2="1135" y2="412"/><line x1="1030" y1="448" x2="1135" y2="448"/>
    <line x1="1030" y1="484" x2="1135" y2="484"/><line x1="1030" y1="520" x2="1135" y2="520"/>
    <line x1="1030" y1="556" x2="1135" y2="556"/>
  </g>
  <g opacity="0.35">
    <rect x="1036" y="170" width="20" height="16" rx="1" fill="#2E5BFF" opacity="0.15"/>
    <rect x="1068" y="170" width="20" height="16" rx="1" fill="#00FFC2" opacity="0.12"/>
    <rect x="1106" y="170" width="20" height="16" rx="1" fill="#2E5BFF" opacity="0.15"/>
    <rect x="1036" y="202" width="20" height="16" rx="1" fill="#00FFC2" opacity="0.1"/>
    <rect x="1068" y="202" width="20" height="16" rx="1" fill="#2E5BFF" opacity="0.18"/>
    <rect x="1106" y="202" width="20" height="16" rx="1" fill="#2E5BFF" opacity="0.12"/>
    <rect x="1036" y="234" width="20" height="16" rx="1" fill="#2E5BFF" opacity="0.15"/>
    <rect x="1068" y="234" width="20" height="16" rx="1" fill="#2E5BFF" opacity="0.1"/>
    <rect x="1106" y="234" width="20" height="16" rx="1" fill="#00FFC2" opacity="0.1"/>
    <rect x="1036" y="266" width="20" height="16" rx="1" fill="#00FFC2" opacity="0.09"/>
    <rect x="1068" y="266" width="20" height="16" rx="1" fill="#2E5BFF" opacity="0.15"/>
    <rect x="1106" y="266" width="20" height="16" rx="1" fill="#2E5BFF" opacity="0.12"/>
    <rect x="1036" y="298" width="20" height="16" rx="1" fill="#2E5BFF" opacity="0.13"/>
    <rect x="1068" y="298" width="20" height="16" rx="1" fill="#00FFC2" opacity="0.1"/>
    <rect x="1106" y="298" width="20" height="16" rx="1" fill="#2E5BFF" opacity="0.15"/>
    <rect x="1036" y="330" width="20" height="16" rx="1" fill="#2E5BFF" opacity="0.1"/>
    <rect x="1068" y="330" width="20" height="16" rx="1" fill="#2E5BFF" opacity="0.15"/>
    <rect x="1106" y="330" width="20" height="16" rx="1" fill="#00FFC2" opacity="0.09"/>
    <rect x="1036" y="362" width="20" height="16" rx="1" fill="#00FFC2" opacity="0.1"/>
    <rect x="1068" y="362" width="20" height="16" rx="1" fill="#2E5BFF" opacity="0.13"/>
    <rect x="1106" y="362" width="20" height="16" rx="1" fill="#2E5BFF" opacity="0.1"/>
    <rect x="1036" y="394" width="20" height="16" rx="1" fill="#2E5BFF" opacity="0.15"/>
    <rect x="1068" y="394" width="20" height="16" rx="1" fill="#00FFC2" opacity="0.09"/>
    <rect x="1106" y="394" width="20" height="16" rx="1" fill="#2E5BFF" opacity="0.13"/>
  </g>

  <!-- Far right building -->
  <rect x="1148" y="225" width="75" height="355" fill="url(#bldC)" rx="2"/>
  <rect x="1148" y="225" width="75" height="355" fill="none" stroke="#378ADD" stroke-width="0.5" opacity="0.18"/>
  <g stroke="#378ADD" stroke-width="0.3" opacity="0.12">
    <line x1="1148" y1="261" x2="1223" y2="261"/><line x1="1148" y1="297" x2="1223" y2="297"/>
    <line x1="1148" y1="333" x2="1223" y2="333"/><line x1="1148" y1="369" x2="1223" y2="369"/>
    <line x1="1148" y1="405" x2="1223" y2="405"/><line x1="1148" y1="441" x2="1223" y2="441"/>
    <line x1="1148" y1="477" x2="1223" y2="477"/><line x1="1148" y1="513" x2="1223" y2="513"/>
    <line x1="1148" y1="549" x2="1223" y2="549"/>
  </g>
  <g opacity="0.28">
    <rect x="1154" y="233" width="16" height="14" rx="1" fill="#2E5BFF" opacity="0.15"/>
    <rect x="1176" y="233" width="16" height="14" rx="1" fill="#00FFC2" opacity="0.1"/>
    <rect x="1154" y="265" width="16" height="14" rx="1" fill="#00FFC2" opacity="0.1"/>
    <rect x="1176" y="265" width="16" height="14" rx="1" fill="#2E5BFF" opacity="0.15"/>
    <rect x="1154" y="297" width="16" height="14" rx="1" fill="#2E5BFF" opacity="0.12"/>
    <rect x="1176" y="297" width="16" height="14" rx="1" fill="#2E5BFF" opacity="0.1"/>
    <rect x="1154" y="329" width="16" height="14" rx="1" fill="#00FFC2" opacity="0.09"/>
    <rect x="1176" y="329" width="16" height="14" rx="1" fill="#2E5BFF" opacity="0.13"/>
  </g>

  <!-- Clipboard document -->
  <rect x="628" y="118" width="178" height="242" rx="7" fill="url(#docG)" opacity="0.97"/>
  <rect x="628" y="118" width="178" height="242" rx="7" fill="none" stroke="#2E5BFF" stroke-width="1.2" opacity="0.35"/>
  <rect x="698" y="108" width="42" height="26" rx="5" fill="#0C447C"/>
  <rect x="706" y="114" width="26" height="14" rx="3" fill="#185FA5"/>
  <rect x="628" y="118" width="178" height="30" rx="7" fill="#0C447C"/>
  <rect x="628" y="135" width="178" height="13" fill="#0C447C"/>
  <text x="717" y="138" text-anchor="middle" font-family="Inter,sans-serif" font-size="9" font-weight="600" fill="#85B7EB" letter-spacing="1.5">10-YEAR PLAN</text>
  <text x="644" y="172" font-family="Inter,sans-serif" font-size="8" font-weight="600" fill="#64748B" letter-spacing="0.8">ASSET SCHEDULE</text>
  <line x1="644" y1="180" x2="790" y2="180" stroke="#B5D4F4" stroke-width="0.8"/>
  <rect x="644" y="184" width="112" height="4" rx="2" fill="#E2E8F0"/>
  <rect x="644" y="192" width="130" height="4" rx="2" fill="#E2E8F0"/>
  <rect x="644" y="200" width="96" height="4" rx="2" fill="#E2E8F0"/>
  <text x="644" y="218" font-family="Inter,sans-serif" font-size="8" font-weight="600" fill="#64748B" letter-spacing="0.8">COST ESTIMATES</text>
  <line x1="644" y1="226" x2="790" y2="226" stroke="#B5D4F4" stroke-width="0.8"/>
  <rect x="644" y="230" width="122" height="4" rx="2" fill="#E2E8F0"/>
  <rect x="644" y="238" width="96" height="4" rx="2" fill="#E2E8F0"/>
  <rect x="644" y="246" width="140" height="4" rx="2" fill="#E2E8F0"/>
  <text x="644" y="265" font-family="Inter,sans-serif" font-size="8" font-weight="600" fill="#64748B" letter-spacing="0.8">STAGING SCHEDULE</text>
  <line x1="644" y1="273" x2="790" y2="273" stroke="#B5D4F4" stroke-width="0.8"/>
  <rect x="644" y="277" width="104" height="4" rx="2" fill="#E2E8F0"/>
  <rect x="644" y="285" width="132" height="4" rx="2" fill="#E2E8F0"/>
  <circle cx="774" cy="308" r="18" fill="#00FFC2" opacity="0.15"/>
  <circle cx="774" cy="308" r="18" fill="none" stroke="#00FFC2" stroke-width="1.5"/>
  <polyline points="764,308 771,315 784,300" stroke="#00FFC2" stroke-width="2.5" stroke-linecap="round" stroke-linejoin="round" fill="none"/>
  <rect x="628" y="370" width="178" height="32" rx="6" fill="url(#badgeG)"/>
  <text x="717" y="390" text-anchor="middle" font-family="Inter,sans-serif" font-size="10" font-weight="600" fill="white" letter-spacing="1">STANDARD FORM</text>

  <!-- QS badge -->
  <circle cx="598" cy="298" r="48" fill="#042C53" opacity="0.88"/>
  <circle cx="598" cy="298" r="48" fill="none" stroke="url(#accentV)" stroke-width="2.5"/>
  <circle cx="598" cy="298" r="40" fill="none" stroke="rgba(46,91,255,0.18)" stroke-width="1"/>
  <text x="598" y="283" text-anchor="middle" font-family="Inter,sans-serif" font-size="8" font-weight="400" fill="#85B7EB" letter-spacing="1.5">CERTIFIED</text>
  <text x="598" y="303" text-anchor="middle" font-family="Inter,sans-serif" font-size="18" font-weight="700" fill="white">QS</text>
  <text x="598" y="318" text-anchor="middle" font-family="Inter,sans-serif" font-size="7" font-weight="300" fill="#00FFC2" letter-spacing="1.5">SURVEYOR</text>

  <!-- Stat cards -->
  <rect x="830" y="420" width="170" height="62" rx="5" fill="white" fill-opacity="0.85" stroke="#2E5BFF" stroke-width="0.8" stroke-opacity="0.3"/>
  <rect x="830" y="420" width="3" height="62" fill="#2E5BFF"/>
  <text x="848" y="445" font-family="Inter,sans-serif" font-size="22" font-weight="600" fill="#121C2D">$2.5K&#x2013;$8K</text>
  <text x="848" y="461" font-family="Inter,sans-serif" font-size="10" font-weight="300" fill="#64748B">Surveyor certification cost</text>
  <text x="848" y="474" font-family="Inter,sans-serif" font-size="10" font-weight="300" fill="#64748B">for multi-storey buildings</text>
  <rect x="1012" y="420" width="158" height="62" rx="5" fill="white" fill-opacity="0.85" stroke="#00FFC2" stroke-width="0.8" stroke-opacity="0.5"/>
  <rect x="1012" y="420" width="3" height="62" fill="#00FFC2"/>
  <text x="1030" y="445" font-family="Inter,sans-serif" font-size="22" font-weight="600" fill="#121C2D">3+ <tspan font-size="13" font-weight="300" fill="#64748B">storeys</tspan></text>
  <text x="1030" y="461" font-family="Inter,sans-serif" font-size="10" font-weight="300" fill="#64748B">Triggers independent</text>
  <text x="1030" y="474" font-family="Inter,sans-serif" font-size="10" font-weight="300" fill="#64748B">surveyor requirement</text>

  <!-- Left accent bar -->
  <rect x="0" y="0" width="6" height="630" fill="url(#accentV)"/>

  <!-- Eyebrow -->
  <text x="48" y="58" font-family="Inter,sans-serif" font-size="13" font-weight="400" fill="#64748B" letter-spacing="2.5">THE STRATA EDIT  &#xB7;  COMPLIANCE &amp; REGULATION</text>
  <rect x="48" y="70" width="280" height="1" fill="url(#accentH)" opacity="0.4"/>

  <!-- Headline -->
  <text font-family="Inter,sans-serif" fill="#121C2D">
    <tspan x="48" y="148" font-size="62" font-weight="300" letter-spacing="-1">The April 2026</tspan>
    <tspan x="48" dy="76" font-size="62" font-weight="300" letter-spacing="-1">Capital Works</tspan>
    <tspan x="48" dy="76" font-size="62" font-weight="700" letter-spacing="-1" fill="#2E5BFF">Fund Reforms.</tspan>
  </text>
  <circle cx="362" cy="296" r="7" fill="#00FFC2"/>

  <!-- Divider -->
  <rect x="48" y="328" width="300" height="1.5" fill="url(#accentH)" opacity="0.6"/>

  <!-- Subhead -->
  <text x="48" y="360" font-family="Inter,sans-serif" font-size="17" font-weight="300" fill="#334155" letter-spacing="0.2">Are your 10-year plans ready?</text>

  <!-- Stat pills -->
  <rect x="48" y="396" width="196" height="32" rx="16" fill="rgba(46,91,255,0.07)" stroke="rgba(46,91,255,0.35)" stroke-width="1"/>
  <text x="146" y="417" text-anchor="middle" font-family="Inter,sans-serif" font-size="12" font-weight="600" fill="#2E5BFF">Apr 1, 2026 deadline</text>
  <rect x="254" y="396" width="195" height="32" rx="16" fill="rgba(0,255,194,0.07)" stroke="rgba(15,110,86,0.35)" stroke-width="1"/>
  <text x="351" y="417" text-anchor="middle" font-family="Inter,sans-serif" font-size="12" font-weight="600" fill="#0F6E56">3+ storeys: cert required</text>
  <rect x="48" y="440" width="178" height="32" rx="16" fill="rgba(46,91,255,0.06)" stroke="rgba(46,91,255,0.28)" stroke-width="1"/>
  <text x="137" y="461" text-anchor="middle" font-family="Inter,sans-serif" font-size="12" font-weight="600" fill="#185FA5">$2.5K&#x2013;$8K surveyor</text>

  <!-- Slim timeline bar -->
  <line x1="0" y1="496" x2="1200" y2="496" stroke="#D4E8FA" stroke-width="1" opacity="0.8"/>
  <rect x="48" y="510" width="1112" height="3" rx="1.5" fill="#D4E8FA"/>
  <rect x="48" y="510" width="1112" height="3" rx="1.5" fill="url(#timelineG)" opacity="0.75"/>
  <circle cx="48" cy="511" r="6" fill="#2E5BFF"/>
  <text x="60" y="507" font-family="Inter,sans-serif" font-size="9" font-weight="600" fill="#121C2D">Now</text>
  <text x="60" y="522" font-family="Inter,sans-serif" font-size="9" font-weight="300" fill="#64748B">Audit plans</text>
  <circle cx="320" cy="511" r="6" fill="#185FA5"/>
  <text x="332" y="507" font-family="Inter,sans-serif" font-size="9" font-weight="600" fill="#121C2D">Jan&#x2013;Mar</text>
  <text x="332" y="522" font-family="Inter,sans-serif" font-size="9" font-weight="300" fill="#64748B">Engage surveyor</text>
  <circle cx="700" cy="511" r="8" fill="url(#accentV)"/>
  <text x="714" y="507" font-family="Inter,sans-serif" font-size="9" font-weight="700" fill="#2E5BFF">Apr 1 &#x2014; Deadline</text>
  <text x="714" y="522" font-family="Inter,sans-serif" font-size="9" font-weight="300" fill="#64748B">Standard form mandatory</text>
  <circle cx="1160" cy="511" r="6" fill="#00FFC2"/>
  <text x="1100" y="507" font-family="Inter,sans-serif" font-size="9" font-weight="600" fill="#121C2D">Ongoing</text>
  <text x="1093" y="522" font-family="Inter,sans-serif" font-size="9" font-weight="300" fill="#64748B">All new plans</text>

  </g>
</svg>
