<svg width="1200" height="630" viewBox="0 0 1200 630" xmlns="http://www.w3.org/2000/svg">
<defs>
  <linearGradient id="sky" x1="0" y1="0" x2="0" y2="1"><stop offset="0%" stop-color="#020d1f"/><stop offset="40%" stop-color="#042C53"/><stop offset="75%" stop-color="#0C447C"/><stop offset="100%" stop-color="#185FA5"/></linearGradient>
  <linearGradient id="ground" x1="0" y1="0" x2="0" y2="1"><stop offset="0%" stop-color="#021626"/><stop offset="100%" stop-color="#010a14"/></linearGradient>
  <linearGradient id="bldA" x1="0" y1="0" x2="0" y2="1"><stop offset="0%" stop-color="#0C447C"/><stop offset="100%" stop-color="#020d1f"/></linearGradient>
  <linearGradient id="bldB" x1="0" y1="0" x2="0" y2="1"><stop offset="0%" stop-color="#185FA5"/><stop offset="100%" stop-color="#042C53"/></linearGradient>
  <linearGradient id="bldC" x1="0" y1="0" x2="0" y2="1"><stop offset="0%" stop-color="#052e5c"/><stop offset="100%" stop-color="#020d1f"/></linearGradient>
  <linearGradient id="accentV" x1="0" y1="0" x2="0" y2="1"><stop offset="0%" stop-color="#2E5BFF"/><stop offset="100%" stop-color="#00FFC2"/></linearGradient>
  <linearGradient id="accentH" x1="0" y1="0" x2="1" y2="0"><stop offset="0%" stop-color="#00FFC2"/><stop offset="100%" stop-color="#00FFC2" stop-opacity="0"/></linearGradient>
  <linearGradient id="timelineG" x1="0" y1="0" x2="1" y2="0"><stop offset="0%" stop-color="#2E5BFF"/><stop offset="100%" stop-color="#00FFC2"/></linearGradient>
  <clipPath id="mainClip"><rect width="1200" height="630"/></clipPath>
</defs>
<g clip-path="url(#mainClip)">
<rect width="1200" height="630" fill="url(#sky)"/>
<g stroke="#2E5BFF" stroke-width="0.5" opacity="0.05"><line x1="0" y1="126" x2="1200" y2="126"/><line x1="0" y1="252" x2="1200" y2="252"/><line x1="0" y1="378" x2="1200" y2="378"/><line x1="0" y1="504" x2="1200" y2="504"/><line x1="200" y1="0" x2="200" y2="630"/><line x1="400" y1="0" x2="400" y2="630"/><line x1="600" y1="0" x2="600" y2="630"/><line x1="800" y1="0" x2="800" y2="630"/><line x1="1000" y1="0" x2="1000" y2="630"/></g>
<ellipse cx="600" cy="200" rx="500" ry="300" fill="#2E5BFF" opacity="0.07"/>
<rect x="0" y="580" width="1200" height="50" fill="url(#ground)"/>
<line x1="0" y1="580" x2="1200" y2="580" stroke="#2E5BFF" stroke-width="0.8" opacity="0.3"/>
<!-- Distant buildings -->
<rect x="700" y="400" width="28" height="180" fill="#042C53" opacity="0.55"/><rect x="742" y="375" width="36" height="205" fill="#042C53" opacity="0.5"/><rect x="792" y="355" width="42" height="225" fill="#052e5c" opacity="0.55"/>
<!-- Main building -->
<rect x="850" y="68" width="165" height="512" fill="url(#bldA)" rx="2"/><rect x="850" y="68" width="165" height="512" fill="none" stroke="#378ADD" stroke-width="0.7" opacity="0.2"/>
<line x1="893" y1="68" x2="893" y2="580" stroke="#378ADD" stroke-width="0.5" opacity="0.18"/><line x1="936" y1="68" x2="936" y2="580" stroke="#378ADD" stroke-width="0.5" opacity="0.18"/><line x1="979" y1="68" x2="979" y2="580" stroke="#378ADD" stroke-width="0.5" opacity="0.18"/>
<g stroke="#378ADD" stroke-width="0.4" opacity="0.12"><line x1="850" y1="106" x2="1015" y2="106"/><line x1="850" y1="144" x2="1015" y2="144"/><line x1="850" y1="182" x2="1015" y2="182"/><line x1="850" y1="220" x2="1015" y2="220"/><line x1="850" y1="258" x2="1015" y2="258"/><line x1="850" y1="296" x2="1015" y2="296"/><line x1="850" y1="334" x2="1015" y2="334"/><line x1="850" y1="372" x2="1015" y2="372"/><line x1="850" y1="410" x2="1015" y2="410"/><line x1="850" y1="448" x2="1015" y2="448"/><line x1="850" y1="486" x2="1015" y2="486"/><line x1="850" y1="524" x2="1015" y2="524"/></g>
<g opacity="0.35"><rect x="856" y="76" width="30" height="24" rx="1" fill="#2E5BFF" opacity="0.2"/><rect x="898" y="76" width="30" height="24" rx="1" fill="#00FFC2" opacity="0.15"/><rect x="941" y="76" width="30" height="24" rx="1" fill="#2E5BFF" opacity="0.18"/><rect x="982" y="76" width="25" height="24" rx="1" fill="#B5D4F4" opacity="0.12"/><rect x="856" y="114" width="30" height="24" rx="1" fill="#B5D4F4" opacity="0.1"/><rect x="898" y="114" width="30" height="24" rx="1" fill="#2E5BFF" opacity="0.2"/><rect x="941" y="114" width="30" height="24" rx="1" fill="#00FFC2" opacity="0.12"/><rect x="982" y="114" width="25" height="24" rx="1" fill="#2E5BFF" opacity="0.18"/><rect x="856" y="152" width="30" height="24" rx="1" fill="#2E5BFF" opacity="0.18"/><rect x="898" y="152" width="30" height="24" rx="1" fill="#B5D4F4" opacity="0.12"/><rect x="941" y="152" width="30" height="24" rx="1" fill="#2E5BFF" opacity="0.2"/><rect x="982" y="152" width="25" height="24" rx="1" fill="#00FFC2" opacity="0.12"/><rect x="856" y="190" width="30" height="24" rx="1" fill="#00FFC2" opacity="0.12"/><rect x="898" y="190" width="30" height="24" rx="1" fill="#2E5BFF" opacity="0.2"/><rect x="941" y="190" width="30" height="24" rx="1" fill="#B5D4F4" opacity="0.12"/><rect x="982" y="190" width="25" height="24" rx="1" fill="#2E5BFF" opacity="0.18"/><rect x="856" y="228" width="30" height="24" rx="1" fill="#2E5BFF" opacity="0.15"/><rect x="898" y="228" width="30" height="24" rx="1" fill="#00FFC2" opacity="0.12"/><rect x="941" y="228" width="30" height="24" rx="1" fill="#2E5BFF" opacity="0.2"/><rect x="982" y="228" width="25" height="24" rx="1" fill="#B5D4F4" opacity="0.1"/><rect x="856" y="266" width="30" height="24" rx="1" fill="#B5D4F4" opacity="0.1"/><rect x="898" y="266" width="30" height="24" rx="1" fill="#2E5BFF" opacity="0.18"/><rect x="941" y="266" width="30" height="24" rx="1" fill="#00FFC2" opacity="0.12"/><rect x="982" y="266" width="25" height="24" rx="1" fill="#2E5BFF" opacity="0.2"/><rect x="856" y="304" width="30" height="24" rx="1" fill="#2E5BFF" opacity="0.2"/><rect x="898" y="304" width="30" height="24" rx="1" fill="#B5D4F4" opacity="0.12"/><rect x="941" y="304" width="30" height="24" rx="1" fill="#2E5BFF" opacity="0.18"/><rect x="982" y="304" width="25" height="24" rx="1" fill="#00FFC2" opacity="0.12"/><rect x="856" y="342" width="30" height="24" rx="1" fill="#00FFC2" opacity="0.12"/><rect x="898" y="342" width="30" height="24" rx="1" fill="#2E5BFF" opacity="0.2"/><rect x="941" y="342" width="30" height="24" rx="1" fill="#B5D4F4" opacity="0.1"/><rect x="982" y="342" width="25" height="24" rx="1" fill="#2E5BFF" opacity="0.18"/><rect x="856" y="380" width="30" height="24" rx="1" fill="#2E5BFF" opacity="0.18"/><rect x="898" y="380" width="30" height="24" rx="1" fill="#00FFC2" opacity="0.12"/><rect x="941" y="380" width="30" height="24" rx="1" fill="#2E5BFF" opacity="0.2"/><rect x="982" y="380" width="25" height="24" rx="1" fill="#B5D4F4" opacity="0.1"/></g>
<!-- Secondary building -->
<rect x="1030" y="160" width="105" height="420" fill="url(#bldB)" rx="2"/><rect x="1030" y="160" width="105" height="420" fill="none" stroke="#378ADD" stroke-width="0.6" opacity="0.18"/>
<line x1="1063" y1="160" x2="1063" y2="580" stroke="#378ADD" stroke-width="0.4" opacity="0.15"/><line x1="1100" y1="160" x2="1100" y2="580" stroke="#378ADD" stroke-width="0.4" opacity="0.15"/>
<g opacity="0.28"><rect x="1036" y="170" width="20" height="16" rx="1" fill="#2E5BFF" opacity="0.2"/><rect x="1068" y="170" width="20" height="16" rx="1" fill="#00FFC2" opacity="0.15"/><rect x="1106" y="170" width="20" height="16" rx="1" fill="#2E5BFF" opacity="0.2"/><rect x="1036" y="202" width="20" height="16" rx="1" fill="#00FFC2" opacity="0.12"/><rect x="1068" y="202" width="20" height="16" rx="1" fill="#2E5BFF" opacity="0.2"/><rect x="1106" y="202" width="20" height="16" rx="1" fill="#B5D4F4" opacity="0.15"/><rect x="1036" y="234" width="20" height="16" rx="1" fill="#2E5BFF" opacity="0.18"/><rect x="1068" y="234" width="20" height="16" rx="1" fill="#B5D4F4" opacity="0.12"/><rect x="1106" y="234" width="20" height="16" rx="1" fill="#00FFC2" opacity="0.12"/></g>
<rect x="1148" y="225" width="75" height="355" fill="url(#bldC)" rx="2"/><rect x="1148" y="225" width="75" height="355" fill="none" stroke="#378ADD" stroke-width="0.5" opacity="0.15"/>

<!-- ILLUSTRATION: VOLUNTEER ENERGY DEPLETION
     Three volunteer "people" icons with energy bars showing burnout trajectory -->

<!-- Person 1 — Fresh volunteer (full energy) -->
<!-- Head -->
<circle cx="680" cy="148" r="18" fill="#042C53" stroke="#2E5BFF" stroke-width="1.5" opacity="0.9"/>
<text x="680" y="153" text-anchor="middle" font-family="Inter,sans-serif" font-size="12" fill="#E6F1FB">Y1</text>
<!-- Body silhouette -->
<path d="M662 175 Q680 165 698 175 L700 210 L660 210 Z" fill="#0C447C" opacity="0.6"/>
<!-- Energy bar — full, mint -->
<rect x="662" y="218" width="36" height="6" rx="3" fill="#0C447C" opacity="0.5"/>
<rect x="662" y="218" width="36" height="6" rx="3" fill="#00FFC2" opacity="0.85"/>
<text x="680" y="235" text-anchor="middle" font-family="Inter,sans-serif" font-size="7" font-weight="600" fill="#00FFC2">FULL</text>
<text x="680" y="246" text-anchor="middle" font-family="Inter,sans-serif" font-size="7" font-weight="300" fill="#85B7EB">Year 1</text>

<!-- Arrow 1→2 -->
<line x1="710" y1="188" x2="738" y2="188" stroke="#378ADD" stroke-width="1" stroke-dasharray="3 3" opacity="0.5"/>
<polyline points="734,184 740,188 734,192" stroke="#378ADD" stroke-width="1" fill="none" opacity="0.5"/>
<text x="724" y="180" text-anchor="middle" font-family="Inter,sans-serif" font-size="6" font-weight="300" fill="#64748B">regs↑</text>

<!-- Person 2 — Mid-term (partial energy) -->
<circle cx="758" cy="148" r="18" fill="#042C53" stroke="#2E5BFF" stroke-width="1.5" opacity="0.9"/>
<text x="758" y="153" text-anchor="middle" font-family="Inter,sans-serif" font-size="12" fill="#E6F1FB">Y3</text>
<path d="M740 175 Q758 165 776 175 L778 210 L738 210 Z" fill="#0C447C" opacity="0.5"/>
<!-- Energy bar — 50%, cobalt -->
<rect x="740" y="218" width="36" height="6" rx="3" fill="#0C447C" opacity="0.5"/>
<rect x="740" y="218" width="18" height="6" rx="3" fill="#2E5BFF" opacity="0.8"/>
<text x="758" y="235" text-anchor="middle" font-family="Inter,sans-serif" font-size="7" font-weight="600" fill="#85B7EB">50%</text>
<text x="758" y="246" text-anchor="middle" font-family="Inter,sans-serif" font-size="7" font-weight="300" fill="#85B7EB">Year 3</text>

<!-- Arrow 2→3 -->
<line x1="788" y1="188" x2="816" y2="188" stroke="#378ADD" stroke-width="1" stroke-dasharray="3 3" opacity="0.5"/>
<polyline points="812,184 818,188 812,192" stroke="#378ADD" stroke-width="1" fill="none" opacity="0.5"/>
<text x="802" y="180" text-anchor="middle" font-family="Inter,sans-serif" font-size="6" font-weight="300" fill="#64748B">load↑</text>

<!-- Person 3 — Burnt out (low energy, faded) -->
<circle cx="836" cy="148" r="18" fill="#042C53" stroke="#64748B" stroke-width="1.5" opacity="0.7"/>
<text x="836" y="153" text-anchor="middle" font-family="Inter,sans-serif" font-size="12" fill="#64748B">Y6</text>
<path d="M818 175 Q836 165 854 175 L856 210 L816 210 Z" fill="#042C53" opacity="0.4"/>
<!-- Energy bar — 10%, red -->
<rect x="818" y="218" width="36" height="6" rx="3" fill="#0C447C" opacity="0.4"/>
<rect x="818" y="218" width="4" height="6" rx="3" fill="#FF4D4D" opacity="0.8"/>
<text x="836" y="235" text-anchor="middle" font-family="Inter,sans-serif" font-size="7" font-weight="600" fill="#FF7A7A">LOW</text>
<text x="836" y="246" text-anchor="middle" font-family="Inter,sans-serif" font-size="7" font-weight="300" fill="#64748B">Year 6</text>

<!-- EXIT arrow -->
<line x1="856" y1="188" x2="840" y2="265" stroke="#FF4D4D" stroke-width="1.2" stroke-dasharray="3 3" opacity="0.6"/>
<text x="865" y="250" font-family="Inter,sans-serif" font-size="8" font-weight="600" fill="#FF7A7A">EXITS</text>

<!-- Structural causes bracket above -->
<rect x="656" y="98" width="224" height="28" rx="4" fill="#042C53" fill-opacity="0.8" stroke="#2E5BFF" stroke-width="0.7" stroke-opacity="0.4"/>
<text x="768" y="116" text-anchor="middle" font-family="Inter,sans-serif" font-size="8" font-weight="300" fill="#85B7EB">More regulation · More liability · No support · No pay</text>

<!-- Solution panel — below the people -->
<rect x="656" y="270" width="224" height="136" rx="6" fill="#042C53" fill-opacity="0.75" stroke="#00FFC2" stroke-width="0.8" stroke-opacity="0.5"/>
<text x="768" y="290" text-anchor="middle" font-family="Inter,sans-serif" font-size="9" font-weight="600" fill="#00FFC2" letter-spacing="1">MANAGER CAN FIX THIS</text>
<line x1="668" y1="296" x2="868" y2="296" stroke="#00FFC2" stroke-width="0.5" opacity="0.3"/>
<!-- Fix items -->
<circle cx="672" cy="312" r="3" fill="#2E5BFF" opacity="0.8"/>
<text x="682" y="316" font-family="Inter,sans-serif" font-size="8" font-weight="300" fill="#85B7EB">Templated agendas + pre-written reports</text>
<circle cx="672" cy="330" r="3" fill="#2E5BFF" opacity="0.8"/>
<text x="682" y="334" font-family="Inter,sans-serif" font-size="8" font-weight="300" fill="#85B7EB">Clear decision frameworks</text>
<circle cx="672" cy="348" r="3" fill="#00FFC2" opacity="0.8"/>
<text x="682" y="352" font-family="Inter,sans-serif" font-size="8" font-weight="300" fill="#85B7EB">Role definition: what's yours, what's mine</text>
<circle cx="672" cy="366" r="3" fill="#00FFC2" opacity="0.8"/>
<text x="682" y="370" font-family="Inter,sans-serif" font-size="8" font-weight="300" fill="#85B7EB">Annual training + governance support</text>
<circle cx="672" cy="384" r="3" fill="#00FFC2" opacity="0.7"/>
<text x="682" y="388" font-family="Inter,sans-serif" font-size="8" font-weight="300" fill="#85B7EB">Celebrate the work publicly</text>

<!-- Badge circle — volunteer tenure metric -->
<circle cx="808" cy="450" r="40" fill="#042C53" opacity="0.9"/>
<circle cx="808" cy="450" r="40" fill="none" stroke="url(#accentV)" stroke-width="2.5"/>
<circle cx="808" cy="450" r="32" fill="none" stroke="rgba(46,91,255,0.18)" stroke-width="1"/>
<text x="808" y="443" text-anchor="middle" font-family="Inter,sans-serif" font-size="8" font-weight="400" fill="#85B7EB" letter-spacing="1">RETENTION</text>
<text x="808" y="460" text-anchor="middle" font-family="Inter,sans-serif" font-size="16" font-weight="700" fill="white">+3 yrs</text>
<text x="808" y="473" text-anchor="middle" font-family="Inter,sans-serif" font-size="7" font-weight="300" fill="#00FFC2" letter-spacing="1">WITH SUPPORT</text>

<!-- Stat cards -->
<rect x="660" y="430" width="132" height="56" rx="5" fill="#0C447C" fill-opacity="0.4" stroke="#2E5BFF" stroke-width="0.8" stroke-opacity="0.35"/>
<rect x="660" y="430" width="3" height="56" fill="#2E5BFF"/>
<text x="678" y="452" font-family="Inter,sans-serif" font-size="18" font-weight="600" fill="#E6F1FB">5–10h</text>
<text x="678" y="467" font-family="Inter,sans-serif" font-size="9" font-weight="300" fill="#85B7EB">per month volunteer</text>
<text x="678" y="479" font-family="Inter,sans-serif" font-size="9" font-weight="300" fill="#64748B">time commitment</text>

<rect x="860" y="430" width="140" height="56" rx="5" fill="#0C447C" fill-opacity="0.4" stroke="#00FFC2" stroke-width="0.8" stroke-opacity="0.4"/>
<rect x="860" y="430" width="3" height="56" fill="#00FFC2"/>
<text x="878" y="452" font-family="Inter,sans-serif" font-size="18" font-weight="600" fill="#E6F1FB">5h saved</text>
<text x="878" y="467" font-family="Inter,sans-serif" font-size="9" font-weight="300" fill="#85B7EB">per meeting cycle with</text>
<text x="878" y="479" font-family="Inter,sans-serif" font-size="9" font-weight="300" fill="#64748B">templated agendas</text>

<!-- Left accent bar -->
<rect x="0" y="0" width="6" height="630" fill="url(#accentV)"/>

<!-- Eyebrow -->
<text x="72" y="58" font-family="Inter,sans-serif" font-size="13" font-weight="400" fill="rgba(133,183,235,0.75)" letter-spacing="2.5">THE STRATA EDIT  ·  THE HUMAN SIDE</text>
<rect x="72" y="70" width="280" height="1" fill="url(#accentH)" opacity="0.5"/>

<!-- Headline — left column, clear of illustration (illustration starts x=656) -->
<text font-family="Inter,sans-serif" fill="#E6F1FB">
  <tspan x="72" y="148" font-size="54" font-weight="300" letter-spacing="-1">Committee</tspan>
  <tspan x="72" dy="64" font-size="54" font-weight="300" letter-spacing="-1">Burnout</tspan>
  <tspan x="72" dy="64" font-size="54" font-weight="700" letter-spacing="-1" fill="#00FFC2">Is Real.</tspan>
</text>
<circle cx="284" cy="274" r="6" fill="#2E5BFF"/>

<!-- Divider -->
<rect x="72" y="295" width="300" height="1.5" fill="url(#accentH)" opacity="0.7"/>

<!-- Subhead -->
<text x="72" y="322" font-family="Inter,sans-serif" font-size="15" font-weight="300" fill="rgba(181,212,244,0.85)">How managers can support</text>
<text x="72" y="341" font-family="Inter,sans-serif" font-size="15" font-weight="300" fill="rgba(181,212,244,0.85)">volunteer committees &#x2014; not replace them.</text>

<!-- Pills -->
<rect x="72" y="365" width="185" height="28" rx="14" fill="rgba(46,91,255,0.18)" stroke="rgba(46,91,255,0.6)" stroke-width="1"/>
<text x="164" y="384" text-anchor="middle" font-family="Inter,sans-serif" font-size="11" font-weight="600" fill="#85B7EB">Structural burnout drivers</text>
<rect x="267" y="365" width="185" height="28" rx="14" fill="rgba(0,255,194,0.1)" stroke="rgba(0,255,194,0.5)" stroke-width="1"/>
<text x="359" y="384" text-anchor="middle" font-family="Inter,sans-serif" font-size="11" font-weight="600" fill="#00FFC2">Reduce burden not authority</text>
<rect x="72" y="403" width="195" height="28" rx="14" fill="rgba(46,91,255,0.15)" stroke="rgba(46,91,255,0.5)" stroke-width="1"/>
<text x="169" y="422" text-anchor="middle" font-family="Inter,sans-serif" font-size="11" font-weight="600" fill="#85B7EB">Make volunteering sustainable</text>

<!-- Slim timeline -->
<line x1="0" y1="516" x2="1200" y2="516" stroke="#0C447C" stroke-width="1" opacity="0.6"/>
<rect x="72" y="530" width="1076" height="3" rx="1.5" fill="#0C447C" opacity="0.8"/>
<rect x="72" y="530" width="1076" height="3" rx="1.5" fill="url(#timelineG)" opacity="0.65"/>
<circle cx="72" cy="531" r="6" fill="#00FFC2"/>
<text x="84" y="527" font-family="Inter,sans-serif" font-size="9" font-weight="600" fill="#B5D4F4">Volunteer joins</text>
<text x="84" y="542" font-family="Inter,sans-serif" font-size="9" font-weight="300" fill="#64748B">Motivated, unaware of burden</text>
<circle cx="340" cy="531" r="6" fill="#2E5BFF"/>
<text x="352" y="527" font-family="Inter,sans-serif" font-size="9" font-weight="600" fill="#B5D4F4">Burden grows</text>
<text x="352" y="542" font-family="Inter,sans-serif" font-size="9" font-weight="300" fill="#64748B">Emails, decisions, liability pressure</text>
<circle cx="680" cy="531" r="8" fill="url(#accentV)"/>
<text x="694" y="527" font-family="Inter,sans-serif" font-size="9" font-weight="700" fill="#2E5BFF">Intervention point &#x2014; manager steps in</text>
<text x="694" y="542" font-family="Inter,sans-serif" font-size="9" font-weight="300" fill="#64748B">Templates · frameworks · role clarity · training</text>
<circle cx="1010" cy="531" r="6" fill="#00FFC2"/>
<text x="1000" y="527" text-anchor="end" font-family="Inter,sans-serif" font-size="9" font-weight="600" fill="#B5D4F4">Committee stays</text>
<text x="1000" y="542" text-anchor="end" font-family="Inter,sans-serif" font-size="9" font-weight="300" fill="#64748B">Recruits others · sustainable governance</text>
</g>
</svg>
