<svg width="1200" height="630" viewBox="0 0 1200 630" xmlns="http://www.w3.org/2000/svg">
<defs>
  <linearGradient id="sky" x1="0" y1="0" x2="0" y2="1"><stop offset="0%" stop-color="#020d1f"/><stop offset="40%" stop-color="#042C53"/><stop offset="75%" stop-color="#0C447C"/><stop offset="100%" stop-color="#185FA5"/></linearGradient>
  <linearGradient id="ground" x1="0" y1="0" x2="0" y2="1"><stop offset="0%" stop-color="#021626"/><stop offset="100%" stop-color="#010a14"/></linearGradient>
  <linearGradient id="bldA" x1="0" y1="0" x2="0" y2="1"><stop offset="0%" stop-color="#0C447C"/><stop offset="100%" stop-color="#020d1f"/></linearGradient>
  <linearGradient id="bldB" x1="0" y1="0" x2="0" y2="1"><stop offset="0%" stop-color="#185FA5"/><stop offset="100%" stop-color="#042C53"/></linearGradient>
  <linearGradient id="bldC" x1="0" y1="0" x2="0" y2="1"><stop offset="0%" stop-color="#052e5c"/><stop offset="100%" stop-color="#020d1f"/></linearGradient>
  <linearGradient id="accentV" x1="0" y1="0" x2="0" y2="1"><stop offset="0%" stop-color="#2E5BFF"/><stop offset="100%" stop-color="#00FFC2"/></linearGradient>
  <linearGradient id="accentH" x1="0" y1="0" x2="1" y2="0"><stop offset="0%" stop-color="#00FFC2"/><stop offset="100%" stop-color="#00FFC2" stop-opacity="0"/></linearGradient>
  <linearGradient id="timelineG" x1="0" y1="0" x2="1" y2="0"><stop offset="0%" stop-color="#2E5BFF"/><stop offset="100%" stop-color="#00FFC2"/></linearGradient>
  <clipPath id="mainClip"><rect width="1200" height="630"/></clipPath>
</defs>
<g clip-path="url(#mainClip)">
<rect width="1200" height="630" fill="url(#sky)"/>
<g stroke="#2E5BFF" stroke-width="0.5" opacity="0.05"><line x1="0" y1="126" x2="1200" y2="126"/><line x1="0" y1="252" x2="1200" y2="252"/><line x1="0" y1="378" x2="1200" y2="378"/><line x1="0" y1="504" x2="1200" y2="504"/><line x1="200" y1="0" x2="200" y2="630"/><line x1="400" y1="0" x2="400" y2="630"/><line x1="600" y1="0" x2="600" y2="630"/><line x1="800" y1="0" x2="800" y2="630"/><line x1="1000" y1="0" x2="1000" y2="630"/></g>
<ellipse cx="600" cy="200" rx="500" ry="300" fill="#2E5BFF" opacity="0.07"/>
<rect x="0" y="580" width="1200" height="50" fill="url(#ground)"/>
<line x1="0" y1="580" x2="1200" y2="580" stroke="#2E5BFF" stroke-width="0.8" opacity="0.3"/>
<rect x="700" y="400" width="28" height="180" fill="#042C53" opacity="0.55"/><rect x="742" y="375" width="36" height="205" fill="#042C53" opacity="0.5"/><rect x="792" y="355" width="42" height="225" fill="#052e5c" opacity="0.55"/>
<rect x="850" y="68" width="165" height="512" fill="url(#bldA)" rx="2"/><rect x="850" y="68" width="165" height="512" fill="none" stroke="#378ADD" stroke-width="0.7" opacity="0.2"/>
<line x1="893" y1="68" x2="893" y2="580" stroke="#378ADD" stroke-width="0.5" opacity="0.18"/><line x1="936" y1="68" x2="936" y2="580" stroke="#378ADD" stroke-width="0.5" opacity="0.18"/><line x1="979" y1="68" x2="979" y2="580" stroke="#378ADD" stroke-width="0.5" opacity="0.18"/>
<g stroke="#378ADD" stroke-width="0.4" opacity="0.12"><line x1="850" y1="106" x2="1015" y2="106"/><line x1="850" y1="144" x2="1015" y2="144"/><line x1="850" y1="182" x2="1015" y2="182"/><line x1="850" y1="220" x2="1015" y2="220"/><line x1="850" y1="258" x2="1015" y2="258"/><line x1="850" y1="296" x2="1015" y2="296"/><line x1="850" y1="334" x2="1015" y2="334"/><line x1="850" y1="372" x2="1015" y2="372"/><line x1="850" y1="410" x2="1015" y2="410"/><line x1="850" y1="448" x2="1015" y2="448"/></g>
<g opacity="0.35"><rect x="856" y="76" width="30" height="24" rx="1" fill="#2E5BFF" opacity="0.2"/><rect x="898" y="76" width="30" height="24" rx="1" fill="#00FFC2" opacity="0.15"/><rect x="941" y="76" width="30" height="24" rx="1" fill="#2E5BFF" opacity="0.18"/><rect x="856" y="114" width="30" height="24" rx="1" fill="#B5D4F4" opacity="0.1"/><rect x="898" y="114" width="30" height="24" rx="1" fill="#2E5BFF" opacity="0.2"/><rect x="941" y="114" width="30" height="24" rx="1" fill="#00FFC2" opacity="0.12"/><rect x="856" y="152" width="30" height="24" rx="1" fill="#2E5BFF" opacity="0.18"/><rect x="898" y="152" width="30" height="24" rx="1" fill="#B5D4F4" opacity="0.12"/><rect x="941" y="152" width="30" height="24" rx="1" fill="#2E5BFF" opacity="0.2"/></g>
<rect x="1030" y="160" width="105" height="420" fill="url(#bldB)" rx="2"/><rect x="1030" y="160" width="105" height="420" fill="none" stroke="#378ADD" stroke-width="0.6" opacity="0.18"/>
<line x1="1063" y1="160" x2="1063" y2="580" stroke="#378ADD" stroke-width="0.4" opacity="0.15"/><line x1="1100" y1="160" x2="1100" y2="580" stroke="#378ADD" stroke-width="0.4" opacity="0.15"/>
<g opacity="0.28"><rect x="1036" y="170" width="20" height="16" rx="1" fill="#2E5BFF" opacity="0.2"/><rect x="1068" y="170" width="20" height="16" rx="1" fill="#00FFC2" opacity="0.15"/><rect x="1036" y="202" width="20" height="16" rx="1" fill="#00FFC2" opacity="0.12"/><rect x="1068" y="202" width="20" height="16" rx="1" fill="#2E5BFF" opacity="0.2"/></g>
<rect x="1148" y="225" width="75" height="355" fill="url(#bldC)" rx="2"/><rect x="1148" y="225" width="75" height="355" fill="none" stroke="#378ADD" stroke-width="0.5" opacity="0.15"/>

<!-- ILLUSTRATION: ESCALATION FUNNEL
     Wide at top (many conflicts), narrowing to tribunal (few reach there)
     5 stages shown as horizontal bands of decreasing width -->

<!-- Stage labels on left side -->
<text x="660" y="112" font-family="Inter,sans-serif" font-size="8" font-weight="600" fill="#85B7EB">1. CONFLICT EMERGES</text>
<text x="660" y="178" font-family="Inter,sans-serif" font-size="8" font-weight="600" fill="#00FFC2">2. EARLY INTERVENTION</text>
<text x="660" y="244" font-family="Inter,sans-serif" font-size="8" font-weight="600" fill="#2E5BFF">3. FORMAL ESCALATION</text>
<text x="660" y="310" font-family="Inter,sans-serif" font-size="8" font-weight="600" fill="#FF9500">4. MEDIATION</text>
<text x="660" y="376" font-family="Inter,sans-serif" font-size="8" font-weight="600" fill="#FF4D4D">5. TRIBUNAL</text>

<!-- Funnel bands — centred around x=800, narrowing downward -->
<!-- Stage 1: full width, muted -->
<rect x="720" y="96" width="180" height="46" rx="4" fill="#064280" fill-opacity="0.4" stroke="#378ADD" stroke-width="0.8" stroke-opacity="0.5"/>
<text x="810" y="124" text-anchor="middle" font-family="Inter,sans-serif" font-size="8" font-weight="300" fill="#64748B">Noise · parking · pets · alterations · by-law breach</text>

<!-- Intercept arrow — all disputes, most stopped here -->
<text x="810" y="150" text-anchor="middle" font-family="Inter,sans-serif" font-size="7" fill="#00FFC2">&#x2193; 80% resolved here</text>

<!-- Stage 2: slightly narrower, mint — this is the key intervention point -->
<rect x="736" y="158" width="148" height="46" rx="4" fill="#00FFC2" fill-opacity="0.1" stroke="#00FFC2" stroke-width="1.2"/>
<text x="810" y="180" text-anchor="middle" font-family="Inter,sans-serif" font-size="8" font-weight="300" fill="#85B7EB">Manager conversation · quiet reminder · clarify rule</text>
<text x="810" y="194" text-anchor="middle" font-family="Inter,sans-serif" font-size="7" font-weight="300" fill="#00FFC2">&#x2190; Stop it here</text>

<!-- Stage 3: narrower, cobalt -->
<rect x="752" y="224" width="116" height="46" rx="4" fill="#2E5BFF" fill-opacity="0.12" stroke="#2E5BFF" stroke-width="1"/>
<text x="810" y="244" text-anchor="middle" font-family="Inter,sans-serif" font-size="8" font-weight="300" fill="#85B7EB">Formal warning letter · committee involvement</text>
<text x="810" y="256" text-anchor="middle" font-family="Inter,sans-serif" font-size="7" font-weight="300" fill="#2E5BFF">Document everything</text>

<!-- Stage 4: narrower, orange -->
<rect x="768" y="290" width="84" height="46" rx="4" fill="#FF9500" fill-opacity="0.1" stroke="#FF9500" stroke-width="1"/>
<text x="810" y="310" text-anchor="middle" font-family="Inter,sans-serif" font-size="8" font-weight="300" fill="#85B7EB">Internal or formal mediation</text>
<text x="810" y="322" text-anchor="middle" font-family="Inter,sans-serif" font-size="7" font-weight="300" fill="#FFB340">Paper trail critical</text>

<!-- Stage 5: narrowest, red — tribunal -->
<rect x="780" y="356" width="60" height="46" rx="4" fill="#FF4D4D" fill-opacity="0.15" stroke="#FF4D4D" stroke-width="1.2"/>
<text x="810" y="374" text-anchor="middle" font-family="Inter,sans-serif" font-size="8" font-weight="300" fill="#FF7A7A">NCAT · VCAT · BCCM</text>
<text x="810" y="386" text-anchor="middle" font-family="Inter,sans-serif" font-size="7" font-weight="300" fill="#64748B">Last resort</text>

<!-- State labels right side -->
<text x="845" y="120" font-family="Inter,sans-serif" font-size="7" font-weight="300" fill="#64748B">NSW · VIC · QLD</text>
<text x="845" y="196" font-family="Inter,sans-serif" font-size="7" font-weight="600" fill="#00FFC2">&#x2190; Best outcome</text>
<text x="845" y="262" font-family="Inter,sans-serif" font-size="7" font-weight="300" fill="#64748B">Record all attempts</text>
<text x="845" y="316" font-family="Inter,sans-serif" font-size="7" font-weight="300" fill="#64748B">Structured process</text>
<text x="845" y="380" font-family="Inter,sans-serif" font-size="7" font-weight="600" fill="#FF7A7A">Expensive · slow</text>

<!-- Badge: 80% resolved without tribunal -->
<circle cx="808" cy="460" r="40" fill="#042C53" opacity="0.9"/>
<circle cx="808" cy="460" r="40" fill="none" stroke="url(#accentV)" stroke-width="2.5"/>
<circle cx="808" cy="460" r="32" fill="none" stroke="rgba(46,91,255,0.18)" stroke-width="1"/>
<text x="808" y="449" text-anchor="middle" font-family="Inter,sans-serif" font-size="7" font-weight="400" fill="#85B7EB" letter-spacing="1">PREVENTED BY</text>
<text x="808" y="465" text-anchor="middle" font-family="Inter,sans-serif" font-size="16" font-weight="700" fill="white">80%</text>
<text x="808" y="479" text-anchor="middle" font-family="Inter,sans-serif" font-size="7" font-weight="300" fill="#00FFC2" letter-spacing="1">EARLY STEP-IN</text>

<!-- Stat cards -->
<rect x="656" y="430" width="136" height="56" rx="5" fill="#0C447C" fill-opacity="0.4" stroke="#2E5BFF" stroke-width="0.8" stroke-opacity="0.35"/>
<rect x="656" y="430" width="3" height="56" fill="#2E5BFF"/>
<text x="674" y="452" font-family="Inter,sans-serif" font-size="18" font-weight="600" fill="#E6F1FB">5 stages</text>
<text x="674" y="467" font-family="Inter,sans-serif" font-size="9" font-weight="300" fill="#85B7EB">most resolved at stage 2</text>
<text x="674" y="479" font-family="Inter,sans-serif" font-size="9" font-weight="300" fill="#64748B">if manager intervenes early</text>

<!-- Left accent bar -->
<rect x="0" y="0" width="6" height="630" fill="url(#accentV)"/>
<text x="72" y="58" font-family="Inter,sans-serif" font-size="13" font-weight="400" fill="rgba(133,183,235,0.75)" letter-spacing="2.5">THE STRATA EDIT  ·  THE HUMAN SIDE</text>
<rect x="72" y="70" width="280" height="1" fill="url(#accentH)" opacity="0.5"/>
<text font-family="Inter,sans-serif" fill="#E6F1FB">
  <tspan x="72" y="148" font-size="52" font-weight="300" letter-spacing="-1">Dispute</tspan>
  <tspan x="72" dy="62" font-size="52" font-weight="300" letter-spacing="-1">Resolution</tspan>
  <tspan x="72" dy="62" font-size="52" font-weight="300" letter-spacing="-1">in Strata.</tspan>
  <tspan x="72" dy="62" font-size="52" font-weight="700" letter-spacing="-1" fill="#00FFC2">Stop it early.</tspan>
</text>
<circle cx="282" cy="332" r="6" fill="#2E5BFF"/>
<rect x="72" y="352" width="300" height="1.5" fill="url(#accentH)" opacity="0.7"/>
<text x="72" y="380" font-family="Inter,sans-serif" font-size="15" font-weight="300" fill="rgba(181,212,244,0.85)">80% of disputes never need tribunal.</text>
<text x="72" y="399" font-family="Inter,sans-serif" font-size="15" font-weight="300" fill="rgba(181,212,244,0.85)">Early intervention is the skill.</text>
<rect x="72" y="422" width="175" height="28" rx="14" fill="rgba(46,91,255,0.18)" stroke="rgba(46,91,255,0.6)" stroke-width="1"/>
<text x="159" y="441" text-anchor="middle" font-family="Inter,sans-serif" font-size="11" font-weight="600" fill="#85B7EB">Intervene at stage 2</text>
<rect x="257" y="422" width="170" height="28" rx="14" fill="rgba(0,255,194,0.1)" stroke="rgba(0,255,194,0.5)" stroke-width="1"/>
<text x="342" y="441" text-anchor="middle" font-family="Inter,sans-serif" font-size="11" font-weight="600" fill="#00FFC2">NCAT · VCAT · BCCM</text>
<rect x="72" y="460" width="188" height="28" rx="14" fill="rgba(46,91,255,0.15)" stroke="rgba(46,91,255,0.5)" stroke-width="1"/>
<text x="166" y="479" text-anchor="middle" font-family="Inter,sans-serif" font-size="11" font-weight="600" fill="#85B7EB">Document everything always</text>
<!-- Slim timeline -->
<line x1="0" y1="516" x2="1200" y2="516" stroke="#0C447C" stroke-width="1" opacity="0.6"/>
<rect x="72" y="530" width="1076" height="3" rx="1.5" fill="#0C447C" opacity="0.8"/>
<rect x="72" y="530" width="1076" height="3" rx="1.5" fill="url(#timelineG)" opacity="0.65"/>
<circle cx="72" cy="531" r="6" fill="#378ADD"/>
<text x="84" y="527" font-family="Inter,sans-serif" font-size="9" font-weight="600" fill="#B5D4F4">Conflict emerges</text>
<text x="84" y="542" font-family="Inter,sans-serif" font-size="9" font-weight="300" fill="#64748B">By-law breach or neighbor dispute</text>
<circle cx="340" cy="531" r="6" fill="#00FFC2"/>
<text x="352" y="527" font-family="Inter,sans-serif" font-size="9" font-weight="600" fill="#B5D4F4">Early intervention</text>
<text x="352" y="542" font-family="Inter,sans-serif" font-size="9" font-weight="300" fill="#64748B">Manager steps in · most resolved here</text>
<circle cx="680" cy="531" r="8" fill="url(#accentV)"/>
<text x="694" y="527" font-family="Inter,sans-serif" font-size="9" font-weight="700" fill="#2E5BFF">Escalation if needed &#x2014; with documentation</text>
<text x="694" y="542" font-family="Inter,sans-serif" font-size="9" font-weight="300" fill="#64748B">Warning letter · mediation · paper trail intact</text>
<circle cx="1010" cy="531" r="6" fill="#FF4D4D" opacity="0.8"/>
<text x="1000" y="527" text-anchor="end" font-family="Inter,sans-serif" font-size="9" font-weight="600" fill="#FF7A7A">Tribunal (last resort)</text>
<text x="1000" y="542" text-anchor="end" font-family="Inter,sans-serif" font-size="9" font-weight="300" fill="#64748B">NCAT · VCAT · BCCM</text>
</g>
</svg>
