<svg width="1200" height="630" viewBox="0 0 1200 630" xmlns="http://www.w3.org/2000/svg">
  <defs>
    <linearGradient id="sky" x1="0" y1="0" x2="0" y2="1">
      <stop offset="0%" stop-color="#E6F1FB"/>
      <stop offset="55%" stop-color="#F0F7FF"/>
      <stop offset="100%" stop-color="#F8FAFC"/>
    </linearGradient>
    <linearGradient id="bldA" x1="0" y1="0" x2="0" y2="1">
      <stop offset="0%" stop-color="#D4E8FA"/>
      <stop offset="100%" stop-color="#85B7EB"/>
    </linearGradient>
    <linearGradient id="bldB" x1="0" y1="0" x2="0" y2="1">
      <stop offset="0%" stop-color="#B5D4F4"/>
      <stop offset="100%" stop-color="#378ADD"/>
    </linearGradient>
    <linearGradient id="bldC" x1="0" y1="0" x2="0" y2="1">
      <stop offset="0%" stop-color="#E6F1FB"/>
      <stop offset="100%" stop-color="#B5D4F4"/>
    </linearGradient>
    <linearGradient id="accentV" x1="0" y1="0" x2="0" y2="1">
      <stop offset="0%" stop-color="#2E5BFF"/>
      <stop offset="100%" stop-color="#00FFC2"/>
    </linearGradient>
    <linearGradient id="accentH" x1="0" y1="0" x2="1" y2="0">
      <stop offset="0%" stop-color="#2E5BFF"/>
      <stop offset="100%" stop-color="#2E5BFF" stop-opacity="0"/>
    </linearGradient>
    <linearGradient id="timelineG" x1="0" y1="0" x2="1" y2="0">
      <stop offset="0%" stop-color="#2E5BFF"/>
      <stop offset="100%" stop-color="#00FFC2"/>
    </linearGradient>
    <linearGradient id="docG" x1="0" y1="0" x2="0" y2="1">
      <stop offset="0%" stop-color="#FFFFFF"/>
      <stop offset="100%" stop-color="#E6F1FB"/>
    </linearGradient>
    <linearGradient id="badgeG" x1="0" y1="0" x2="0" y2="1">
      <stop offset="0%" stop-color="#2E5BFF"/>
      <stop offset="100%" stop-color="#185FA5"/>
    </linearGradient>
    <linearGradient id="ground" x1="0" y1="0" x2="0" y2="1">
      <stop offset="0%" stop-color="#B5D4F4"/>
      <stop offset="100%" stop-color="#85B7EB"/>
    </linearGradient>
    <!-- Before bar — muted slate (hidden commissions era) -->
    <linearGradient id="barBefore" x1="0" y1="0" x2="1" y2="0">
      <stop offset="0%" stop-color="#64748B"/>
      <stop offset="100%" stop-color="#94A3B8"/>
    </linearGradient>
    <!-- After bar — cobalt to mint (transparent new model) -->
    <linearGradient id="barAfter" x1="0" y1="0" x2="1" y2="0">
      <stop offset="0%" stop-color="#2E5BFF"/>
      <stop offset="100%" stop-color="#00FFC2"/>
    </linearGradient>
    <clipPath id="mainClip"><rect width="1200" height="630"/></clipPath>
  </defs>

  <g clip-path="url(#mainClip)">

  <!-- Sky -->
  <rect width="1200" height="630" fill="url(#sky)"/>

  <!-- Grid -->
  <g stroke="#2E5BFF" stroke-width="0.4" opacity="0.05">
    <line x1="0" y1="126" x2="1200" y2="126"/><line x1="0" y1="252" x2="1200" y2="252"/>
    <line x1="0" y1="378" x2="1200" y2="378"/><line x1="0" y1="504" x2="1200" y2="504"/>
    <line x1="200" y1="0" x2="200" y2="630"/><line x1="400" y1="0" x2="400" y2="630"/>
    <line x1="600" y1="0" x2="600" y2="630"/><line x1="800" y1="0" x2="800" y2="630"/>
    <line x1="1000" y1="0" x2="1000" y2="630"/>
  </g>

  <ellipse cx="600" cy="480" rx="600" ry="200" fill="#2E5BFF" opacity="0.03"/>

  <!-- Ground -->
  <rect x="0" y="580" width="1200" height="50" fill="url(#ground)" opacity="0.3"/>
  <line x1="0" y1="580" x2="1200" y2="580" stroke="#185FA5" stroke-width="0.8" opacity="0.18"/>

  <!-- Distant buildings -->
  <rect x="700" y="400" width="28" height="180" fill="#D4E8FA" opacity="0.65"/>
  <rect x="742" y="375" width="36" height="205" fill="#B5D4F4" opacity="0.55"/>
  <rect x="792" y="355" width="42" height="225" fill="#D4E8FA" opacity="0.6"/>

  <!-- Main tall building -->
  <rect x="850" y="68" width="165" height="512" fill="url(#bldA)" rx="3"/>
  <rect x="850" y="68" width="165" height="512" fill="none" stroke="#378ADD" stroke-width="0.9" opacity="0.25"/>
  <line x1="893" y1="68" x2="893" y2="580" stroke="#378ADD" stroke-width="0.5" opacity="0.2"/>
  <line x1="936" y1="68" x2="936" y2="580" stroke="#378ADD" stroke-width="0.5" opacity="0.2"/>
  <line x1="979" y1="68" x2="979" y2="580" stroke="#378ADD" stroke-width="0.5" opacity="0.2"/>
  <g stroke="#378ADD" stroke-width="0.4" opacity="0.15">
    <line x1="850" y1="106" x2="1015" y2="106"/><line x1="850" y1="144" x2="1015" y2="144"/>
    <line x1="850" y1="182" x2="1015" y2="182"/><line x1="850" y1="220" x2="1015" y2="220"/>
    <line x1="850" y1="258" x2="1015" y2="258"/><line x1="850" y1="296" x2="1015" y2="296"/>
    <line x1="850" y1="334" x2="1015" y2="334"/><line x1="850" y1="372" x2="1015" y2="372"/>
    <line x1="850" y1="410" x2="1015" y2="410"/><line x1="850" y1="448" x2="1015" y2="448"/>
    <line x1="850" y1="486" x2="1015" y2="486"/><line x1="850" y1="524" x2="1015" y2="524"/>
    <line x1="850" y1="562" x2="1015" y2="562"/>
  </g>
  <g opacity="0.42">
    <rect x="856" y="76" width="30" height="24" rx="1" fill="#2E5BFF" opacity="0.13"/>
    <rect x="898" y="76" width="30" height="24" rx="1" fill="#2E5BFF" opacity="0.18"/>
    <rect x="941" y="76" width="30" height="24" rx="1" fill="#00FFC2" opacity="0.1"/>
    <rect x="982" y="76" width="25" height="24" rx="1" fill="#2E5BFF" opacity="0.13"/>
    <rect x="856" y="114" width="30" height="24" rx="1" fill="#00FFC2" opacity="0.09"/>
    <rect x="898" y="114" width="30" height="24" rx="1" fill="#2E5BFF" opacity="0.15"/>
    <rect x="941" y="114" width="30" height="24" rx="1" fill="#2E5BFF" opacity="0.1"/>
    <rect x="982" y="114" width="25" height="24" rx="1" fill="#00FFC2" opacity="0.09"/>
    <rect x="856" y="152" width="30" height="24" rx="1" fill="#2E5BFF" opacity="0.15"/>
    <rect x="898" y="152" width="30" height="24" rx="1" fill="#2E5BFF" opacity="0.1"/>
    <rect x="941" y="152" width="30" height="24" rx="1" fill="#00FFC2" opacity="0.1"/>
    <rect x="982" y="152" width="25" height="24" rx="1" fill="#2E5BFF" opacity="0.13"/>
    <rect x="856" y="190" width="30" height="24" rx="1" fill="#2E5BFF" opacity="0.1"/>
    <rect x="898" y="190" width="30" height="24" rx="1" fill="#00FFC2" opacity="0.09"/>
    <rect x="941" y="190" width="30" height="24" rx="1" fill="#2E5BFF" opacity="0.15"/>
    <rect x="982" y="190" width="25" height="24" rx="1" fill="#2E5BFF" opacity="0.1"/>
    <rect x="856" y="228" width="30" height="24" rx="1" fill="#00FFC2" opacity="0.09"/>
    <rect x="898" y="228" width="30" height="24" rx="1" fill="#2E5BFF" opacity="0.18"/>
    <rect x="941" y="228" width="30" height="24" rx="1" fill="#2E5BFF" opacity="0.1"/>
    <rect x="982" y="228" width="25" height="24" rx="1" fill="#00FFC2" opacity="0.09"/>
    <rect x="856" y="266" width="30" height="24" rx="1" fill="#2E5BFF" opacity="0.15"/>
    <rect x="898" y="266" width="30" height="24" rx="1" fill="#00FFC2" opacity="0.09"/>
    <rect x="941" y="266" width="30" height="24" rx="1" fill="#2E5BFF" opacity="0.13"/>
    <rect x="982" y="266" width="25" height="24" rx="1" fill="#2E5BFF" opacity="0.1"/>
    <rect x="856" y="304" width="30" height="24" rx="1" fill="#2E5BFF" opacity="0.1"/>
    <rect x="898" y="304" width="30" height="24" rx="1" fill="#2E5BFF" opacity="0.15"/>
    <rect x="941" y="304" width="30" height="24" rx="1" fill="#00FFC2" opacity="0.09"/>
    <rect x="982" y="304" width="25" height="24" rx="1" fill="#2E5BFF" opacity="0.13"/>
    <rect x="856" y="342" width="30" height="24" rx="1" fill="#00FFC2" opacity="0.09"/>
    <rect x="898" y="342" width="30" height="24" rx="1" fill="#2E5BFF" opacity="0.13"/>
    <rect x="941" y="342" width="30" height="24" rx="1" fill="#2E5BFF" opacity="0.1"/>
    <rect x="982" y="342" width="25" height="24" rx="1" fill="#00FFC2" opacity="0.09"/>
    <rect x="856" y="380" width="30" height="24" rx="1" fill="#2E5BFF" opacity="0.15"/>
    <rect x="898" y="380" width="30" height="24" rx="1" fill="#2E5BFF" opacity="0.1"/>
    <rect x="941" y="380" width="30" height="24" rx="1" fill="#00FFC2" opacity="0.09"/>
    <rect x="982" y="380" width="25" height="24" rx="1" fill="#2E5BFF" opacity="0.13"/>
    <rect x="856" y="418" width="30" height="24" rx="1" fill="#2E5BFF" opacity="0.1"/>
    <rect x="898" y="418" width="30" height="24" rx="1" fill="#00FFC2" opacity="0.09"/>
    <rect x="941" y="418" width="30" height="24" rx="1" fill="#2E5BFF" opacity="0.15"/>
    <rect x="982" y="418" width="25" height="24" rx="1" fill="#2E5BFF" opacity="0.1"/>
    <rect x="856" y="456" width="30" height="24" rx="1" fill="#00FFC2" opacity="0.09"/>
    <rect x="898" y="456" width="30" height="24" rx="1" fill="#2E5BFF" opacity="0.18"/>
    <rect x="941" y="456" width="30" height="24" rx="1" fill="#2E5BFF" opacity="0.1"/>
    <rect x="982" y="456" width="25" height="24" rx="1" fill="#00FFC2" opacity="0.09"/>
    <rect x="856" y="494" width="30" height="24" rx="1" fill="#2E5BFF" opacity="0.13"/>
    <rect x="898" y="494" width="30" height="24" rx="1" fill="#2E5BFF" opacity="0.1"/>
    <rect x="941" y="494" width="30" height="24" rx="1" fill="#00FFC2" opacity="0.09"/>
    <rect x="982" y="494" width="25" height="24" rx="1" fill="#2E5BFF" opacity="0.13"/>
    <rect x="856" y="532" width="30" height="24" rx="1" fill="#00FFC2" opacity="0.09"/>
    <rect x="898" y="532" width="30" height="24" rx="1" fill="#2E5BFF" opacity="0.15"/>
    <rect x="941" y="532" width="30" height="24" rx="1" fill="#2E5BFF" opacity="0.1"/>
    <rect x="982" y="532" width="25" height="24" rx="1" fill="#2E5BFF" opacity="0.09"/>
  </g>

  <!-- Secondary right building -->
  <rect x="1030" y="160" width="105" height="420" fill="url(#bldB)" rx="2"/>
  <rect x="1030" y="160" width="105" height="420" fill="none" stroke="#378ADD" stroke-width="0.7" opacity="0.2"/>
  <line x1="1063" y1="160" x2="1063" y2="580" stroke="#378ADD" stroke-width="0.4" opacity="0.18"/>
  <line x1="1100" y1="160" x2="1100" y2="580" stroke="#378ADD" stroke-width="0.4" opacity="0.18"/>
  <g stroke="#378ADD" stroke-width="0.3" opacity="0.12">
    <line x1="1030" y1="196" x2="1135" y2="196"/><line x1="1030" y1="232" x2="1135" y2="232"/>
    <line x1="1030" y1="268" x2="1135" y2="268"/><line x1="1030" y1="304" x2="1135" y2="304"/>
    <line x1="1030" y1="340" x2="1135" y2="340"/><line x1="1030" y1="376" x2="1135" y2="376"/>
    <line x1="1030" y1="412" x2="1135" y2="412"/><line x1="1030" y1="448" x2="1135" y2="448"/>
  </g>
  <g opacity="0.35">
    <rect x="1036" y="170" width="20" height="16" rx="1" fill="#2E5BFF" opacity="0.15"/>
    <rect x="1068" y="170" width="20" height="16" rx="1" fill="#00FFC2" opacity="0.12"/>
    <rect x="1106" y="170" width="20" height="16" rx="1" fill="#2E5BFF" opacity="0.15"/>
    <rect x="1036" y="202" width="20" height="16" rx="1" fill="#00FFC2" opacity="0.1"/>
    <rect x="1068" y="202" width="20" height="16" rx="1" fill="#2E5BFF" opacity="0.18"/>
    <rect x="1106" y="202" width="20" height="16" rx="1" fill="#2E5BFF" opacity="0.12"/>
    <rect x="1036" y="234" width="20" height="16" rx="1" fill="#2E5BFF" opacity="0.15"/>
    <rect x="1068" y="234" width="20" height="16" rx="1" fill="#2E5BFF" opacity="0.1"/>
    <rect x="1106" y="234" width="20" height="16" rx="1" fill="#00FFC2" opacity="0.1"/>
    <rect x="1036" y="266" width="20" height="16" rx="1" fill="#00FFC2" opacity="0.09"/>
    <rect x="1068" y="266" width="20" height="16" rx="1" fill="#2E5BFF" opacity="0.15"/>
    <rect x="1106" y="266" width="20" height="16" rx="1" fill="#2E5BFF" opacity="0.12"/>
  </g>

  <!-- Far right building -->
  <rect x="1148" y="225" width="75" height="355" fill="url(#bldC)" rx="2"/>
  <rect x="1148" y="225" width="75" height="355" fill="none" stroke="#378ADD" stroke-width="0.5" opacity="0.18"/>

  <!-- ═══════════════════════════════════════════════
       ILLUSTRATION: REVENUE MODEL PANEL
       Before vs After — stacked revenue bar chart
  ═══════════════════════════════════════════════ -->

  <!-- Panel card -->
  <rect x="652" y="100" width="186" height="295" rx="7" fill="url(#docG)" opacity="0.97"/>
  <rect x="652" y="100" width="186" height="295" rx="7" fill="none" stroke="#2E5BFF" stroke-width="1.2" opacity="0.35"/>
  <!-- Header -->
  <rect x="652" y="100" width="186" height="30" rx="7" fill="#0C447C"/>
  <rect x="652" y="117" width="186" height="13" fill="#0C447C"/>
  <text x="745" y="119" text-anchor="middle" font-family="Inter,sans-serif" font-size="9" font-weight="600" fill="#85B7EB" letter-spacing="1.5">REVENUE MODEL</text>

  <!-- ── BEFORE column ── -->
  <text x="694" y="152" text-anchor="middle" font-family="Inter,sans-serif" font-size="8" font-weight="600" fill="#64748B" letter-spacing="0.8">BEFORE</text>
  <!-- Stacked bar: total height 130px -->
  <!-- Commission slice: 25% = 32px, slate/muted -->
  <rect x="668" y="158" width="52" height="32" rx="2" fill="#94A3B8" opacity="0.55"/>
  <text x="694" y="179" text-anchor="middle" font-family="Inter,sans-serif" font-size="7" font-weight="600" fill="#475569">COMMISSION</text>
  <!-- Management fee slice: 75% = 98px, blue -->
  <rect x="668" y="190" width="52" height="98" rx="2" fill="#B5D4F4" opacity="0.7"/>
  <text x="694" y="244" text-anchor="middle" font-family="Inter,sans-serif" font-size="7" font-weight="300" fill="#185FA5">MGMT</text>
  <text x="694" y="254" text-anchor="middle" font-family="Inter,sans-serif" font-size="7" font-weight="300" fill="#185FA5">FEE</text>
  <!-- Hidden label -->
  <rect x="668" y="292" width="52" height="16" rx="3" fill="rgba(100,116,139,0.15)" stroke="#64748B" stroke-width="0.6"/>
  <text x="694" y="304" text-anchor="middle" font-family="Inter,sans-serif" font-size="7" font-weight="400" fill="#64748B">HIDDEN</text>

  <!-- ── Divider arrow → ── -->
  <line x1="730" y1="225" x2="756" y2="225" stroke="#2E5BFF" stroke-width="1.2" opacity="0.5"/>
  <polyline points="752,220 758,225 752,230" stroke="#2E5BFF" stroke-width="1.2" fill="none" opacity="0.5"/>
  <text x="744" y="218" text-anchor="middle" font-family="Inter,sans-serif" font-size="7" font-weight="400" fill="#64748B">Jan 1</text>
  <text x="744" y="210" text-anchor="middle" font-family="Inter,sans-serif" font-size="7" font-weight="400" fill="#64748B">2026</text>

  <!-- ── AFTER column ── -->
  <text x="800" y="152" text-anchor="middle" font-family="Inter,sans-serif" font-size="8" font-weight="600" fill="#121C2D" letter-spacing="0.8">AFTER</text>
  <!-- Base fee slice: 60% = 78px, cobalt -->
  <rect x="774" y="158" width="52" height="78" rx="2" fill="#2E5BFF" opacity="0.25"/>
  <rect x="774" y="158" width="52" height="78" rx="2" fill="none" stroke="#2E5BFF" stroke-width="0.8" opacity="0.5"/>
  <text x="800" y="196" text-anchor="middle" font-family="Inter,sans-serif" font-size="7" font-weight="600" fill="#2E5BFF">BASE</text>
  <text x="800" y="206" text-anchor="middle" font-family="Inter,sans-serif" font-size="7" font-weight="300" fill="#2E5BFF">FEE</text>
  <!-- Optional services slice: 25% = 32px, mint -->
  <rect x="774" y="240" width="52" height="32" rx="2" fill="#00FFC2" opacity="0.2"/>
  <rect x="774" y="240" width="52" height="32" rx="2" fill="none" stroke="#00FFC2" stroke-width="0.8" opacity="0.5"/>
  <text x="800" y="260" text-anchor="middle" font-family="Inter,sans-serif" font-size="7" font-weight="600" fill="#0F6E56">OPT+</text>
  <!-- Value services slice: 15% = 18px, gradient -->
  <rect x="774" y="276" width="52" height="18" rx="2" fill="url(#barAfter)" opacity="0.3"/>
  <text x="800" y="289" text-anchor="middle" font-family="Inter,sans-serif" font-size="6" font-weight="400" fill="#185FA5">VALUE</text>
  <!-- Transparent label -->
  <rect x="774" y="298" width="52" height="16" rx="3" fill="rgba(0,255,194,0.1)" stroke="#00FFC2" stroke-width="0.6"/>
  <text x="800" y="310" text-anchor="middle" font-family="Inter,sans-serif" font-size="7" font-weight="600" fill="#0F6E56">TRANSPARENT</text>

  <!-- Action badge -->
  <rect x="652" y="403" width="186" height="30" rx="6" fill="url(#badgeG)"/>
  <text x="745" y="423" text-anchor="middle" font-family="Inter,sans-serif" font-size="10" font-weight="600" fill="white" letter-spacing="1">FEE-FOR-SERVICE</text>

  <!-- ═══════════════════════════════════════════════
       TRANSITION BADGE — replaces QS circle
       Shows 15-30% revenue gap as a ring chart
  ═══════════════════════════════════════════════ -->
  <circle cx="615" cy="285" r="48" fill="#042C53" opacity="0.88"/>
  <circle cx="615" cy="285" r="48" fill="none" stroke="url(#accentV)" stroke-width="2.5"/>
  <circle cx="615" cy="285" r="40" fill="none" stroke="rgba(46,91,255,0.18)" stroke-width="1"/>
  <!-- Donut ring: 25% commission = ~90deg arc shown as gap -->
  <!-- Full ring background -->
  <circle cx="615" cy="285" r="28" fill="none" stroke="#B5D4F4" stroke-width="8" opacity="0.2"/>
  <!-- Commission portion arc (~25% = 90deg, starts top, goes clockwise) -->
  <!-- stroke-dasharray: 25% of circumference = 0.25 * 2π * 28 ≈ 44, total = 176 -->
  <circle cx="615" cy="285" r="28" fill="none" stroke="#64748B" stroke-width="8" opacity="0.5"
    stroke-dasharray="44 132" stroke-dashoffset="0" transform="rotate(-90 615 285)"/>
  <!-- Remaining 75% arc -->
  <circle cx="615" cy="285" r="28" fill="none" stroke="#2E5BFF" stroke-width="8" opacity="0.7"
    stroke-dasharray="132 44" stroke-dashoffset="-44" transform="rotate(-90 615 285)"/>
  <text x="615" y="281" text-anchor="middle" font-family="Inter,sans-serif" font-size="13" font-weight="700" fill="white">25%</text>
  <text x="615" y="294" text-anchor="middle" font-family="Inter,sans-serif" font-size="6" font-weight="300" fill="#85B7EB">REVENUE</text>
  <text x="615" y="303" text-anchor="middle" font-family="Inter,sans-serif" font-size="6" font-weight="300" fill="#85B7EB">AT RISK</text>
  <text x="615" y="320" text-anchor="middle" font-family="Inter,sans-serif" font-size="7" font-weight="300" fill="#00FFC2" letter-spacing="1">COMMISSION LOST</text>

  <!-- ═══════════════════════════════════════════════
       STAT CARDS — bottom right
  ═══════════════════════════════════════════════ -->
  <rect x="840" y="420" width="160" height="62" rx="5" fill="white" fill-opacity="0.85" stroke="#2E5BFF" stroke-width="0.8" stroke-opacity="0.3"/>
  <rect x="840" y="420" width="3" height="62" fill="#2E5BFF"/>
  <text x="858" y="445" font-family="Inter,sans-serif" font-size="22" font-weight="600" fill="#121C2D">15&#x2013;30%</text>
  <text x="858" y="461" font-family="Inter,sans-serif" font-size="10" font-weight="300" fill="#64748B">of agency revenue</text>
  <text x="858" y="474" font-family="Inter,sans-serif" font-size="10" font-weight="300" fill="#64748B">was commission</text>

  <rect x="1012" y="420" width="152" height="62" rx="5" fill="white" fill-opacity="0.85" stroke="#00FFC2" stroke-width="0.8" stroke-opacity="0.5"/>
  <rect x="1012" y="420" width="3" height="62" fill="#00FFC2"/>
  <text x="1030" y="445" font-family="Inter,sans-serif" font-size="22" font-weight="600" fill="#121C2D">6&#x2013;12<tspan font-size="14" font-weight="300" fill="#64748B"> mo</tspan></text>
  <text x="1030" y="461" font-family="Inter,sans-serif" font-size="10" font-weight="300" fill="#64748B">transition window</text>
  <text x="1030" y="474" font-family="Inter,sans-serif" font-size="10" font-weight="300" fill="#64748B">before clients shop</text>

  <!-- Left accent bar -->
  <rect x="0" y="0" width="6" height="630" fill="url(#accentV)"/>

  <!-- Eyebrow -->
  <text x="72" y="58" font-family="Inter,sans-serif" font-size="13" font-weight="400" fill="#64748B" letter-spacing="2.5">THE STRATA EDIT  &#xB7;  BUSINESS GROWTH &amp; PROFITABILITY</text>
  <rect x="72" y="70" width="280" height="1" fill="url(#accentH)" opacity="0.4"/>

  <!-- Headline -->
  <text font-family="Inter,sans-serif" fill="#121C2D">
    <tspan x="72" y="148" font-size="58" font-weight="300" letter-spacing="-1">Life After</tspan>
    <tspan x="72" dy="68" font-size="58" font-weight="300" letter-spacing="-1">Commissions.</tspan>
    <tspan x="72" dy="68" font-size="58" font-weight="700" letter-spacing="-1" fill="#2E5BFF">Rebuild your</tspan>
    <tspan x="72" dy="68" font-size="58" font-weight="700" letter-spacing="-1" fill="#2E5BFF">revenue model.</tspan>
  </text>
  <circle cx="356" cy="282" r="7" fill="#00FFC2"/>

  <!-- Divider -->
  <rect x="72" y="360" width="300" height="1.5" fill="url(#accentH)" opacity="0.6"/>

  <!-- Subhead -->
  <text x="72" y="388" font-family="Inter,sans-serif" font-size="16" font-weight="300" fill="#334155" letter-spacing="0.2">How NSW agencies are transitioning</text>
  <text x="72" y="408" font-family="Inter,sans-serif" font-size="16" font-weight="300" fill="#334155" letter-spacing="0.2">to fee-for-service and surviving.</text>

  <!-- Stat pills -->
  <rect x="72" y="432" width="175" height="30" rx="15" fill="rgba(46,91,255,0.07)" stroke="rgba(46,91,255,0.35)" stroke-width="1"/>
  <text x="159" y="452" text-anchor="middle" font-family="Inter,sans-serif" font-size="12" font-weight="600" fill="#2E5BFF">Jan 1, 2026 ban</text>
  <rect x="257" y="432" width="175" height="30" rx="15" fill="rgba(0,255,194,0.07)" stroke="rgba(15,110,86,0.35)" stroke-width="1"/>
  <text x="344" y="452" text-anchor="middle" font-family="Inter,sans-serif" font-size="12" font-weight="600" fill="#0F6E56">Unbundle &#x26; diversify</text>
  <rect x="72" y="474" width="178" height="30" rx="15" fill="rgba(46,91,255,0.06)" stroke="rgba(46,91,255,0.28)" stroke-width="1"/>
  <text x="161" y="494" text-anchor="middle" font-family="Inter,sans-serif" font-size="12" font-weight="600" fill="#185FA5">Value-based pricing</text>

  <!-- Slim timeline bar -->
  <line x1="0" y1="515" x2="1200" y2="515" stroke="#D4E8FA" stroke-width="1" opacity="0.8"/>
  <rect x="72" y="529" width="1076" height="3" rx="1.5" fill="#D4E8FA"/>
  <rect x="72" y="529" width="1076" height="3" rx="1.5" fill="url(#timelineG)" opacity="0.75"/>

  <!-- Jan 1 -->
  <circle cx="72" cy="530" r="6" fill="#2E5BFF"/>
  <text x="84" y="526" font-family="Inter,sans-serif" font-size="9" font-weight="600" fill="#121C2D">Jan 1, 2026</text>
  <text x="84" y="541" font-family="Inter,sans-serif" font-size="9" font-weight="300" fill="#64748B">Commission ban live</text>

  <!-- Phase 1: Communicate -->
  <circle cx="330" cy="530" r="6" fill="#185FA5"/>
  <text x="342" y="526" font-family="Inter,sans-serif" font-size="9" font-weight="600" fill="#121C2D">Months 1&#x2013;2</text>
  <text x="342" y="541" font-family="Inter,sans-serif" font-size="9" font-weight="300" fill="#64748B">Communicate changes</text>

  <!-- Phase 2: Implement -->
  <circle cx="660" cy="530" r="8" fill="url(#accentV)"/>
  <text x="674" y="526" font-family="Inter,sans-serif" font-size="9" font-weight="700" fill="#2E5BFF">Months 2&#x2013;6 &#x2014; Implement</text>
  <text x="674" y="541" font-family="Inter,sans-serif" font-size="9" font-weight="300" fill="#64748B">Roll out fee structure in waves</text>

  <!-- Stable -->
  <circle cx="1010" cy="530" r="6" fill="#00FFC2"/>
  <text x="1000" y="526" text-anchor="end" font-family="Inter,sans-serif" font-size="9" font-weight="600" fill="#121C2D">Month 12</text>
  <text x="1000" y="541" text-anchor="end" font-family="Inter,sans-serif" font-size="9" font-weight="300" fill="#64748B">New model stable</text>

  </g>
</svg>
