<svg width="1200" height="630" viewBox="0 0 1200 630" xmlns="http://www.w3.org/2000/svg">
<defs>
  <linearGradient id="sky" x1="0" y1="0" x2="0" y2="1"><stop offset="0%" stop-color="#E6F1FB"/><stop offset="55%" stop-color="#F0F7FF"/><stop offset="100%" stop-color="#F8FAFC"/></linearGradient>
  <linearGradient id="bldA" x1="0" y1="0" x2="0" y2="1"><stop offset="0%" stop-color="#D4E8FA"/><stop offset="100%" stop-color="#85B7EB"/></linearGradient>
  <linearGradient id="bldB" x1="0" y1="0" x2="0" y2="1"><stop offset="0%" stop-color="#B5D4F4"/><stop offset="100%" stop-color="#378ADD"/></linearGradient>
  <linearGradient id="bldC" x1="0" y1="0" x2="0" y2="1"><stop offset="0%" stop-color="#E6F1FB"/><stop offset="100%" stop-color="#B5D4F4"/></linearGradient>
  <linearGradient id="accentV" x1="0" y1="0" x2="0" y2="1"><stop offset="0%" stop-color="#2E5BFF"/><stop offset="100%" stop-color="#00FFC2"/></linearGradient>
  <linearGradient id="accentH" x1="0" y1="0" x2="1" y2="0"><stop offset="0%" stop-color="#2E5BFF"/><stop offset="100%" stop-color="#2E5BFF" stop-opacity="0"/></linearGradient>
  <linearGradient id="docG" x1="0" y1="0" x2="0" y2="1"><stop offset="0%" stop-color="#FFFFFF"/><stop offset="100%" stop-color="#E6F1FB"/></linearGradient>
  <linearGradient id="badgeG" x1="0" y1="0" x2="0" y2="1"><stop offset="0%" stop-color="#2E5BFF"/><stop offset="100%" stop-color="#185FA5"/></linearGradient>
  <linearGradient id="ground" x1="0" y1="0" x2="0" y2="1"><stop offset="0%" stop-color="#B5D4F4"/><stop offset="100%" stop-color="#85B7EB"/></linearGradient>
  <clipPath id="mainClip"><rect width="1200" height="630"/></clipPath>
</defs>
<g clip-path="url(#mainClip)">
<rect width="1200" height="630" fill="url(#sky)"/>
<g stroke="#2E5BFF" stroke-width="0.4" opacity="0.05"><line x1="0" y1="126" x2="1200" y2="126"/><line x1="0" y1="252" x2="1200" y2="252"/><line x1="0" y1="378" x2="1200" y2="378"/><line x1="0" y1="504" x2="1200" y2="504"/><line x1="200" y1="0" x2="200" y2="630"/><line x1="400" y1="0" x2="400" y2="630"/><line x1="600" y1="0" x2="600" y2="630"/><line x1="800" y1="0" x2="800" y2="630"/><line x1="1000" y1="0" x2="1000" y2="630"/></g>
<ellipse cx="600" cy="480" rx="600" ry="200" fill="#2E5BFF" opacity="0.03"/>
<rect x="0" y="580" width="1200" height="50" fill="url(#ground)" opacity="0.3"/>
<line x1="0" y1="580" x2="1200" y2="580" stroke="#185FA5" stroke-width="0.8" opacity="0.18"/>
<rect x="700" y="400" width="28" height="180" fill="#D4E8FA" opacity="0.65"/><rect x="742" y="375" width="36" height="205" fill="#B5D4F4" opacity="0.55"/><rect x="792" y="355" width="42" height="225" fill="#D4E8FA" opacity="0.6"/>
<rect x="850" y="68" width="165" height="512" fill="url(#bldA)" rx="3"/><rect x="850" y="68" width="165" height="512" fill="none" stroke="#378ADD" stroke-width="0.9" opacity="0.25"/>
<line x1="893" y1="68" x2="893" y2="580" stroke="#378ADD" stroke-width="0.5" opacity="0.2"/><line x1="936" y1="68" x2="936" y2="580" stroke="#378ADD" stroke-width="0.5" opacity="0.2"/><line x1="979" y1="68" x2="979" y2="580" stroke="#378ADD" stroke-width="0.5" opacity="0.2"/>
<g stroke="#378ADD" stroke-width="0.4" opacity="0.15"><line x1="850" y1="106" x2="1015" y2="106"/><line x1="850" y1="144" x2="1015" y2="144"/><line x1="850" y1="182" x2="1015" y2="182"/><line x1="850" y1="220" x2="1015" y2="220"/><line x1="850" y1="258" x2="1015" y2="258"/><line x1="850" y1="296" x2="1015" y2="296"/><line x1="850" y1="334" x2="1015" y2="334"/><line x1="850" y1="372" x2="1015" y2="372"/><line x1="850" y1="410" x2="1015" y2="410"/><line x1="850" y1="448" x2="1015" y2="448"/></g>
<g opacity="0.42"><rect x="856" y="76" width="30" height="24" rx="1" fill="#2E5BFF" opacity="0.13"/><rect x="898" y="76" width="30" height="24" rx="1" fill="#2E5BFF" opacity="0.18"/><rect x="941" y="76" width="30" height="24" rx="1" fill="#00FFC2" opacity="0.1"/><rect x="856" y="114" width="30" height="24" rx="1" fill="#00FFC2" opacity="0.09"/><rect x="898" y="114" width="30" height="24" rx="1" fill="#2E5BFF" opacity="0.15"/><rect x="941" y="114" width="30" height="24" rx="1" fill="#2E5BFF" opacity="0.1"/><rect x="856" y="152" width="30" height="24" rx="1" fill="#2E5BFF" opacity="0.15"/><rect x="898" y="152" width="30" height="24" rx="1" fill="#2E5BFF" opacity="0.1"/><rect x="941" y="152" width="30" height="24" rx="1" fill="#00FFC2" opacity="0.1"/><rect x="856" y="190" width="30" height="24" rx="1" fill="#2E5BFF" opacity="0.1"/><rect x="898" y="190" width="30" height="24" rx="1" fill="#00FFC2" opacity="0.09"/><rect x="941" y="190" width="30" height="24" rx="1" fill="#2E5BFF" opacity="0.15"/><rect x="856" y="228" width="30" height="24" rx="1" fill="#00FFC2" opacity="0.09"/><rect x="898" y="228" width="30" height="24" rx="1" fill="#2E5BFF" opacity="0.18"/><rect x="941" y="228" width="30" height="24" rx="1" fill="#2E5BFF" opacity="0.1"/></g>
<rect x="1030" y="160" width="105" height="420" fill="url(#bldB)" rx="2"/><rect x="1030" y="160" width="105" height="420" fill="none" stroke="#378ADD" stroke-width="0.7" opacity="0.2"/>
<line x1="1063" y1="160" x2="1063" y2="580" stroke="#378ADD" stroke-width="0.4" opacity="0.18"/><line x1="1100" y1="160" x2="1100" y2="580" stroke="#378ADD" stroke-width="0.4" opacity="0.18"/>
<g opacity="0.35"><rect x="1036" y="170" width="20" height="16" rx="1" fill="#2E5BFF" opacity="0.15"/><rect x="1068" y="170" width="20" height="16" rx="1" fill="#00FFC2" opacity="0.12"/><rect x="1106" y="170" width="20" height="16" rx="1" fill="#2E5BFF" opacity="0.15"/></g>
<rect x="1148" y="225" width="75" height="355" fill="url(#bldC)" rx="2"/><rect x="1148" y="225" width="75" height="355" fill="none" stroke="#378ADD" stroke-width="0.5" opacity="0.18"/>

<!-- ILLUSTRATION: 4-PHASE ROADMAP — horizontal phases with icons -->
<!-- Panel card -->
<rect x="652" y="95" width="190" height="318" rx="7" fill="url(#docG)" opacity="0.97"/>
<rect x="652" y="95" width="190" height="318" rx="7" fill="none" stroke="#2E5BFF" stroke-width="1.2" opacity="0.35"/>
<rect x="652" y="95" width="190" height="30" rx="7" fill="#0C447C"/>
<rect x="652" y="112" width="190" height="13" fill="#0C447C"/>
<text x="747" y="114" text-anchor="middle" font-family="Inter,sans-serif" font-size="9" font-weight="600" fill="#85B7EB" letter-spacing="1.5">12-MONTH ROADMAP</text>

<!-- Progress bar showing 4 phases -->
<rect x="664" y="134" width="166" height="4" rx="2" fill="#E2E8F0"/>
<rect x="664" y="134" width="42" height="4" rx="2" fill="#2E5BFF" opacity="0.5"/>
<rect x="706" y="134" width="41" height="4" rx="2" fill="#2E5BFF" opacity="0.65"/>
<rect x="747" y="134" width="42" height="4" rx="2" fill="#2E5BFF" opacity="0.8"/>
<rect x="789" y="134" width="41" height="4" rx="2" fill="#00FFC2" opacity="0.8"/>

<!-- Phase 1 -->
<rect x="662" y="147" width="166" height="56" rx="4" fill="rgba(46,91,255,0.06)" stroke="#2E5BFF" stroke-width="0.7" stroke-opacity="0.3"/>
<circle cx="678" cy="168" r="10" fill="#2E5BFF" opacity="0.15"/>
<text x="678" y="172" text-anchor="middle" font-family="Inter,sans-serif" font-size="9" font-weight="700" fill="#2E5BFF">1</text>
<text x="695" y="161" font-family="Inter,sans-serif" font-size="8" font-weight="600" fill="#121C2D">Document Scanning</text>
<text x="695" y="173" font-family="Inter,sans-serif" font-size="7" font-weight="300" fill="#64748B">Pilot building · OCR · naming</text>
<text x="695" y="183" font-family="Inter,sans-serif" font-size="7" font-weight="300" fill="#64748B">conventions · retention audit</text>
<text x="820" y="161" text-anchor="end" font-family="Inter,sans-serif" font-size="7" font-weight="400" fill="#64748B">Mo 1–3</text>

<!-- Phase 2 -->
<rect x="662" y="211" width="166" height="56" rx="4" fill="rgba(46,91,255,0.06)" stroke="#2E5BFF" stroke-width="0.7" stroke-opacity="0.3"/>
<circle cx="678" cy="232" r="10" fill="#2E5BFF" opacity="0.2"/>
<text x="678" y="236" text-anchor="middle" font-family="Inter,sans-serif" font-size="9" font-weight="700" fill="#2E5BFF">2</text>
<text x="695" y="225" font-family="Inter,sans-serif" font-size="8" font-weight="600" fill="#121C2D">Cloud + Digital Signatures</text>
<text x="695" y="237" font-family="Inter,sans-serif" font-size="7" font-weight="300" fill="#64748B">OneDrive / Drive · DocuSign</text>
<text x="695" y="247" font-family="Inter,sans-serif" font-size="7" font-weight="300" fill="#64748B">email-to-file automation</text>
<text x="820" y="225" text-anchor="end" font-family="Inter,sans-serif" font-size="7" font-weight="400" fill="#64748B">Mo 2–5</text>

<!-- Phase 3 -->
<rect x="662" y="275" width="166" height="56" rx="4" fill="rgba(46,91,255,0.07)" stroke="#2E5BFF" stroke-width="0.7" stroke-opacity="0.3"/>
<circle cx="678" cy="296" r="10" fill="#2E5BFF" opacity="0.25"/>
<text x="678" y="300" text-anchor="middle" font-family="Inter,sans-serif" font-size="9" font-weight="700" fill="#2E5BFF">3</text>
<text x="695" y="289" font-family="Inter,sans-serif" font-size="8" font-weight="600" fill="#121C2D">Committee + Owner Comms</text>
<text x="695" y="301" font-family="Inter,sans-serif" font-size="7" font-weight="300" fill="#64748B">Digital AGMs · e-voting</text>
<text x="695" y="311" font-family="Inter,sans-serif" font-size="7" font-weight="300" fill="#64748B">online minutes · portals</text>
<text x="820" y="289" text-anchor="end" font-family="Inter,sans-serif" font-size="7" font-weight="400" fill="#64748B">Mo 4–8</text>

<!-- Phase 4 -->
<rect x="662" y="339" width="166" height="56" rx="4" fill="rgba(0,255,194,0.06)" stroke="#00FFC2" stroke-width="0.7" stroke-opacity="0.4"/>
<circle cx="678" cy="360" r="10" fill="#00FFC2" opacity="0.2"/>
<text x="678" y="364" text-anchor="middle" font-family="Inter,sans-serif" font-size="9" font-weight="700" fill="#0F6E56">4</text>
<text x="695" y="353" font-family="Inter,sans-serif" font-size="8" font-weight="600" fill="#121C2D">Integration + Automation</text>
<text x="695" y="365" font-family="Inter,sans-serif" font-size="7" font-weight="300" fill="#64748B">Software &#x2194; cloud · auto-reports</text>
<text x="695" y="375" font-family="Inter,sans-serif" font-size="7" font-weight="300" fill="#64748B">predictive compliance</text>
<text x="820" y="353" text-anchor="end" font-family="Inter,sans-serif" font-size="7" font-weight="400" fill="#64748B">Mo 6–12</text>

<!-- Action badge -->
<rect x="652" y="420" width="190" height="30" rx="6" fill="url(#badgeG)"/>
<text x="747" y="440" text-anchor="middle" font-family="Inter,sans-serif" font-size="10" font-weight="600" fill="white" letter-spacing="1">DEFAULT DIGITAL</text>

<!-- ROI circle badge -->
<circle cx="615" cy="285" r="48" fill="#042C53" opacity="0.88"/>
<circle cx="615" cy="285" r="48" fill="none" stroke="url(#accentV)" stroke-width="2.5"/>
<circle cx="615" cy="285" r="40" fill="none" stroke="rgba(46,91,255,0.18)" stroke-width="1"/>
<!-- Cloud icon motif -->
<path d="M600 283 Q597 275 604 272 Q601 262 612 262 Q618 256 626 260 Q636 258 637 268 Q644 269 643 278 Q643 285 636 285 L605 285 Q599 285 600 283 Z" fill="none" stroke="#2E5BFF" stroke-width="1.8" opacity="0.8"/>
<text x="615" y="303" text-anchor="middle" font-family="Inter,sans-serif" font-size="7" font-weight="400" fill="#85B7EB" letter-spacing="1">5–8 HRS SAVED</text>
<text x="615" y="316" text-anchor="middle" font-family="Inter,sans-serif" font-size="7" font-weight="300" fill="#00FFC2" letter-spacing="1">PER MANAGER/MONTH</text>

<!-- Stat cards -->
<rect x="840" y="420" width="155" height="62" rx="5" fill="white" fill-opacity="0.85" stroke="#2E5BFF" stroke-width="0.8" stroke-opacity="0.3"/>
<rect x="840" y="420" width="3" height="62" fill="#2E5BFF"/>
<text x="858" y="445" font-family="Inter,sans-serif" font-size="20" font-weight="600" fill="#121C2D">12 months</text>
<text x="858" y="461" font-family="Inter,sans-serif" font-size="10" font-weight="300" fill="#64748B">phased roadmap to</text>
<text x="858" y="474" font-family="Inter,sans-serif" font-size="10" font-weight="300" fill="#64748B">fully paperless</text>

<rect x="1007" y="420" width="157" height="62" rx="5" fill="white" fill-opacity="0.85" stroke="#00FFC2" stroke-width="0.8" stroke-opacity="0.5"/>
<rect x="1007" y="420" width="3" height="62" fill="#00FFC2"/>
<text x="1025" y="445" font-family="Inter,sans-serif" font-size="20" font-weight="600" fill="#121C2D">80% faster</text>
<text x="1025" y="461" font-family="Inter,sans-serif" font-size="10" font-weight="300" fill="#64748B">document retrieval</text>
<text x="1025" y="474" font-family="Inter,sans-serif" font-size="10" font-weight="300" fill="#64748B">with OCR search</text>

<!-- Left accent bar -->
<rect x="0" y="0" width="6" height="630" fill="url(#accentV)"/>
<text x="72" y="58" font-family="Inter,sans-serif" font-size="13" font-weight="400" fill="#64748B" letter-spacing="2.5">THE STRATA EDIT  ·  TECHNOLOGY &amp; THE FUTURE</text>
<rect x="72" y="70" width="280" height="1" fill="url(#accentH)" opacity="0.4"/>
<text font-family="Inter,sans-serif" fill="#121C2D"><tspan x="72" y="148" font-size="56" font-weight="300" letter-spacing="-1">The Paperless</tspan><tspan x="72" dy="66" font-size="56" font-weight="300" letter-spacing="-1">Strata Agency.</tspan><tspan x="72" dy="66" font-size="56" font-weight="700" letter-spacing="-1" fill="#2E5BFF">A Realistic</tspan><tspan x="72" dy="66" font-size="56" font-weight="700" letter-spacing="-1" fill="#2E5BFF">Roadmap.</tspan></text>
<circle cx="326" cy="346" r="7" fill="#00FFC2"/>
<rect x="72" y="368" width="300" height="1.5" fill="url(#accentH)" opacity="0.6"/>
<text x="72" y="396" font-family="Inter,sans-serif" font-size="16" font-weight="300" fill="#334155">4 phases. 12 months. Default digital.</text>
<rect x="72" y="420" width="175" height="30" rx="15" fill="rgba(46,91,255,0.07)" stroke="rgba(46,91,255,0.35)" stroke-width="1"/>
<text x="159" y="440" text-anchor="middle" font-family="Inter,sans-serif" font-size="12" font-weight="600" fill="#2E5BFF">OCR · e-sig · cloud</text>
<rect x="257" y="420" width="175" height="30" rx="15" fill="rgba(0,255,194,0.07)" stroke="rgba(15,110,86,0.35)" stroke-width="1"/>
<text x="344" y="440" text-anchor="middle" font-family="Inter,sans-serif" font-size="12" font-weight="600" fill="#0F6E56">Digital AGMs</text>
<rect x="72" y="462" width="182" height="30" rx="15" fill="rgba(46,91,255,0.06)" stroke="rgba(46,91,255,0.28)" stroke-width="1"/>
<text x="163" y="482" text-anchor="middle" font-family="Inter,sans-serif" font-size="12" font-weight="600" fill="#185FA5">Phased not overnight</text>
</g>
</svg>
