<svg width="1200" height="630" viewBox="0 0 1200 630" xmlns="http://www.w3.org/2000/svg">
<defs>
  <linearGradient id="sky" x1="0" y1="0" x2="0" y2="1"><stop offset="0%" stop-color="#020d1f"/><stop offset="40%" stop-color="#042C53"/><stop offset="75%" stop-color="#0C447C"/><stop offset="100%" stop-color="#185FA5"/></linearGradient>
  <linearGradient id="ground" x1="0" y1="0" x2="0" y2="1"><stop offset="0%" stop-color="#021626"/><stop offset="100%" stop-color="#010a14"/></linearGradient>
  <linearGradient id="bldA" x1="0" y1="0" x2="0" y2="1"><stop offset="0%" stop-color="#0C447C"/><stop offset="100%" stop-color="#020d1f"/></linearGradient>
  <linearGradient id="bldB" x1="0" y1="0" x2="0" y2="1"><stop offset="0%" stop-color="#185FA5"/><stop offset="100%" stop-color="#042C53"/></linearGradient>
  <linearGradient id="bldC" x1="0" y1="0" x2="0" y2="1"><stop offset="0%" stop-color="#052e5c"/><stop offset="100%" stop-color="#020d1f"/></linearGradient>
  <linearGradient id="accentV" x1="0" y1="0" x2="0" y2="1"><stop offset="0%" stop-color="#2E5BFF"/><stop offset="100%" stop-color="#00FFC2"/></linearGradient>
  <linearGradient id="accentH" x1="0" y1="0" x2="1" y2="0"><stop offset="0%" stop-color="#00FFC2"/><stop offset="100%" stop-color="#00FFC2" stop-opacity="0"/></linearGradient>
  <linearGradient id="timelineG" x1="0" y1="0" x2="1" y2="0"><stop offset="0%" stop-color="#2E5BFF"/><stop offset="100%" stop-color="#00FFC2"/></linearGradient>
  <clipPath id="mainClip"><rect width="1200" height="630"/></clipPath>
</defs>
<g clip-path="url(#mainClip)">
<rect width="1200" height="630" fill="url(#sky)"/>
<g stroke="#2E5BFF" stroke-width="0.5" opacity="0.05"><line x1="0" y1="126" x2="1200" y2="126"/><line x1="0" y1="252" x2="1200" y2="252"/><line x1="0" y1="378" x2="1200" y2="378"/><line x1="0" y1="504" x2="1200" y2="504"/><line x1="200" y1="0" x2="200" y2="630"/><line x1="400" y1="0" x2="400" y2="630"/><line x1="600" y1="0" x2="600" y2="630"/><line x1="800" y1="0" x2="800" y2="630"/><line x1="1000" y1="0" x2="1000" y2="630"/></g>
<ellipse cx="600" cy="200" rx="500" ry="300" fill="#2E5BFF" opacity="0.07"/>
<rect x="0" y="580" width="1200" height="50" fill="url(#ground)"/>
<line x1="0" y1="580" x2="1200" y2="580" stroke="#2E5BFF" stroke-width="0.8" opacity="0.3"/>
<rect x="700" y="400" width="28" height="180" fill="#042C53" opacity="0.55"/><rect x="742" y="375" width="36" height="205" fill="#042C53" opacity="0.5"/><rect x="792" y="355" width="42" height="225" fill="#052e5c" opacity="0.55"/>
<rect x="850" y="68" width="165" height="512" fill="url(#bldA)" rx="2"/><rect x="850" y="68" width="165" height="512" fill="none" stroke="#378ADD" stroke-width="0.7" opacity="0.2"/>
<line x1="893" y1="68" x2="893" y2="580" stroke="#378ADD" stroke-width="0.5" opacity="0.18"/><line x1="936" y1="68" x2="936" y2="580" stroke="#378ADD" stroke-width="0.5" opacity="0.18"/><line x1="979" y1="68" x2="979" y2="580" stroke="#378ADD" stroke-width="0.5" opacity="0.18"/>
<g stroke="#378ADD" stroke-width="0.4" opacity="0.12"><line x1="850" y1="106" x2="1015" y2="106"/><line x1="850" y1="144" x2="1015" y2="144"/><line x1="850" y1="182" x2="1015" y2="182"/><line x1="850" y1="220" x2="1015" y2="220"/><line x1="850" y1="258" x2="1015" y2="258"/><line x1="850" y1="296" x2="1015" y2="296"/><line x1="850" y1="334" x2="1015" y2="334"/><line x1="850" y1="372" x2="1015" y2="372"/><line x1="850" y1="410" x2="1015" y2="410"/><line x1="850" y1="448" x2="1015" y2="448"/></g>
<g opacity="0.35"><rect x="856" y="76" width="30" height="24" rx="1" fill="#2E5BFF" opacity="0.2"/><rect x="898" y="76" width="30" height="24" rx="1" fill="#00FFC2" opacity="0.15"/><rect x="941" y="76" width="30" height="24" rx="1" fill="#2E5BFF" opacity="0.18"/><rect x="856" y="114" width="30" height="24" rx="1" fill="#B5D4F4" opacity="0.1"/><rect x="898" y="114" width="30" height="24" rx="1" fill="#2E5BFF" opacity="0.2"/><rect x="941" y="114" width="30" height="24" rx="1" fill="#00FFC2" opacity="0.12"/><rect x="856" y="152" width="30" height="24" rx="1" fill="#2E5BFF" opacity="0.18"/><rect x="898" y="152" width="30" height="24" rx="1" fill="#B5D4F4" opacity="0.12"/><rect x="941" y="152" width="30" height="24" rx="1" fill="#2E5BFF" opacity="0.2"/></g>
<rect x="1030" y="160" width="105" height="420" fill="url(#bldB)" rx="2"/><rect x="1030" y="160" width="105" height="420" fill="none" stroke="#378ADD" stroke-width="0.6" opacity="0.18"/>
<line x1="1063" y1="160" x2="1063" y2="580" stroke="#378ADD" stroke-width="0.4" opacity="0.15"/><line x1="1100" y1="160" x2="1100" y2="580" stroke="#378ADD" stroke-width="0.4" opacity="0.15"/>
<g opacity="0.28"><rect x="1036" y="170" width="20" height="16" rx="1" fill="#2E5BFF" opacity="0.2"/><rect x="1068" y="170" width="20" height="16" rx="1" fill="#00FFC2" opacity="0.15"/><rect x="1036" y="202" width="20" height="16" rx="1" fill="#00FFC2" opacity="0.12"/><rect x="1068" y="202" width="20" height="16" rx="1" fill="#2E5BFF" opacity="0.2"/></g>
<rect x="1148" y="225" width="75" height="355" fill="url(#bldC)" rx="2"/><rect x="1148" y="225" width="75" height="355" fill="none" stroke="#378ADD" stroke-width="0.5" opacity="0.15"/>

<!-- ILLUSTRATION: THREE SERVICE TIERS — stacked cards with ascending height/glow -->
<!-- Standard tier — base, muted -->
<rect x="656" y="310" width="172" height="80" rx="5" fill="#042C53" fill-opacity="0.7" stroke="#64748B" stroke-width="1" stroke-opacity="0.5"/>
<rect x="656" y="310" width="3" height="80" fill="#64748B"/>
<text x="674" y="330" font-family="Inter,sans-serif" font-size="10" font-weight="600" fill="#85B7EB" letter-spacing="0.5">STANDARD</text>
<text x="674" y="346" font-family="Inter,sans-serif" font-size="8" font-weight="300" fill="#64748B">Reactive · compliance · monthly billing</text>
<text x="674" y="358" font-family="Inter,sans-serif" font-size="8" font-weight="300" fill="#64748B">AGM support · base reporting</text>
<text x="808" y="355" text-anchor="end" font-family="Inter,sans-serif" font-size="14" font-weight="700" fill="#64748B">Base</text>
<text x="808" y="370" text-anchor="end" font-family="Inter,sans-serif" font-size="8" font-weight="300" fill="#64748B">fee</text>
<text x="674" y="378" font-family="Inter,sans-serif" font-size="7" font-weight="300" fill="#64748B" font-style="italic">Competitive pricing</text>

<!-- Premium tier — highlighted, cobalt glow -->
<rect x="648" y="208" width="188" height="92" rx="5" fill="#042C53" fill-opacity="0.85" stroke="#2E5BFF" stroke-width="1.5"/>
<rect x="648" y="208" width="3" height="92" fill="#2E5BFF"/>
<!-- Glow -->
<rect x="648" y="208" width="188" height="92" rx="5" fill="none" stroke="#2E5BFF" stroke-width="6" opacity="0.08"/>
<text x="666" y="228" font-family="Inter,sans-serif" font-size="10" font-weight="700" fill="#E6F1FB" letter-spacing="0.5">PREMIUM</text>
<rect x="714" y="220" width="60" height="14" rx="7" fill="#2E5BFF" opacity="0.3"/>
<text x="744" y="231" text-anchor="middle" font-family="Inter,sans-serif" font-size="7" font-weight="600" fill="#85B7EB">RECOMMENDED</text>
<text x="666" y="245" font-family="Inter,sans-serif" font-size="8" font-weight="300" fill="#85B7EB">Proactive · trend analysis · 48h response</text>
<text x="666" y="257" font-family="Inter,sans-serif" font-size="8" font-weight="300" fill="#85B7EB">Quarterly financial reports · owner portal</text>
<text x="666" y="269" font-family="Inter,sans-serif" font-size="8" font-weight="300" fill="#85B7EB">Annual building condition report</text>
<text x="824" y="252" text-anchor="end" font-family="Inter,sans-serif" font-size="14" font-weight="700" fill="#2E5BFF">+20%</text>
<text x="824" y="266" text-anchor="end" font-family="Inter,sans-serif" font-size="7" font-weight="300" fill="#64748B">premium</text>
<text x="666" y="289" font-family="Inter,sans-serif" font-size="7" font-weight="300" fill="#64748B" font-style="italic">Proactive intelligence owners pay for</text>

<!-- Concierge tier — top, mint glow -->
<rect x="640" y="108" width="204" height="90" rx="5" fill="#042C53" fill-opacity="0.92" stroke="#00FFC2" stroke-width="1.5"/>
<rect x="640" y="108" width="3" height="90" fill="#00FFC2"/>
<rect x="640" y="108" width="204" height="90" rx="5" fill="none" stroke="#00FFC2" stroke-width="8" opacity="0.06"/>
<text x="658" y="128" font-family="Inter,sans-serif" font-size="10" font-weight="700" fill="#00FFC2" letter-spacing="0.5">CONCIERGE</text>
<text x="658" y="144" font-family="Inter,sans-serif" font-size="8" font-weight="300" fill="#85B7EB">White-glove · on-site visits · direct line</text>
<text x="658" y="156" font-family="Inter,sans-serif" font-size="8" font-weight="300" fill="#85B7EB">Bespoke reporting · lifestyle services</text>
<text x="658" y="168" font-family="Inter,sans-serif" font-size="8" font-weight="300" fill="#85B7EB">Integrated asset management</text>
<text x="832" y="148" text-anchor="end" font-family="Inter,sans-serif" font-size="14" font-weight="700" fill="#00FFC2">+40%</text>
<text x="832" y="162" text-anchor="end" font-family="Inter,sans-serif" font-size="7" font-weight="300" fill="#64748B">premium</text>
<text x="658" y="188" font-family="Inter,sans-serif" font-size="7" font-weight="300" fill="#64748B" font-style="italic">Peace of mind · fully managed</text>

<!-- Ascending line between tiers -->
<line x1="844" y1="395" x2="844" y2="300" stroke="#64748B" stroke-width="0.6" stroke-dasharray="3 3" opacity="0.4"/>
<line x1="844" y1="300" x2="844" y2="198" stroke="#2E5BFF" stroke-width="0.8" stroke-dasharray="3 3" opacity="0.5"/>
<line x1="844" y1="198" x2="844" y2="108" stroke="#00FFC2" stroke-width="1" stroke-dasharray="3 3" opacity="0.6"/>
<polyline points="840,112 844,106 848,112" stroke="#00FFC2" stroke-width="1" fill="none" opacity="0.7"/>

<!-- ROI badge -->
<circle cx="808" cy="460" r="40" fill="#042C53" opacity="0.9"/>
<circle cx="808" cy="460" r="40" fill="none" stroke="url(#accentV)" stroke-width="2.5"/>
<circle cx="808" cy="460" r="32" fill="none" stroke="rgba(46,91,255,0.18)" stroke-width="1"/>
<text x="808" y="449" text-anchor="middle" font-family="Inter,sans-serif" font-size="7" font-weight="400" fill="#85B7EB" letter-spacing="1">PREVENTED</text>
<text x="808" y="465" text-anchor="middle" font-family="Inter,sans-serif" font-size="14" font-weight="700" fill="white">$12K</text>
<text x="808" y="479" text-anchor="middle" font-family="Inter,sans-serif" font-size="7" font-weight="300" fill="#00FFC2" letter-spacing="1">EMERGENCIES</text>

<!-- Stat cards -->
<rect x="656" y="430" width="136" height="52" rx="5" fill="#0C447C" fill-opacity="0.4" stroke="#2E5BFF" stroke-width="0.8" stroke-opacity="0.35"/>
<rect x="656" y="430" width="3" height="52" fill="#2E5BFF"/>
<text x="674" y="451" font-family="Inter,sans-serif" font-size="18" font-weight="600" fill="#E6F1FB">Proactive</text>
<text x="674" y="467" font-family="Inter,sans-serif" font-size="9" font-weight="300" fill="#64748B">intelligence owners pay for</text>

<!-- Left accent bar -->
<rect x="0" y="0" width="6" height="630" fill="url(#accentV)"/>
<text x="72" y="58" font-family="Inter,sans-serif" font-size="13" font-weight="400" fill="rgba(133,183,235,0.75)" letter-spacing="2.5">THE STRATA EDIT  ·  BUSINESS GROWTH &amp; PROFITABILITY</text>
<rect x="72" y="70" width="280" height="1" fill="url(#accentH)" opacity="0.5"/>
<text font-family="Inter,sans-serif" fill="#E6F1FB">
  <tspan x="72" y="148" font-size="52" font-weight="300" letter-spacing="-1">What Premium</tspan>
  <tspan x="72" dy="62" font-size="52" font-weight="300" letter-spacing="-1">Strata Services</tspan>
  <tspan x="72" dy="62" font-size="52" font-weight="700" letter-spacing="-1" fill="#00FFC2">Actually</tspan>
  <tspan x="72" dy="62" font-size="52" font-weight="700" letter-spacing="-1" fill="#00FFC2">Look Like.</tspan>
</text>
<circle cx="228" cy="332" r="6" fill="#2E5BFF"/>
<rect x="72" y="352" width="300" height="1.5" fill="url(#accentH)" opacity="0.7"/>
<text x="72" y="380" font-family="Inter,sans-serif" font-size="15" font-weight="300" fill="rgba(181,212,244,0.85)">And why owners will pay for it.</text>
<rect x="72" y="404" width="185" height="28" rx="14" fill="rgba(46,91,255,0.18)" stroke="rgba(46,91,255,0.6)" stroke-width="1"/>
<text x="164" y="423" text-anchor="middle" font-family="Inter,sans-serif" font-size="11" font-weight="600" fill="#85B7EB">Proactive not reactive</text>
<rect x="267" y="404" width="168" height="28" rx="14" fill="rgba(0,255,194,0.1)" stroke="rgba(0,255,194,0.5)" stroke-width="1"/>
<text x="351" y="423" text-anchor="middle" font-family="Inter,sans-serif" font-size="11" font-weight="600" fill="#00FFC2">3 tier service model</text>
<rect x="72" y="442" width="190" height="28" rx="14" fill="rgba(46,91,255,0.15)" stroke="rgba(46,91,255,0.5)" stroke-width="1"/>
<text x="167" y="461" text-anchor="middle" font-family="Inter,sans-serif" font-size="11" font-weight="600" fill="#85B7EB">Demonstrate ROI to owners</text>
<!-- Slim timeline -->
<line x1="0" y1="516" x2="1200" y2="516" stroke="#0C447C" stroke-width="1" opacity="0.6"/>
<rect x="72" y="530" width="1076" height="3" rx="1.5" fill="#0C447C" opacity="0.8"/>
<rect x="72" y="530" width="1076" height="3" rx="1.5" fill="url(#timelineG)" opacity="0.65"/>
<circle cx="72" cy="531" r="6" fill="#64748B"/>
<text x="84" y="527" font-family="Inter,sans-serif" font-size="9" font-weight="600" fill="#B5D4F4">Reactive model</text>
<text x="84" y="542" font-family="Inter,sans-serif" font-size="9" font-weight="300" fill="#64748B">Firefighting · no data visibility</text>
<circle cx="350" cy="531" r="6" fill="#185FA5"/>
<text x="362" y="527" font-family="Inter,sans-serif" font-size="9" font-weight="600" fill="#B5D4F4">Systems investment</text>
<text x="362" y="542" font-family="Inter,sans-serif" font-size="9" font-weight="300" fill="#64748B">Data · training · communication cadence</text>
<circle cx="680" cy="531" r="8" fill="url(#accentV)"/>
<text x="694" y="527" font-family="Inter,sans-serif" font-size="9" font-weight="700" fill="#2E5BFF">Premium service live &#x2014; tier pricing</text>
<text x="694" y="542" font-family="Inter,sans-serif" font-size="9" font-weight="300" fill="#64748B">Proactive intelligence · preventative management</text>
<circle cx="1010" cy="531" r="6" fill="#00FFC2"/>
<text x="1000" y="527" text-anchor="end" font-family="Inter,sans-serif" font-size="9" font-weight="600" fill="#B5D4F4">Owner retention</text>
<text x="1000" y="542" text-anchor="end" font-family="Inter,sans-serif" font-size="9" font-weight="300" fill="#64748B">Renewals · referrals · ROI demonstrated</text>
</g>
</svg>
