<svg width="1200" height="630" viewBox="0 0 1200 630" xmlns="http://www.w3.org/2000/svg">
<defs>
  <linearGradient id="sky" x1="0" y1="0" x2="0" y2="1"><stop offset="0%" stop-color="#020d1f"/><stop offset="40%" stop-color="#042C53"/><stop offset="75%" stop-color="#0C447C"/><stop offset="100%" stop-color="#185FA5"/></linearGradient>
  <linearGradient id="ground" x1="0" y1="0" x2="0" y2="1"><stop offset="0%" stop-color="#021626"/><stop offset="100%" stop-color="#010a14"/></linearGradient>
  <linearGradient id="bldA" x1="0" y1="0" x2="0" y2="1"><stop offset="0%" stop-color="#0C447C"/><stop offset="100%" stop-color="#020d1f"/></linearGradient>
  <linearGradient id="bldB" x1="0" y1="0" x2="0" y2="1"><stop offset="0%" stop-color="#185FA5"/><stop offset="100%" stop-color="#042C53"/></linearGradient>
  <linearGradient id="bldC" x1="0" y1="0" x2="0" y2="1"><stop offset="0%" stop-color="#052e5c"/><stop offset="100%" stop-color="#020d1f"/></linearGradient>
  <linearGradient id="accentV" x1="0" y1="0" x2="0" y2="1"><stop offset="0%" stop-color="#2E5BFF"/><stop offset="100%" stop-color="#00FFC2"/></linearGradient>
  <linearGradient id="accentH" x1="0" y1="0" x2="1" y2="0"><stop offset="0%" stop-color="#00FFC2"/><stop offset="100%" stop-color="#00FFC2" stop-opacity="0"/></linearGradient>
  <linearGradient id="timelineG" x1="0" y1="0" x2="1" y2="0"><stop offset="0%" stop-color="#2E5BFF"/><stop offset="100%" stop-color="#00FFC2"/></linearGradient>
  <!-- IoT sensor pulse -->
  <radialGradient id="sensorPulse" cx="50%" cy="50%" r="50%"><stop offset="0%" stop-color="#00FFC2" stop-opacity="0.6"/><stop offset="100%" stop-color="#00FFC2" stop-opacity="0"/></radialGradient>
  <radialGradient id="alertPulse" cx="50%" cy="50%" r="50%"><stop offset="0%" stop-color="#FF4D4D" stop-opacity="0.5"/><stop offset="100%" stop-color="#FF4D4D" stop-opacity="0"/></radialGradient>
  <clipPath id="mainClip"><rect width="1200" height="630"/></clipPath>
</defs>
<g clip-path="url(#mainClip)">
<rect width="1200" height="630" fill="url(#sky)"/>
<g stroke="#2E5BFF" stroke-width="0.5" opacity="0.05"><line x1="0" y1="126" x2="1200" y2="126"/><line x1="0" y1="252" x2="1200" y2="252"/><line x1="0" y1="378" x2="1200" y2="378"/><line x1="0" y1="504" x2="1200" y2="504"/><line x1="200" y1="0" x2="200" y2="630"/><line x1="400" y1="0" x2="400" y2="630"/><line x1="600" y1="0" x2="600" y2="630"/><line x1="800" y1="0" x2="800" y2="630"/><line x1="1000" y1="0" x2="1000" y2="630"/></g>
<ellipse cx="600" cy="200" rx="500" ry="300" fill="#2E5BFF" opacity="0.07"/>
<rect x="0" y="580" width="1200" height="50" fill="url(#ground)"/>
<line x1="0" y1="580" x2="1200" y2="580" stroke="#2E5BFF" stroke-width="0.8" opacity="0.3"/>
<rect x="700" y="400" width="28" height="180" fill="#042C53" opacity="0.55"/><rect x="742" y="375" width="36" height="205" fill="#042C53" opacity="0.5"/><rect x="792" y="355" width="42" height="225" fill="#052e5c" opacity="0.55"/>
<rect x="850" y="68" width="165" height="512" fill="url(#bldA)" rx="2"/><rect x="850" y="68" width="165" height="512" fill="none" stroke="#378ADD" stroke-width="0.7" opacity="0.2"/>
<line x1="893" y1="68" x2="893" y2="580" stroke="#378ADD" stroke-width="0.5" opacity="0.18"/><line x1="936" y1="68" x2="936" y2="580" stroke="#378ADD" stroke-width="0.5" opacity="0.18"/><line x1="979" y1="68" x2="979" y2="580" stroke="#378ADD" stroke-width="0.5" opacity="0.18"/>
<g stroke="#378ADD" stroke-width="0.4" opacity="0.12"><line x1="850" y1="106" x2="1015" y2="106"/><line x1="850" y1="144" x2="1015" y2="144"/><line x1="850" y1="182" x2="1015" y2="182"/><line x1="850" y1="220" x2="1015" y2="220"/><line x1="850" y1="258" x2="1015" y2="258"/><line x1="850" y1="296" x2="1015" y2="296"/><line x1="850" y1="334" x2="1015" y2="334"/><line x1="850" y1="372" x2="1015" y2="372"/><line x1="850" y1="410" x2="1015" y2="410"/><line x1="850" y1="448" x2="1015" y2="448"/></g>
<g opacity="0.35"><rect x="856" y="76" width="30" height="24" rx="1" fill="#2E5BFF" opacity="0.2"/><rect x="898" y="76" width="30" height="24" rx="1" fill="#00FFC2" opacity="0.15"/><rect x="941" y="76" width="30" height="24" rx="1" fill="#2E5BFF" opacity="0.18"/><rect x="856" y="114" width="30" height="24" rx="1" fill="#B5D4F4" opacity="0.1"/><rect x="898" y="114" width="30" height="24" rx="1" fill="#2E5BFF" opacity="0.2"/><rect x="941" y="114" width="30" height="24" rx="1" fill="#00FFC2" opacity="0.12"/><rect x="856" y="152" width="30" height="24" rx="1" fill="#2E5BFF" opacity="0.18"/><rect x="898" y="152" width="30" height="24" rx="1" fill="#B5D4F4" opacity="0.12"/><rect x="941" y="152" width="30" height="24" rx="1" fill="#2E5BFF" opacity="0.2"/></g>
<rect x="1030" y="160" width="105" height="420" fill="url(#bldB)" rx="2"/><rect x="1030" y="160" width="105" height="420" fill="none" stroke="#378ADD" stroke-width="0.6" opacity="0.18"/>
<line x1="1063" y1="160" x2="1063" y2="580" stroke="#378ADD" stroke-width="0.4" opacity="0.15"/><line x1="1100" y1="160" x2="1100" y2="580" stroke="#378ADD" stroke-width="0.4" opacity="0.15"/>
<g opacity="0.28"><rect x="1036" y="170" width="20" height="16" rx="1" fill="#2E5BFF" opacity="0.2"/><rect x="1068" y="170" width="20" height="16" rx="1" fill="#00FFC2" opacity="0.15"/><rect x="1036" y="202" width="20" height="16" rx="1" fill="#00FFC2" opacity="0.12"/><rect x="1068" y="202" width="20" height="16" rx="1" fill="#2E5BFF" opacity="0.2"/></g>
<rect x="1148" y="225" width="75" height="355" fill="url(#bldC)" rx="2"/><rect x="1148" y="225" width="75" height="355" fill="none" stroke="#378ADD" stroke-width="0.5" opacity="0.15"/>

<!-- ILLUSTRATION: SMART BUILDING SENSOR NETWORK
     Building schematic (front elevation) with IoT sensor nodes
     and data lines flowing to a central analytics hub -->

<!-- Building facade — schematic front elevation -->
<rect x="680" y="95" width="200" height="390" fill="#021626" fill-opacity="0.7" stroke="#2E5BFF" stroke-width="1" stroke-opacity="0.4" rx="3"/>
<!-- Floor lines -->
<g stroke="#185FA5" stroke-width="0.5" opacity="0.35"><line x1="680" y1="160" x2="880" y2="160"/><line x1="680" y1="225" x2="880" y2="225"/><line x1="680" y1="290" x2="880" y2="290"/><line x1="680" y1="355" x2="880" y2="355"/><line x1="680" y1="420" x2="880" y2="420"/></g>
<!-- Windows per floor — 3 columns, 5 floors -->
<g fill="#0C447C" opacity="0.5"><rect x="695" y="106" width="38" height="46" rx="2"/><rect x="742" y="106" width="38" height="46" rx="2"/><rect x="789" y="106" width="38" height="46" rx="2"/><rect x="695" y="171" width="38" height="46" rx="2"/><rect x="742" y="171" width="38" height="46" rx="2"/><rect x="789" y="171" width="38" height="46" rx="2"/><rect x="695" y="236" width="38" height="46" rx="2"/><rect x="742" y="236" width="38" height="46" rx="2"/><rect x="789" y="236" width="38" height="46" rx="2"/><rect x="695" y="301" width="38" height="46" rx="2"/><rect x="742" y="301" width="38" height="46" rx="2"/><rect x="789" y="301" width="38" height="46" rx="2"/><rect x="695" y="366" width="38" height="46" rx="2"/><rect x="742" y="366" width="38" height="46" rx="2"/><rect x="789" y="366" width="38" height="46" rx="2"/></g>
<!-- Building label -->
<text x="780" y="498" text-anchor="middle" font-family="Inter,sans-serif" font-size="8" font-weight="300" fill="#64748B">SMART BUILDING · IoT ENABLED</text>

<!-- IoT SENSOR NODES on building -->
<!-- Water sensor — floor 3, ALERT (red pulse) -->
<circle cx="714" cy="258" r="14" fill="url(#alertPulse)"/>
<circle cx="714" cy="258" r="7" fill="#042C53" stroke="#FF4D4D" stroke-width="1.5"/>
<text x="714" y="262" text-anchor="middle" font-family="Inter,sans-serif" font-size="7" fill="#FF4D4D">&#x2022;</text>
<!-- data line to hub -->
<line x1="720" y1="258" x2="878" y2="258" stroke="#FF4D4D" stroke-width="0.8" stroke-dasharray="4 3" opacity="0.7"/>
<!-- Alert callout -->
<rect x="884" y="244" width="132" height="30" rx="4" fill="#042C53" fill-opacity="0.9" stroke="#FF4D4D" stroke-width="0.8"/>
<text x="896" y="259" font-family="Inter,sans-serif" font-size="8" font-weight="600" fill="#FF7A7A">&#x26A0; LEAK DETECTED</text>
<text x="896" y="270" font-family="Inter,sans-serif" font-size="7" font-weight="300" fill="#64748B">Floor 3 · supply line</text>

<!-- Energy sensor — floor 5 top, mint (normal) -->
<circle cx="762" cy="129" r="14" fill="url(#sensorPulse)"/>
<circle cx="762" cy="129" r="7" fill="#042C53" stroke="#00FFC2" stroke-width="1.5"/>
<text x="762" y="133" text-anchor="middle" font-family="Inter,sans-serif" font-size="7" fill="#00FFC2">&#x26A1;</text>
<line x1="762" y1="123" x2="762" y2="93" stroke="#00FFC2" stroke-width="0.8" stroke-dasharray="4 3" opacity="0.6"/>
<!-- callout above -->
<rect x="700" y="75" width="124" height="18" rx="4" fill="#042C53" fill-opacity="0.9" stroke="#00FFC2" stroke-width="0.8"/>
<text x="762" y="87" text-anchor="middle" font-family="Inter,sans-serif" font-size="7" font-weight="300" fill="#85B7EB">Energy: normal · -3% vs last month</text>

<!-- Lift sensor — floor 2, cobalt (predictive warning) -->
<circle cx="808" cy="193" r="14" fill="#2E5BFF" fill-opacity="0.15"/>
<circle cx="808" cy="193" r="7" fill="#042C53" stroke="#2E5BFF" stroke-width="1.5"/>
<text x="808" y="197" text-anchor="middle" font-family="Inter,sans-serif" font-size="7" fill="#2E5BFF">&#x25B2;</text>
<line x1="814" y1="193" x2="878" y2="193" stroke="#2E5BFF" stroke-width="0.8" stroke-dasharray="4 3" opacity="0.6"/>
<rect x="884" y="179" width="130" height="30" rx="4" fill="#042C53" fill-opacity="0.9" stroke="#2E5BFF" stroke-width="0.8"/>
<text x="896" y="194" font-family="Inter,sans-serif" font-size="8" font-weight="600" fill="#85B7EB">LIFT · Wear pattern</text>
<text x="896" y="205" font-family="Inter,sans-serif" font-size="7" font-weight="300" fill="#64748B">Replace door sensor · 60 days</text>

<!-- HVAC sensor — floor 4, mint (normal) -->
<circle cx="714" cy="323" r="7" fill="#042C53" stroke="#00FFC2" stroke-width="1" opacity="0.7"/>
<text x="714" y="327" text-anchor="middle" font-family="Inter,sans-serif" font-size="7" fill="#00FFC2">&#x2665;</text>
<line x1="720" y1="323" x2="878" y2="323" stroke="#00FFC2" stroke-width="0.6" stroke-dasharray="4 3" opacity="0.4"/>
<rect x="884" y="313" width="110" height="22" rx="4" fill="#042C53" fill-opacity="0.8" stroke="#00FFC2" stroke-width="0.6" stroke-opacity="0.5"/>
<text x="896" y="328" font-family="Inter,sans-serif" font-size="7" font-weight="300" fill="#64748B">HVAC · All zones normal</text>

<!-- Analytics hub label -->
<text x="875" y="162" font-family="Inter,sans-serif" font-size="7" font-weight="600" fill="#64748B" letter-spacing="0.5">ANALYTICS HUB</text>

<!-- Badge: sensor costs are now accessible -->
<circle cx="808" cy="455" r="40" fill="#042C53" opacity="0.9"/>
<circle cx="808" cy="455" r="40" fill="none" stroke="url(#accentV)" stroke-width="2.5"/>
<circle cx="808" cy="455" r="32" fill="none" stroke="rgba(46,91,255,0.18)" stroke-width="1"/>
<text x="808" y="443" text-anchor="middle" font-family="Inter,sans-serif" font-size="7" font-weight="400" fill="#85B7EB" letter-spacing="1">SENSORS FROM</text>
<text x="808" y="460" text-anchor="middle" font-family="Inter,sans-serif" font-size="14" font-weight="700" fill="white">$50</text>
<text x="808" y="474" text-anchor="middle" font-family="Inter,sans-serif" font-size="7" font-weight="300" fill="#00FFC2" letter-spacing="1">NOW ACCESSIBLE</text>

<!-- Stat cards -->
<rect x="656" y="430" width="136" height="56" rx="5" fill="#0C447C" fill-opacity="0.4" stroke="#2E5BFF" stroke-width="0.8" stroke-opacity="0.35"/>
<rect x="656" y="430" width="3" height="56" fill="#2E5BFF"/>
<text x="674" y="451" font-family="Inter,sans-serif" font-size="18" font-weight="600" fill="#E6F1FB">$3–8K</text>
<text x="674" y="467" font-family="Inter,sans-serif" font-size="9" font-weight="300" fill="#85B7EB">energy monitoring retrofit</text>
<text x="674" y="479" font-family="Inter,sans-serif" font-size="9" font-weight="300" fill="#64748B">for entire building</text>

<!-- Left accent bar -->
<rect x="0" y="0" width="6" height="630" fill="url(#accentV)"/>
<text x="72" y="58" font-family="Inter,sans-serif" font-size="13" font-weight="400" fill="rgba(133,183,235,0.75)" letter-spacing="2.5">THE STRATA EDIT  ·  TECHNOLOGY &amp; THE FUTURE</text>
<rect x="72" y="70" width="280" height="1" fill="url(#accentH)" opacity="0.5"/>
<text font-family="Inter,sans-serif" fill="#E6F1FB">
  <tspan x="72" y="148" font-size="52" font-weight="300" letter-spacing="-1">Smart Buildings</tspan>
  <tspan x="72" dy="62" font-size="52" font-weight="300" letter-spacing="-1">and Strata.</tspan>
  <tspan x="72" dy="62" font-size="52" font-weight="700" letter-spacing="-1" fill="#00FFC2">IoT · Sensors</tspan>
  <tspan x="72" dy="62" font-size="52" font-weight="700" letter-spacing="-1" fill="#00FFC2">· Prediction.</tspan>
</text>
<circle cx="72" cy="332" r="6" fill="#2E5BFF"/>
<rect x="72" y="352" width="300" height="1.5" fill="url(#accentH)" opacity="0.7"/>
<text x="72" y="380" font-family="Inter,sans-serif" font-size="15" font-weight="300" fill="rgba(181,212,244,0.85)">Catch leaks. Predict lift failures.</text>
<text x="72" y="399" font-family="Inter,sans-serif" font-size="15" font-weight="300" fill="rgba(181,212,244,0.85)">Now affordable for mid-size buildings.</text>
<rect x="72" y="422" width="175" height="28" rx="14" fill="rgba(46,91,255,0.18)" stroke="rgba(46,91,255,0.6)" stroke-width="1"/>
<text x="159" y="441" text-anchor="middle" font-family="Inter,sans-serif" font-size="11" font-weight="600" fill="#85B7EB">Sensors from $50</text>
<rect x="257" y="422" width="165" height="28" rx="14" fill="rgba(0,255,194,0.1)" stroke="rgba(0,255,194,0.5)" stroke-width="1"/>
<text x="339" y="441" text-anchor="middle" font-family="Inter,sans-serif" font-size="11" font-weight="600" fill="#00FFC2">Catch leaks in hours</text>
<rect x="72" y="460" width="190" height="28" rx="14" fill="rgba(46,91,255,0.15)" stroke="rgba(46,91,255,0.5)" stroke-width="1"/>
<text x="167" y="479" text-anchor="middle" font-family="Inter,sans-serif" font-size="11" font-weight="600" fill="#85B7EB">Predictive not reactive</text>
<!-- Slim timeline -->
<line x1="0" y1="516" x2="1200" y2="516" stroke="#0C447C" stroke-width="1" opacity="0.6"/>
<rect x="72" y="530" width="1076" height="3" rx="1.5" fill="#0C447C" opacity="0.8"/>
<rect x="72" y="530" width="1076" height="3" rx="1.5" fill="url(#timelineG)" opacity="0.65"/>
<circle cx="72" cy="531" r="6" fill="#64748B"/>
<text x="84" y="527" font-family="Inter,sans-serif" font-size="9" font-weight="600" fill="#B5D4F4">Reactive management</text>
<text x="84" y="542" font-family="Inter,sans-serif" font-size="9" font-weight="300" fill="#64748B">Discover leak after wall damage</text>
<circle cx="360" cy="531" r="6" fill="#2E5BFF"/>
<text x="372" y="527" font-family="Inter,sans-serif" font-size="9" font-weight="600" fill="#B5D4F4">Sensors installed</text>
<text x="372" y="542" font-family="Inter,sans-serif" font-size="9" font-weight="300" fill="#64748B">Water · energy · lift · HVAC monitoring</text>
<circle cx="680" cy="531" r="8" fill="url(#accentV)"/>
<text x="694" y="527" font-family="Inter,sans-serif" font-size="9" font-weight="700" fill="#2E5BFF">Alert fires &#x2014; proactive response</text>
<text x="694" y="542" font-family="Inter,sans-serif" font-size="9" font-weight="300" fill="#64748B">Leak caught · $800 repair vs $30K remediation</text>
<circle cx="1010" cy="531" r="6" fill="#00FFC2"/>
<text x="1000" y="527" text-anchor="end" font-family="Inter,sans-serif" font-size="9" font-weight="600" fill="#B5D4F4">Data-driven decisions</text>
<text x="1000" y="542" text-anchor="end" font-family="Inter,sans-serif" font-size="9" font-weight="300" fill="#64748B">Manager is strategist not firefighter</text>
</g>
</svg>
