<svg width="1200" height="630" viewBox="0 0 1200 630" xmlns="http://www.w3.org/2000/svg">
  <defs>
    <linearGradient id="sky" x1="0" y1="0" x2="0" y2="1"><stop offset="0%" stop-color="#020d1f"/><stop offset="40%" stop-color="#042C53"/><stop offset="75%" stop-color="#0C447C"/><stop offset="100%" stop-color="#185FA5"/></linearGradient>
    <linearGradient id="ground" x1="0" y1="0" x2="0" y2="1"><stop offset="0%" stop-color="#021626"/><stop offset="100%" stop-color="#010a14"/></linearGradient>
    <linearGradient id="bldA" x1="0" y1="0" x2="0" y2="1"><stop offset="0%" stop-color="#0C447C"/><stop offset="100%" stop-color="#020d1f"/></linearGradient>
    <linearGradient id="bldB" x1="0" y1="0" x2="0" y2="1"><stop offset="0%" stop-color="#185FA5"/><stop offset="100%" stop-color="#042C53"/></linearGradient>
    <linearGradient id="bldC" x1="0" y1="0" x2="0" y2="1"><stop offset="0%" stop-color="#052e5c"/><stop offset="100%" stop-color="#020d1f"/></linearGradient>
    <linearGradient id="accentV" x1="0" y1="0" x2="0" y2="1"><stop offset="0%" stop-color="#2E5BFF"/><stop offset="100%" stop-color="#00FFC2"/></linearGradient>
    <linearGradient id="accentH" x1="0" y1="0" x2="1" y2="0"><stop offset="0%" stop-color="#00FFC2"/><stop offset="100%" stop-color="#00FFC2" stop-opacity="0"/></linearGradient>
    <linearGradient id="timelineG" x1="0" y1="0" x2="1" y2="0"><stop offset="0%" stop-color="#2E5BFF"/><stop offset="100%" stop-color="#00FFC2"/></linearGradient>
    <linearGradient id="qldFill" x1="0" y1="0" x2="0" y2="1"><stop offset="0%" stop-color="#185FA5" stop-opacity="0.3"/><stop offset="100%" stop-color="#0C447C" stop-opacity="0.15"/></linearGradient>
    <linearGradient id="nswFill" x1="0" y1="0" x2="0" y2="1"><stop offset="0%" stop-color="#2E5BFF" stop-opacity="0.35"/><stop offset="100%" stop-color="#185FA5" stop-opacity="0.18"/></linearGradient>
    <linearGradient id="vicFill" x1="0" y1="0" x2="0" y2="1"><stop offset="0%" stop-color="#00FFC2" stop-opacity="0.2"/><stop offset="100%" stop-color="#0F6E56" stop-opacity="0.1"/></linearGradient>
    <clipPath id="mainClip"><rect width="1200" height="630"/></clipPath>
  </defs>
  <g clip-path="url(#mainClip)">
  <rect width="1200" height="630" fill="url(#sky)"/>
  <g stroke="#2E5BFF" stroke-width="0.5" opacity="0.05">
    <line x1="0" y1="126" x2="1200" y2="126"/><line x1="0" y1="252" x2="1200" y2="252"/>
    <line x1="0" y1="378" x2="1200" y2="378"/><line x1="0" y1="504" x2="1200" y2="504"/>
    <line x1="200" y1="0" x2="200" y2="630"/><line x1="400" y1="0" x2="400" y2="630"/>
    <line x1="600" y1="0" x2="600" y2="630"/><line x1="800" y1="0" x2="800" y2="630"/>
    <line x1="1000" y1="0" x2="1000" y2="630"/>
  </g>
  <ellipse cx="800" cy="300" rx="400" ry="320" fill="#2E5BFF" opacity="0.05"/>
  <rect x="0" y="580" width="1200" height="50" fill="url(#ground)"/>
  <line x1="0" y1="580" x2="1200" y2="580" stroke="#2E5BFF" stroke-width="0.8" opacity="0.3"/>
  <!-- Distant buildings -->
  <rect x="580" y="390" width="22" height="190" fill="#042C53" opacity="0.45"/>
  <rect x="612" y="370" width="28" height="210" fill="#042C53" opacity="0.4"/>
  <rect x="650" y="355" width="32" height="225" fill="#052e5c" opacity="0.45"/>
  <!-- Right building -->
  <rect x="1030" y="160" width="105" height="420" fill="url(#bldB)" rx="2"/>
  <rect x="1030" y="160" width="105" height="420" fill="none" stroke="#378ADD" stroke-width="0.6" opacity="0.18"/>
  <line x1="1063" y1="160" x2="1063" y2="580" stroke="#378ADD" stroke-width="0.4" opacity="0.15"/>
  <line x1="1100" y1="160" x2="1100" y2="580" stroke="#378ADD" stroke-width="0.4" opacity="0.15"/>
  <g stroke="#378ADD" stroke-width="0.3" opacity="0.1">
    <line x1="1030" y1="196" x2="1135" y2="196"/><line x1="1030" y1="232" x2="1135" y2="232"/>
    <line x1="1030" y1="268" x2="1135" y2="268"/><line x1="1030" y1="304" x2="1135" y2="304"/>
    <line x1="1030" y1="340" x2="1135" y2="340"/><line x1="1030" y1="376" x2="1135" y2="376"/>
    <line x1="1030" y1="412" x2="1135" y2="412"/><line x1="1030" y1="448" x2="1135" y2="448"/>
  </g>
  <g opacity="0.28">
    <rect x="1036" y="170" width="20" height="16" rx="1" fill="#2E5BFF" opacity="0.2"/>
    <rect x="1068" y="170" width="20" height="16" rx="1" fill="#00FFC2" opacity="0.15"/>
    <rect x="1106" y="170" width="20" height="16" rx="1" fill="#2E5BFF" opacity="0.2"/>
    <rect x="1036" y="202" width="20" height="16" rx="1" fill="#00FFC2" opacity="0.12"/>
    <rect x="1068" y="202" width="20" height="16" rx="1" fill="#2E5BFF" opacity="0.2"/>
    <rect x="1106" y="202" width="20" height="16" rx="1" fill="#B5D4F4" opacity="0.15"/>
    <rect x="1036" y="234" width="20" height="16" rx="1" fill="#2E5BFF" opacity="0.18"/>
    <rect x="1068" y="234" width="20" height="16" rx="1" fill="#B5D4F4" opacity="0.12"/>
    <rect x="1106" y="234" width="20" height="16" rx="1" fill="#00FFC2" opacity="0.12"/>
    <rect x="1036" y="266" width="20" height="16" rx="1" fill="#00FFC2" opacity="0.12"/>
    <rect x="1068" y="266" width="20" height="16" rx="1" fill="#2E5BFF" opacity="0.2"/>
    <rect x="1106" y="266" width="20" height="16" rx="1" fill="#2E5BFF" opacity="0.15"/>
    <rect x="1036" y="298" width="20" height="16" rx="1" fill="#2E5BFF" opacity="0.18"/>
    <rect x="1068" y="298" width="20" height="16" rx="1" fill="#00FFC2" opacity="0.12"/>
    <rect x="1106" y="298" width="20" height="16" rx="1" fill="#2E5BFF" opacity="0.2"/>
  </g>
  <rect x="1148" y="225" width="75" height="355" fill="url(#bldC)" rx="2"/>
  <rect x="1148" y="225" width="75" height="355" fill="none" stroke="#378ADD" stroke-width="0.5" opacity="0.15"/>

  <!-- QLD shape -->
  <path d="M700 75 L880 75 L880 100 L895 110 L900 135 L895 160 L888 185 L882 210 L878 240 L874 268 L868 278 L855 280 L840 278 L820 276 L800 278 L780 280 L762 278 L748 270 L740 255 L735 235 L730 210 L722 185 L714 155 L707 125 L700 100 Z" fill="url(#qldFill)" stroke="#378ADD" stroke-width="1.2" opacity="0.85"/>
  <text x="790" y="175" text-anchor="middle" font-family="Inter,sans-serif" font-size="22" font-weight="700" fill="#378ADD" opacity="0.55">QLD</text>

  <!-- NSW shape -->
  <path d="M748 270 L762 278 L780 280 L800 278 L820 276 L840 278 L855 280 L868 278 L874 268 L876 285 L876 310 L874 335 L870 358 L862 375 L848 388 L832 396 L815 400 L798 400 L780 398 L762 392 L748 382 L738 368 L732 350 L728 330 L726 308 L726 288 L730 276 L740 268 Z" fill="url(#nswFill)" stroke="#2E5BFF" stroke-width="1.5" opacity="0.9"/>
  <text x="800" y="342" text-anchor="middle" font-family="Inter,sans-serif" font-size="20" font-weight="700" fill="#4A7EFF" opacity="0.7">NSW</text>

  <!-- VIC shape -->
  <path d="M732 400 L748 392 L762 396 L780 400 L798 402 L815 402 L832 398 L848 390 L860 382 L868 390 L864 410 L854 428 L838 442 L818 450 L798 452 L778 450 L760 444 L744 432 L734 418 Z" fill="url(#vicFill)" stroke="#00FFC2" stroke-width="1.5" opacity="0.85"/>
  <text x="800" y="432" text-anchor="middle" font-family="Inter,sans-serif" font-size="16" font-weight="700" fill="#00FFC2" opacity="0.65">VIC</text>

  <!-- Border lines -->
  <line x1="748" y1="270" x2="874" y2="268" stroke="#185FA5" stroke-width="0.8" stroke-dasharray="4 3" opacity="0.5"/>
  <line x1="732" y1="400" x2="868" y2="390" stroke="#185FA5" stroke-width="0.8" stroke-dasharray="4 3" opacity="0.5"/>

  <!-- QLD pin + callout -->
  <circle cx="858" cy="248" r="7" fill="#378ADD" opacity="0.9"/>
  <circle cx="858" cy="248" r="12" fill="none" stroke="#378ADD" stroke-width="1" opacity="0.3"/>
  <line x1="865" y1="244" x2="900" y2="210" stroke="#378ADD" stroke-width="0.8" stroke-dasharray="3 3" opacity="0.6"/>
  <rect x="902" y="188" width="118" height="46" rx="4" fill="#042C53" fill-opacity="0.88" stroke="#378ADD" stroke-width="0.8"/>
  <rect x="902" y="188" width="3" height="46" fill="#378ADD"/>
  <text x="914" y="205" font-family="Inter,sans-serif" font-size="9" font-weight="600" fill="#E6F1FB">QLD</text>
  <text x="914" y="218" font-family="Inter,sans-serif" font-size="8" font-weight="300" fill="#85B7EB">Olympics growth surge</text>
  <text x="914" y="228" font-family="Inter,sans-serif" font-size="8" font-weight="300" fill="#64748B">Disclosure tightening</text>

  <!-- NSW pin + callout -->
  <circle cx="862" cy="358" r="7" fill="#2E5BFF" opacity="0.9"/>
  <circle cx="862" cy="358" r="12" fill="none" stroke="#2E5BFF" stroke-width="1" opacity="0.35"/>
  <line x1="869" y1="354" x2="910" y2="318" stroke="#2E5BFF" stroke-width="0.8" stroke-dasharray="3 3" opacity="0.6"/>
  <rect x="912" y="292" width="138" height="60" rx="4" fill="#042C53" fill-opacity="0.92" stroke="#2E5BFF" stroke-width="1"/>
  <rect x="912" y="292" width="3" height="60" fill="#2E5BFF"/>
  <text x="924" y="309" font-family="Inter,sans-serif" font-size="9" font-weight="600" fill="#E6F1FB">NSW  &#xB7;  Busiest 2026</text>
  <text x="924" y="322" font-family="Inter,sans-serif" font-size="8" font-weight="300" fill="#85B7EB">Capital works &#xB7; Fire safety</text>
  <text x="924" y="334" font-family="Inter,sans-serif" font-size="8" font-weight="300" fill="#85B7EB">Committee training</text>
  <text x="924" y="346" font-family="Inter,sans-serif" font-size="8" font-weight="300" fill="#64748B">Jan 1 &#xB7; Feb 13 &#xB7; Apr 1</text>

  <!-- VIC pin + callout -->
  <circle cx="782" cy="432" r="7" fill="#00FFC2" opacity="0.9"/>
  <circle cx="782" cy="432" r="12" fill="none" stroke="#00FFC2" stroke-width="1" opacity="0.3"/>
  <line x1="776" y1="438" x2="740" y2="468" stroke="#00FFC2" stroke-width="0.8" stroke-dasharray="3 3" opacity="0.6"/>
  <rect x="652" y="452" width="138" height="46" rx="4" fill="#042C53" fill-opacity="0.88" stroke="#00FFC2" stroke-width="0.8"/>
  <rect x="652" y="452" width="3" height="46" fill="#00FFC2"/>
  <text x="664" y="469" font-family="Inter,sans-serif" font-size="9" font-weight="600" fill="#E6F1FB">VIC</text>
  <text x="664" y="482" font-family="Inter,sans-serif" font-size="8" font-weight="300" fill="#85B7EB">10-yr plans &#xB7; Energy mandates</text>
  <text x="664" y="492" font-family="Inter,sans-serif" font-size="8" font-weight="300" fill="#64748B">128,900 schemes</text>

  <!-- Stat cards -->
  <rect x="840" y="490" width="155" height="52" rx="5" fill="#0C447C" fill-opacity="0.4" stroke="#2E5BFF" stroke-width="0.8" stroke-opacity="0.35"/>
  <rect x="840" y="490" width="3" height="52" fill="#2E5BFF"/>
  <text x="858" y="512" font-family="Inter,sans-serif" font-size="20" font-weight="600" fill="#E6F1FB">3 states</text>
  <text x="858" y="530" font-family="Inter,sans-serif" font-size="9" font-weight="300" fill="#64748B">1 compliance year to navigate</text>
  <rect x="1008" y="490" width="148" height="52" rx="5" fill="#0C447C" fill-opacity="0.4" stroke="#00FFC2" stroke-width="0.8" stroke-opacity="0.4"/>
  <rect x="1008" y="490" width="3" height="52" fill="#00FFC2"/>
  <text x="1026" y="512" font-family="Inter,sans-serif" font-size="20" font-weight="600" fill="#E6F1FB">Apr 1</text>
  <text x="1026" y="530" font-family="Inter,sans-serif" font-size="9" font-weight="300" fill="#64748B">NSW capital works deadline</text>

  <!-- Left accent bar -->
  <rect x="0" y="0" width="6" height="630" fill="url(#accentV)"/>

  <!-- Eyebrow -->
  <text x="72" y="58" font-family="Inter,sans-serif" font-size="13" font-weight="400" fill="rgba(133,183,235,0.75)" letter-spacing="2.5">THE STRATA EDIT  &#xB7;  COMPLIANCE &amp; REGULATION</text>
  <rect x="72" y="70" width="280" height="1" fill="url(#accentH)" opacity="0.5"/>

  <!-- Headline -->
  <text font-family="Inter,sans-serif" fill="#E6F1FB">
    <tspan x="72" y="148" font-size="55" font-weight="300" letter-spacing="-1">Strata Compliance</tspan>
    <tspan x="72" dy="65" font-size="55" font-weight="300" letter-spacing="-1">in 2026.</tspan>
    <tspan x="72" dy="65" font-size="55" font-weight="700" letter-spacing="-1" fill="#00FFC2">NSW &#xB7; VIC &#xB7; QLD.</tspan>
  </text>
  <circle cx="352" cy="275" r="7" fill="#2E5BFF"/>

  <rect x="72" y="298" width="320" height="1.5" fill="url(#accentH)" opacity="0.7"/>
  <text x="72" y="328" font-family="Inter,sans-serif" font-size="15" font-weight="300" fill="rgba(181,212,244,0.85)">What&#x2019;s changed and when it hits</text>
  <text x="72" y="348" font-family="Inter,sans-serif" font-size="15" font-weight="300" fill="rgba(181,212,244,0.85)">your portfolio.</text>

  <!-- Pills -->
  <rect x="72" y="374" width="168" height="28" rx="14" fill="rgba(46,91,255,0.18)" stroke="rgba(46,91,255,0.6)" stroke-width="1"/>
  <text x="156" y="393" text-anchor="middle" font-family="Inter,sans-serif" font-size="11" font-weight="600" fill="#85B7EB">Feb 13 fire safety</text>
  <rect x="250" y="374" width="158" height="28" rx="14" fill="rgba(0,255,194,0.1)" stroke="rgba(0,255,194,0.5)" stroke-width="1"/>
  <text x="329" y="393" text-anchor="middle" font-family="Inter,sans-serif" font-size="11" font-weight="600" fill="#00FFC2">Apr 1 capital works</text>
  <rect x="72" y="412" width="182" height="28" rx="14" fill="rgba(46,91,255,0.15)" stroke="rgba(46,91,255,0.5)" stroke-width="1"/>
  <text x="163" y="431" text-anchor="middle" font-family="Inter,sans-serif" font-size="11" font-weight="600" fill="#85B7EB">2032 Olympics QLD surge</text>

  <!-- Slim timeline -->
  <line x1="0" y1="544" x2="1200" y2="544" stroke="#0C447C" stroke-width="1" opacity="0.6"/>
  <rect x="72" y="558" width="1076" height="3" rx="1.5" fill="#0C447C" opacity="0.8"/>
  <rect x="72" y="558" width="1076" height="3" rx="1.5" fill="url(#timelineG)" opacity="0.65"/>
  <circle cx="72" cy="559" r="6" fill="#2E5BFF"/>
  <text x="84" y="555" font-family="Inter,sans-serif" font-size="9" font-weight="600" fill="#B5D4F4">Jan 1</text>
  <text x="84" y="570" font-family="Inter,sans-serif" font-size="9" font-weight="300" fill="#64748B">NSW insurance ban</text>
  <circle cx="310" cy="559" r="6" fill="#185FA5"/>
  <text x="322" y="555" font-family="Inter,sans-serif" font-size="9" font-weight="600" fill="#B5D4F4">Feb 13</text>
  <text x="322" y="570" font-family="Inter,sans-serif" font-size="9" font-weight="300" fill="#64748B">NSW fire safety live</text>
  <circle cx="590" cy="559" r="8" fill="url(#accentV)"/>
  <text x="604" y="555" font-family="Inter,sans-serif" font-size="9" font-weight="700" fill="#2E5BFF">Apr 1 &#x2014; Capital works deadline</text>
  <text x="604" y="570" font-family="Inter,sans-serif" font-size="9" font-weight="300" fill="#64748B">NSW standard form mandatory</text>
  <circle cx="1000" cy="559" r="6" fill="#00FFC2"/>
  <text x="990" y="555" text-anchor="end" font-family="Inter,sans-serif" font-size="9" font-weight="600" fill="#B5D4F4">Q3&#x2013;Q4 2026</text>
  <text x="990" y="570" text-anchor="end" font-family="Inter,sans-serif" font-size="9" font-weight="300" fill="#64748B">Committee training &amp; VIC energy</text>

  </g>
</svg>
