<svg width="1200" height="630" viewBox="0 0 1200 630" xmlns="http://www.w3.org/2000/svg">
  <defs>
    <linearGradient id="sky" x1="0" y1="0" x2="0" y2="1">
      <stop offset="0%" stop-color="#020d1f"/>
      <stop offset="40%" stop-color="#042C53"/>
      <stop offset="75%" stop-color="#0C447C"/>
      <stop offset="100%" stop-color="#185FA5"/>
    </linearGradient>
    <linearGradient id="ground" x1="0" y1="0" x2="0" y2="1">
      <stop offset="0%" stop-color="#021626"/>
      <stop offset="100%" stop-color="#010a14"/>
    </linearGradient>
    <linearGradient id="bldA" x1="0" y1="0" x2="0" y2="1">
      <stop offset="0%" stop-color="#0C447C"/>
      <stop offset="100%" stop-color="#020d1f"/>
    </linearGradient>
    <linearGradient id="bldB" x1="0" y1="0" x2="0" y2="1">
      <stop offset="0%" stop-color="#185FA5"/>
      <stop offset="100%" stop-color="#042C53"/>
    </linearGradient>
    <linearGradient id="bldC" x1="0" y1="0" x2="0" y2="1">
      <stop offset="0%" stop-color="#052e5c"/>
      <stop offset="100%" stop-color="#020d1f"/>
    </linearGradient>
    <linearGradient id="accentV" x1="0" y1="0" x2="0" y2="1">
      <stop offset="0%" stop-color="#2E5BFF"/>
      <stop offset="100%" stop-color="#00FFC2"/>
    </linearGradient>
    <linearGradient id="accentH" x1="0" y1="0" x2="1" y2="0">
      <stop offset="0%" stop-color="#00FFC2"/>
      <stop offset="100%" stop-color="#00FFC2" stop-opacity="0"/>
    </linearGradient>
    <linearGradient id="timelineG" x1="0" y1="0" x2="1" y2="0">
      <stop offset="0%" stop-color="#2E5BFF"/>
      <stop offset="100%" stop-color="#00FFC2"/>
    </linearGradient>
    <linearGradient id="panelG" x1="0" y1="0" x2="0" y2="1">
      <stop offset="0%" stop-color="#0C447C" stop-opacity="0.55"/>
      <stop offset="100%" stop-color="#042C53" stop-opacity="0.85"/>
    </linearGradient>
    <linearGradient id="hypeG" x1="0" y1="0" x2="0" y2="1">
      <stop offset="0%" stop-color="#64748B" stop-opacity="0.5"/>
      <stop offset="100%" stop-color="#334155" stop-opacity="0.3"/>
    </linearGradient>
    <linearGradient id="realG" x1="0" y1="0" x2="0" y2="1">
      <stop offset="0%" stop-color="#2E5BFF" stop-opacity="0.4"/>
      <stop offset="100%" stop-color="#0C447C" stop-opacity="0.6"/>
    </linearGradient>
    <!-- Neural net glow -->
    <radialGradient id="nodeGlow" cx="50%" cy="50%" r="50%">
      <stop offset="0%" stop-color="#2E5BFF" stop-opacity="0.9"/>
      <stop offset="100%" stop-color="#2E5BFF" stop-opacity="0"/>
    </radialGradient>
    <clipPath id="mainClip"><rect width="1200" height="630"/></clipPath>
  </defs>

  <g clip-path="url(#mainClip)">

  <rect width="1200" height="630" fill="url(#sky)"/>

  <!-- Grid -->
  <g stroke="#2E5BFF" stroke-width="0.5" opacity="0.05">
    <line x1="0" y1="126" x2="1200" y2="126"/><line x1="0" y1="252" x2="1200" y2="252"/>
    <line x1="0" y1="378" x2="1200" y2="378"/><line x1="0" y1="504" x2="1200" y2="504"/>
    <line x1="200" y1="0" x2="200" y2="630"/><line x1="400" y1="0" x2="400" y2="630"/>
    <line x1="600" y1="0" x2="600" y2="630"/><line x1="800" y1="0" x2="800" y2="630"/>
    <line x1="1000" y1="0" x2="1000" y2="630"/>
  </g>

  <ellipse cx="600" cy="200" rx="500" ry="300" fill="#2E5BFF" opacity="0.07"/>

  <!-- Ground -->
  <rect x="0" y="580" width="1200" height="50" fill="url(#ground)"/>
  <line x1="0" y1="580" x2="1200" y2="580" stroke="#2E5BFF" stroke-width="0.8" opacity="0.3"/>

  <!-- Distant buildings -->
  <rect x="700" y="400" width="28" height="180" fill="#042C53" opacity="0.55"/>
  <rect x="742" y="375" width="36" height="205" fill="#042C53" opacity="0.5"/>
  <rect x="792" y="355" width="42" height="225" fill="#052e5c" opacity="0.55"/>

  <!-- Main tall building -->
  <rect x="850" y="68" width="165" height="512" fill="url(#bldA)" rx="2"/>
  <rect x="850" y="68" width="165" height="512" fill="none" stroke="#378ADD" stroke-width="0.7" opacity="0.2"/>
  <line x1="893" y1="68" x2="893" y2="580" stroke="#378ADD" stroke-width="0.5" opacity="0.18"/>
  <line x1="936" y1="68" x2="936" y2="580" stroke="#378ADD" stroke-width="0.5" opacity="0.18"/>
  <line x1="979" y1="68" x2="979" y2="580" stroke="#378ADD" stroke-width="0.5" opacity="0.18"/>
  <g stroke="#378ADD" stroke-width="0.4" opacity="0.12">
    <line x1="850" y1="106" x2="1015" y2="106"/><line x1="850" y1="144" x2="1015" y2="144"/>
    <line x1="850" y1="182" x2="1015" y2="182"/><line x1="850" y1="220" x2="1015" y2="220"/>
    <line x1="850" y1="258" x2="1015" y2="258"/><line x1="850" y1="296" x2="1015" y2="296"/>
    <line x1="850" y1="334" x2="1015" y2="334"/><line x1="850" y1="372" x2="1015" y2="372"/>
    <line x1="850" y1="410" x2="1015" y2="410"/><line x1="850" y1="448" x2="1015" y2="448"/>
    <line x1="850" y1="486" x2="1015" y2="486"/><line x1="850" y1="524" x2="1015" y2="524"/>
    <line x1="850" y1="562" x2="1015" y2="562"/>
  </g>
  <g opacity="0.38">
    <rect x="856" y="76" width="30" height="24" rx="1" fill="#2E5BFF" opacity="0.2"/>
    <rect x="898" y="76" width="30" height="24" rx="1" fill="#00FFC2" opacity="0.15"/>
    <rect x="941" y="76" width="30" height="24" rx="1" fill="#2E5BFF" opacity="0.18"/>
    <rect x="982" y="76" width="25" height="24" rx="1" fill="#B5D4F4" opacity="0.12"/>
    <rect x="856" y="114" width="30" height="24" rx="1" fill="#B5D4F4" opacity="0.1"/>
    <rect x="898" y="114" width="30" height="24" rx="1" fill="#2E5BFF" opacity="0.2"/>
    <rect x="941" y="114" width="30" height="24" rx="1" fill="#00FFC2" opacity="0.12"/>
    <rect x="982" y="114" width="25" height="24" rx="1" fill="#2E5BFF" opacity="0.18"/>
    <rect x="856" y="152" width="30" height="24" rx="1" fill="#2E5BFF" opacity="0.18"/>
    <rect x="898" y="152" width="30" height="24" rx="1" fill="#B5D4F4" opacity="0.12"/>
    <rect x="941" y="152" width="30" height="24" rx="1" fill="#2E5BFF" opacity="0.2"/>
    <rect x="982" y="152" width="25" height="24" rx="1" fill="#00FFC2" opacity="0.12"/>
    <rect x="856" y="190" width="30" height="24" rx="1" fill="#00FFC2" opacity="0.12"/>
    <rect x="898" y="190" width="30" height="24" rx="1" fill="#2E5BFF" opacity="0.2"/>
    <rect x="941" y="190" width="30" height="24" rx="1" fill="#B5D4F4" opacity="0.12"/>
    <rect x="982" y="190" width="25" height="24" rx="1" fill="#2E5BFF" opacity="0.18"/>
    <rect x="856" y="228" width="30" height="24" rx="1" fill="#2E5BFF" opacity="0.15"/>
    <rect x="898" y="228" width="30" height="24" rx="1" fill="#00FFC2" opacity="0.12"/>
    <rect x="941" y="228" width="30" height="24" rx="1" fill="#2E5BFF" opacity="0.2"/>
    <rect x="982" y="228" width="25" height="24" rx="1" fill="#B5D4F4" opacity="0.1"/>
    <rect x="856" y="266" width="30" height="24" rx="1" fill="#B5D4F4" opacity="0.1"/>
    <rect x="898" y="266" width="30" height="24" rx="1" fill="#2E5BFF" opacity="0.18"/>
    <rect x="941" y="266" width="30" height="24" rx="1" fill="#00FFC2" opacity="0.12"/>
    <rect x="982" y="266" width="25" height="24" rx="1" fill="#2E5BFF" opacity="0.2"/>
    <rect x="856" y="304" width="30" height="24" rx="1" fill="#2E5BFF" opacity="0.2"/>
    <rect x="898" y="304" width="30" height="24" rx="1" fill="#B5D4F4" opacity="0.12"/>
    <rect x="941" y="304" width="30" height="24" rx="1" fill="#2E5BFF" opacity="0.18"/>
    <rect x="982" y="304" width="25" height="24" rx="1" fill="#00FFC2" opacity="0.12"/>
    <rect x="856" y="342" width="30" height="24" rx="1" fill="#00FFC2" opacity="0.12"/>
    <rect x="898" y="342" width="30" height="24" rx="1" fill="#2E5BFF" opacity="0.2"/>
    <rect x="941" y="342" width="30" height="24" rx="1" fill="#B5D4F4" opacity="0.1"/>
    <rect x="982" y="342" width="25" height="24" rx="1" fill="#2E5BFF" opacity="0.18"/>
    <rect x="856" y="380" width="30" height="24" rx="1" fill="#2E5BFF" opacity="0.18"/>
    <rect x="898" y="380" width="30" height="24" rx="1" fill="#00FFC2" opacity="0.12"/>
    <rect x="941" y="380" width="30" height="24" rx="1" fill="#2E5BFF" opacity="0.2"/>
    <rect x="982" y="380" width="25" height="24" rx="1" fill="#B5D4F4" opacity="0.1"/>
    <rect x="856" y="418" width="30" height="24" rx="1" fill="#B5D4F4" opacity="0.1"/>
    <rect x="898" y="418" width="30" height="24" rx="1" fill="#2E5BFF" opacity="0.2"/>
    <rect x="941" y="418" width="30" height="24" rx="1" fill="#00FFC2" opacity="0.12"/>
    <rect x="982" y="418" width="25" height="24" rx="1" fill="#2E5BFF" opacity="0.18"/>
    <rect x="856" y="456" width="30" height="24" rx="1" fill="#2E5BFF" opacity="0.2"/>
    <rect x="898" y="456" width="30" height="24" rx="1" fill="#B5D4F4" opacity="0.12"/>
    <rect x="941" y="456" width="30" height="24" rx="1" fill="#2E5BFF" opacity="0.18"/>
    <rect x="982" y="456" width="25" height="24" rx="1" fill="#00FFC2" opacity="0.12"/>
    <rect x="856" y="494" width="30" height="24" rx="1" fill="#00FFC2" opacity="0.12"/>
    <rect x="898" y="494" width="30" height="24" rx="1" fill="#2E5BFF" opacity="0.2"/>
    <rect x="941" y="494" width="30" height="24" rx="1" fill="#B5D4F4" opacity="0.1"/>
    <rect x="982" y="494" width="25" height="24" rx="1" fill="#2E5BFF" opacity="0.18"/>
    <rect x="856" y="532" width="30" height="24" rx="1" fill="#2E5BFF" opacity="0.18"/>
    <rect x="898" y="532" width="30" height="24" rx="1" fill="#00FFC2" opacity="0.12"/>
    <rect x="941" y="532" width="30" height="24" rx="1" fill="#2E5BFF" opacity="0.2"/>
    <rect x="982" y="532" width="25" height="24" rx="1" fill="#B5D4F4" opacity="0.1"/>
  </g>

  <!-- Secondary right building -->
  <rect x="1030" y="160" width="105" height="420" fill="url(#bldB)" rx="2"/>
  <rect x="1030" y="160" width="105" height="420" fill="none" stroke="#378ADD" stroke-width="0.6" opacity="0.18"/>
  <line x1="1063" y1="160" x2="1063" y2="580" stroke="#378ADD" stroke-width="0.4" opacity="0.15"/>
  <line x1="1100" y1="160" x2="1100" y2="580" stroke="#378ADD" stroke-width="0.4" opacity="0.15"/>
  <g stroke="#378ADD" stroke-width="0.3" opacity="0.1">
    <line x1="1030" y1="196" x2="1135" y2="196"/><line x1="1030" y1="232" x2="1135" y2="232"/>
    <line x1="1030" y1="268" x2="1135" y2="268"/><line x1="1030" y1="304" x2="1135" y2="304"/>
    <line x1="1030" y1="340" x2="1135" y2="340"/><line x1="1030" y1="376" x2="1135" y2="376"/>
    <line x1="1030" y1="412" x2="1135" y2="412"/>
  </g>
  <g opacity="0.3">
    <rect x="1036" y="170" width="20" height="16" rx="1" fill="#2E5BFF" opacity="0.2"/>
    <rect x="1068" y="170" width="20" height="16" rx="1" fill="#00FFC2" opacity="0.15"/>
    <rect x="1106" y="170" width="20" height="16" rx="1" fill="#2E5BFF" opacity="0.2"/>
    <rect x="1036" y="202" width="20" height="16" rx="1" fill="#00FFC2" opacity="0.12"/>
    <rect x="1068" y="202" width="20" height="16" rx="1" fill="#2E5BFF" opacity="0.22"/>
    <rect x="1106" y="202" width="20" height="16" rx="1" fill="#B5D4F4" opacity="0.15"/>
    <rect x="1036" y="234" width="20" height="16" rx="1" fill="#2E5BFF" opacity="0.2"/>
    <rect x="1068" y="234" width="20" height="16" rx="1" fill="#B5D4F4" opacity="0.12"/>
    <rect x="1106" y="234" width="20" height="16" rx="1" fill="#00FFC2" opacity="0.12"/>
  </g>
  <rect x="1148" y="225" width="75" height="355" fill="url(#bldC)" rx="2"/>
  <rect x="1148" y="225" width="75" height="355" fill="none" stroke="#378ADD" stroke-width="0.5" opacity="0.15"/>

  <!-- ═══════════════════════════════════════════════
       ILLUSTRATION: HYPE vs REALITY SPLIT PANEL
  ═══════════════════════════════════════════════ -->

  <!-- Panel outer frame -->
  <rect x="652" y="100" width="186" height="310" rx="8" fill="url(#panelG)"/>
  <rect x="652" y="100" width="186" height="310" rx="8" fill="none" stroke="#2E5BFF" stroke-width="1" opacity="0.4"/>

  <!-- Header -->
  <rect x="652" y="100" width="186" height="30" rx="8" fill="#0C447C" opacity="0.95"/>
  <rect x="652" y="118" width="186" height="12" fill="#0C447C" opacity="0.95"/>
  <text x="745" y="119" text-anchor="middle" font-family="Inter,sans-serif" font-size="9" font-weight="600" fill="#85B7EB" letter-spacing="1.5">AI IN STRATA 2026</text>

  <!-- Divider between hype/reality columns -->
  <line x1="745" y1="132" x2="745" y2="410" stroke="#2E5BFF" stroke-width="0.6" stroke-dasharray="3 3" opacity="0.35"/>

  <!-- HYPE column header -->
  <text x="698" y="150" text-anchor="middle" font-family="Inter,sans-serif" font-size="8" font-weight="600" fill="#64748B" letter-spacing="1">HYPE</text>
  <!-- Strikethrough line on HYPE -->
  <line x1="672" y1="147" x2="724" y2="147" stroke="#64748B" stroke-width="0.8" opacity="0.5"/>

  <!-- REALITY column header -->
  <text x="792" y="150" text-anchor="middle" font-family="Inter,sans-serif" font-size="8" font-weight="600" fill="#00FFC2" letter-spacing="1">REALITY</text>

  <!-- Row 1: Full automation -->
  <rect x="658" y="157" width="82" height="26" rx="3" fill="#334155" fill-opacity="0.5"/>
  <text x="699" y="167" text-anchor="middle" font-family="Inter,sans-serif" font-size="7" font-weight="400" fill="#64748B">Full automation</text>
  <text x="699" y="178" text-anchor="middle" font-family="Inter,sans-serif" font-size="7" font-weight="400" fill="#64748B">no humans</text>
  <!-- X mark -->
  <line x1="726" y1="161" x2="733" y2="168" stroke="#64748B" stroke-width="1.5" stroke-linecap="round" opacity="0.6"/>
  <line x1="733" y1="161" x2="726" y2="168" stroke="#64748B" stroke-width="1.5" stroke-linecap="round" opacity="0.6"/>

  <rect x="752" y="157" width="80" height="26" rx="3" fill="#2E5BFF" fill-opacity="0.2" stroke="#2E5BFF" stroke-width="0.6" stroke-opacity="0.4"/>
  <text x="792" y="167" text-anchor="middle" font-family="Inter,sans-serif" font-size="7" font-weight="600" fill="#85B7EB">AI-assisted</text>
  <text x="792" y="178" text-anchor="middle" font-family="Inter,sans-serif" font-size="7" font-weight="300" fill="#64748B">humans review</text>
  <!-- Check mark -->
  <polyline points="827,162 830,166 836,159" stroke="#00FFC2" stroke-width="1.5" stroke-linecap="round" stroke-linejoin="round" fill="none" opacity="0.8"/>

  <!-- Row 2: Fewer staff -->
  <rect x="658" y="191" width="82" height="26" rx="3" fill="#334155" fill-opacity="0.4"/>
  <text x="699" y="201" text-anchor="middle" font-family="Inter,sans-serif" font-size="7" font-weight="400" fill="#64748B">AI eliminates</text>
  <text x="699" y="212" text-anchor="middle" font-family="Inter,sans-serif" font-size="7" font-weight="400" fill="#64748B">staff needs</text>
  <line x1="726" y1="195" x2="733" y2="202" stroke="#64748B" stroke-width="1.5" stroke-linecap="round" opacity="0.6"/>
  <line x1="733" y1="195" x2="726" y2="202" stroke="#64748B" stroke-width="1.5" stroke-linecap="round" opacity="0.6"/>

  <rect x="752" y="191" width="80" height="26" rx="3" fill="#2E5BFF" fill-opacity="0.18" stroke="#2E5BFF" stroke-width="0.6" stroke-opacity="0.4"/>
  <text x="792" y="201" text-anchor="middle" font-family="Inter,sans-serif" font-size="7" font-weight="600" fill="#85B7EB">Same team,</text>
  <text x="792" y="212" text-anchor="middle" font-family="Inter,sans-serif" font-size="7" font-weight="300" fill="#64748B">more buildings</text>
  <polyline points="827,196 830,200 836,193" stroke="#00FFC2" stroke-width="1.5" stroke-linecap="round" stroke-linejoin="round" fill="none" opacity="0.8"/>

  <!-- Row 3: AI reads regs -->
  <rect x="658" y="225" width="82" height="26" rx="3" fill="#334155" fill-opacity="0.35"/>
  <text x="699" y="235" text-anchor="middle" font-family="Inter,sans-serif" font-size="7" font-weight="400" fill="#64748B">AI interprets</text>
  <text x="699" y="246" text-anchor="middle" font-family="Inter,sans-serif" font-size="7" font-weight="400" fill="#64748B">regulations</text>
  <line x1="726" y1="229" x2="733" y2="236" stroke="#64748B" stroke-width="1.5" stroke-linecap="round" opacity="0.6"/>
  <line x1="733" y1="229" x2="726" y2="236" stroke="#64748B" stroke-width="1.5" stroke-linecap="round" opacity="0.6"/>

  <rect x="752" y="225" width="80" height="26" rx="3" fill="#2E5BFF" fill-opacity="0.15" stroke="#2E5BFF" stroke-width="0.6" stroke-opacity="0.4"/>
  <text x="792" y="235" text-anchor="middle" font-family="Inter,sans-serif" font-size="7" font-weight="600" fill="#85B7EB">Rule-based</text>
  <text x="792" y="246" text-anchor="middle" font-family="Inter,sans-serif" font-size="7" font-weight="300" fill="#64748B">alerts &amp; flags</text>
  <polyline points="827,230 830,234 836,227" stroke="#00FFC2" stroke-width="1.5" stroke-linecap="round" stroke-linejoin="round" fill="none" opacity="0.8"/>

  <!-- Row 4: Self-learning -->
  <rect x="658" y="259" width="82" height="26" rx="3" fill="#334155" fill-opacity="0.3"/>
  <text x="699" y="269" text-anchor="middle" font-family="Inter,sans-serif" font-size="7" font-weight="400" fill="#64748B">AI learns your</text>
  <text x="699" y="280" text-anchor="middle" font-family="Inter,sans-serif" font-size="7" font-weight="400" fill="#64748B">business</text>
  <line x1="726" y1="263" x2="733" y2="270" stroke="#64748B" stroke-width="1.5" stroke-linecap="round" opacity="0.6"/>
  <line x1="733" y1="263" x2="726" y2="270" stroke="#64748B" stroke-width="1.5" stroke-linecap="round" opacity="0.6"/>

  <rect x="752" y="259" width="80" height="26" rx="3" fill="#2E5BFF" fill-opacity="0.15" stroke="#2E5BFF" stroke-width="0.6" stroke-opacity="0.4"/>
  <text x="792" y="269" text-anchor="middle" font-family="Inter,sans-serif" font-size="7" font-weight="600" fill="#85B7EB">OCR · Compliance</text>
  <text x="792" y="280" text-anchor="middle" font-family="Inter,sans-serif" font-size="7" font-weight="300" fill="#64748B">Predictive alerts</text>
  <polyline points="827,264 830,268 836,261" stroke="#00FFC2" stroke-width="1.5" stroke-linecap="round" stroke-linejoin="round" fill="none" opacity="0.8"/>

  <!-- Row 5: Invoice entry -->
  <rect x="658" y="293" width="82" height="26" rx="3" fill="#334155" fill-opacity="0.25"/>
  <text x="699" y="303" text-anchor="middle" font-family="Inter,sans-serif" font-size="7" font-weight="400" fill="#64748B">Zero manual</text>
  <text x="699" y="314" text-anchor="middle" font-family="Inter,sans-serif" font-size="7" font-weight="400" fill="#64748B">data entry</text>
  <line x1="726" y1="297" x2="733" y2="304" stroke="#64748B" stroke-width="1.5" stroke-linecap="round" opacity="0.6"/>
  <line x1="733" y1="297" x2="726" y2="304" stroke="#64748B" stroke-width="1.5" stroke-linecap="round" opacity="0.6"/>

  <rect x="752" y="293" width="80" height="26" rx="3" fill="#00FFC2" fill-opacity="0.1" stroke="#00FFC2" stroke-width="0.6" stroke-opacity="0.4"/>
  <text x="792" y="303" text-anchor="middle" font-family="Inter,sans-serif" font-size="7" font-weight="600" fill="#00FFC2">85-95% OCR</text>
  <text x="792" y="314" text-anchor="middle" font-family="Inter,sans-serif" font-size="7" font-weight="300" fill="#64748B">+ human check</text>
  <polyline points="827,298 830,302 836,295" stroke="#00FFC2" stroke-width="1.5" stroke-linecap="round" stroke-linejoin="round" fill="none" opacity="0.8"/>

  <!-- Action badge -->
  <rect x="652" y="418" width="186" height="30" rx="6" fill="#2E5BFF"/>
  <text x="745" y="438" text-anchor="middle" font-family="Inter,sans-serif" font-size="10" font-weight="600" fill="white" letter-spacing="1">AI-ASSISTED · NOT AUTOMATED</text>

  <!-- ═══════════════════════════════════════════════
       NEURAL NODE BADGE — replaces QS/clock circle
  ═══════════════════════════════════════════════ -->
  <circle cx="615" cy="285" r="48" fill="#042C53" opacity="0.9"/>
  <circle cx="615" cy="285" r="48" fill="none" stroke="url(#accentV)" stroke-width="2.5"/>
  <circle cx="615" cy="285" r="40" fill="none" stroke="rgba(46,91,255,0.18)" stroke-width="1"/>

  <!-- Neural network motif: 3 layers of nodes with connecting lines -->
  <!-- Layer 1 (input) — 2 nodes left -->
  <circle cx="588" cy="272" r="5" fill="#2E5BFF" opacity="0.8"/>
  <circle cx="588" cy="298" r="5" fill="#2E5BFF" opacity="0.8"/>
  <!-- Layer 2 (hidden) — 3 nodes centre -->
  <circle cx="615" cy="262" r="5" fill="#2E5BFF" opacity="0.9"/>
  <circle cx="615" cy="285" r="6" fill="#00FFC2" opacity="0.9"/>
  <circle cx="615" cy="308" r="5" fill="#2E5BFF" opacity="0.9"/>
  <!-- Layer 3 (output) — 2 nodes right -->
  <circle cx="642" cy="272" r="5" fill="#00FFC2" opacity="0.8"/>
  <circle cx="642" cy="298" r="5" fill="#00FFC2" opacity="0.8"/>
  <!-- Connections L1→L2 -->
  <line x1="593" y1="272" x2="610" y2="262" stroke="#2E5BFF" stroke-width="0.8" opacity="0.4"/>
  <line x1="593" y1="272" x2="610" y2="285" stroke="#2E5BFF" stroke-width="0.8" opacity="0.4"/>
  <line x1="593" y1="272" x2="610" y2="308" stroke="#2E5BFF" stroke-width="0.8" opacity="0.3"/>
  <line x1="593" y1="298" x2="610" y2="262" stroke="#2E5BFF" stroke-width="0.8" opacity="0.3"/>
  <line x1="593" y1="298" x2="610" y2="285" stroke="#2E5BFF" stroke-width="0.8" opacity="0.4"/>
  <line x1="593" y1="298" x2="610" y2="308" stroke="#2E5BFF" stroke-width="0.8" opacity="0.4"/>
  <!-- Connections L2→L3 -->
  <line x1="621" y1="262" x2="637" y2="272" stroke="#00FFC2" stroke-width="0.8" opacity="0.4"/>
  <line x1="621" y1="262" x2="637" y2="298" stroke="#00FFC2" stroke-width="0.8" opacity="0.3"/>
  <line x1="621" y1="285" x2="637" y2="272" stroke="#00FFC2" stroke-width="0.8" opacity="0.5"/>
  <line x1="621" y1="285" x2="637" y2="298" stroke="#00FFC2" stroke-width="0.8" opacity="0.5"/>
  <line x1="621" y1="308" x2="637" y2="272" stroke="#00FFC2" stroke-width="0.8" opacity="0.3"/>
  <line x1="621" y1="308" x2="637" y2="298" stroke="#00FFC2" stroke-width="0.8" opacity="0.4"/>

  <text x="615" y="328" text-anchor="middle" font-family="Inter,sans-serif" font-size="7" font-weight="300" fill="#00FFC2" letter-spacing="1.5">AI-ASSISTED</text>

  <!-- ═══════════════════════════════════════════════
       STAT CARDS — bottom right
  ═══════════════════════════════════════════════ -->
  <rect x="840" y="420" width="160" height="62" rx="5" fill="#0C447C" fill-opacity="0.4" stroke="#2E5BFF" stroke-width="0.8" stroke-opacity="0.35"/>
  <rect x="840" y="420" width="3" height="62" fill="#2E5BFF"/>
  <text x="858" y="445" font-family="Inter,sans-serif" font-size="22" font-weight="600" fill="#E6F1FB">85&#x2013;95%</text>
  <text x="858" y="461" font-family="Inter,sans-serif" font-size="10" font-weight="300" fill="#85B7EB">OCR document</text>
  <text x="858" y="474" font-family="Inter,sans-serif" font-size="10" font-weight="300" fill="#64748B">accuracy today</text>

  <rect x="1012" y="420" width="152" height="62" rx="5" fill="#0C447C" fill-opacity="0.4" stroke="#00FFC2" stroke-width="0.8" stroke-opacity="0.4"/>
  <rect x="1012" y="420" width="3" height="62" fill="#00FFC2"/>
  <text x="1030" y="445" font-family="Inter,sans-serif" font-size="22" font-weight="600" fill="#E6F1FB">&#x2153; less<tspan font-size="14" font-weight="300" fill="#85B7EB"></tspan></text>
  <text x="1030" y="461" font-family="Inter,sans-serif" font-size="10" font-weight="300" fill="#85B7EB">invoice processing</text>
  <text x="1030" y="474" font-family="Inter,sans-serif" font-size="10" font-weight="300" fill="#64748B">time with AI assist</text>

  <!-- Left accent bar -->
  <rect x="0" y="0" width="6" height="630" fill="url(#accentV)"/>

  <!-- Eyebrow -->
  <text x="72" y="58" font-family="Inter,sans-serif" font-size="13" font-weight="400" fill="rgba(133,183,235,0.75)" letter-spacing="2.5">THE STRATA EDIT  &#xB7;  TECHNOLOGY &amp; THE FUTURE</text>
  <rect x="72" y="70" width="280" height="1" fill="url(#accentH)" opacity="0.5"/>

  <!-- Headline -->
  <text font-family="Inter,sans-serif" fill="#E6F1FB">
    <tspan x="72" y="148" font-size="58" font-weight="300" letter-spacing="-1">AI in Strata</tspan>
    <tspan x="72" dy="68" font-size="58" font-weight="300" letter-spacing="-1">Management.</tspan>
    <tspan x="72" dy="68" font-size="58" font-weight="700" letter-spacing="-1" fill="#00FFC2">Hype vs Reality</tspan>
    <tspan x="72" dy="68" font-size="58" font-weight="700" letter-spacing="-1" fill="#00FFC2">in 2026.</tspan>
  </text>
  <circle cx="450" cy="352" r="7" fill="#2E5BFF"/>

  <!-- Divider -->
  <rect x="72" y="376" width="320" height="1.5" fill="url(#accentH)" opacity="0.7"/>

  <!-- Subhead -->
  <text x="72" y="406" font-family="Inter,sans-serif" font-size="15" font-weight="300" fill="rgba(181,212,244,0.85)">Where AI actually delivers &#x2014;</text>
  <text x="72" y="426" font-family="Inter,sans-serif" font-size="15" font-weight="300" fill="rgba(181,212,244,0.85)">and where vendors are overselling.</text>

  <!-- Stat pills -->
  <rect x="72" y="452" width="172" height="28" rx="14" fill="rgba(46,91,255,0.18)" stroke="rgba(46,91,255,0.6)" stroke-width="1"/>
  <text x="158" y="471" text-anchor="middle" font-family="Inter,sans-serif" font-size="11" font-weight="600" fill="#85B7EB">Real wins: OCR &#x26; alerts</text>
  <rect x="254" y="452" width="168" height="28" rx="14" fill="rgba(0,255,194,0.1)" stroke="rgba(0,255,194,0.5)" stroke-width="1"/>
  <text x="338" y="471" text-anchor="middle" font-family="Inter,sans-serif" font-size="11" font-weight="600" fill="#00FFC2">Still needs humans</text>
  <rect x="72" y="490" width="188" height="28" rx="14" fill="rgba(46,91,255,0.15)" stroke="rgba(46,91,255,0.5)" stroke-width="1"/>
  <text x="166" y="509" text-anchor="middle" font-family="Inter,sans-serif" font-size="11" font-weight="600" fill="#85B7EB">How to evaluate vendors</text>



  </g>
</svg>
