<svg width="1200" height="630" viewBox="0 0 1200 630" xmlns="http://www.w3.org/2000/svg">
  <defs>
    <linearGradient id="sky" x1="0" y1="0" x2="0" y2="1">
      <stop offset="0%" stop-color="#E6F1FB"/>
      <stop offset="55%" stop-color="#F0F7FF"/>
      <stop offset="100%" stop-color="#F8FAFC"/>
    </linearGradient>
    <linearGradient id="bldA" x1="0" y1="0" x2="0" y2="1">
      <stop offset="0%" stop-color="#D4E8FA"/>
      <stop offset="100%" stop-color="#85B7EB"/>
    </linearGradient>
    <linearGradient id="bldB" x1="0" y1="0" x2="0" y2="1">
      <stop offset="0%" stop-color="#B5D4F4"/>
      <stop offset="100%" stop-color="#378ADD"/>
    </linearGradient>
    <linearGradient id="bldC" x1="0" y1="0" x2="0" y2="1">
      <stop offset="0%" stop-color="#E6F1FB"/>
      <stop offset="100%" stop-color="#B5D4F4"/>
    </linearGradient>
    <linearGradient id="accentV" x1="0" y1="0" x2="0" y2="1">
      <stop offset="0%" stop-color="#2E5BFF"/>
      <stop offset="100%" stop-color="#00FFC2"/>
    </linearGradient>
    <linearGradient id="accentH" x1="0" y1="0" x2="1" y2="0">
      <stop offset="0%" stop-color="#2E5BFF"/>
      <stop offset="100%" stop-color="#2E5BFF" stop-opacity="0"/>
    </linearGradient>
    <linearGradient id="timelineG" x1="0" y1="0" x2="1" y2="0">
      <stop offset="0%" stop-color="#2E5BFF"/>
      <stop offset="100%" stop-color="#00FFC2"/>
    </linearGradient>
    <linearGradient id="docG" x1="0" y1="0" x2="0" y2="1">
      <stop offset="0%" stop-color="#FFFFFF"/>
      <stop offset="100%" stop-color="#E6F1FB"/>
    </linearGradient>
    <linearGradient id="badgeG" x1="0" y1="0" x2="0" y2="1">
      <stop offset="0%" stop-color="#2E5BFF"/>
      <stop offset="100%" stop-color="#185FA5"/>
    </linearGradient>
    <linearGradient id="ground" x1="0" y1="0" x2="0" y2="1">
      <stop offset="0%" stop-color="#B5D4F4"/>
      <stop offset="100%" stop-color="#85B7EB"/>
    </linearGradient>
    <!-- Staging bar gradients -->
    <linearGradient id="stgA" x1="0" y1="0" x2="1" y2="0">
      <stop offset="0%" stop-color="#2E5BFF"/>
      <stop offset="100%" stop-color="#4A7EFF"/>
    </linearGradient>
    <linearGradient id="stgB" x1="0" y1="0" x2="1" y2="0">
      <stop offset="0%" stop-color="#185FA5"/>
      <stop offset="100%" stop-color="#2E5BFF"/>
    </linearGradient>
    <linearGradient id="stgC" x1="0" y1="0" x2="1" y2="0">
      <stop offset="0%" stop-color="#00FFC2"/>
      <stop offset="100%" stop-color="#1D9E75"/>
    </linearGradient>
    <clipPath id="mainClip"><rect width="1200" height="630"/></clipPath>
  </defs>

  <g clip-path="url(#mainClip)">

  <rect width="1200" height="630" fill="url(#sky)"/>

  <!-- Grid -->
  <g stroke="#2E5BFF" stroke-width="0.4" opacity="0.05">
    <line x1="0" y1="126" x2="1200" y2="126"/><line x1="0" y1="252" x2="1200" y2="252"/>
    <line x1="0" y1="378" x2="1200" y2="378"/><line x1="0" y1="504" x2="1200" y2="504"/>
    <line x1="200" y1="0" x2="200" y2="630"/><line x1="400" y1="0" x2="400" y2="630"/>
    <line x1="600" y1="0" x2="600" y2="630"/><line x1="800" y1="0" x2="800" y2="630"/>
    <line x1="1000" y1="0" x2="1000" y2="630"/>
  </g>

  <ellipse cx="600" cy="480" rx="600" ry="200" fill="#2E5BFF" opacity="0.03"/>

  <!-- Ground -->
  <rect x="0" y="580" width="1200" height="50" fill="url(#ground)" opacity="0.3"/>
  <line x1="0" y1="580" x2="1200" y2="580" stroke="#185FA5" stroke-width="0.8" opacity="0.18"/>

  <!-- Distant buildings -->
  <rect x="700" y="400" width="28" height="180" fill="#D4E8FA" opacity="0.65"/>
  <rect x="742" y="375" width="36" height="205" fill="#B5D4F4" opacity="0.55"/>
  <rect x="792" y="355" width="42" height="225" fill="#D4E8FA" opacity="0.6"/>

  <!-- Main tall building -->
  <rect x="850" y="68" width="165" height="512" fill="url(#bldA)" rx="3"/>
  <rect x="850" y="68" width="165" height="512" fill="none" stroke="#378ADD" stroke-width="0.9" opacity="0.25"/>
  <line x1="893" y1="68" x2="893" y2="580" stroke="#378ADD" stroke-width="0.5" opacity="0.2"/>
  <line x1="936" y1="68" x2="936" y2="580" stroke="#378ADD" stroke-width="0.5" opacity="0.2"/>
  <line x1="979" y1="68" x2="979" y2="580" stroke="#378ADD" stroke-width="0.5" opacity="0.2"/>
  <g stroke="#378ADD" stroke-width="0.4" opacity="0.15">
    <line x1="850" y1="106" x2="1015" y2="106"/><line x1="850" y1="144" x2="1015" y2="144"/>
    <line x1="850" y1="182" x2="1015" y2="182"/><line x1="850" y1="220" x2="1015" y2="220"/>
    <line x1="850" y1="258" x2="1015" y2="258"/><line x1="850" y1="296" x2="1015" y2="296"/>
    <line x1="850" y1="334" x2="1015" y2="334"/><line x1="850" y1="372" x2="1015" y2="372"/>
    <line x1="850" y1="410" x2="1015" y2="410"/><line x1="850" y1="448" x2="1015" y2="448"/>
    <line x1="850" y1="486" x2="1015" y2="486"/><line x1="850" y1="524" x2="1015" y2="524"/>
    <line x1="850" y1="562" x2="1015" y2="562"/>
  </g>
  <g opacity="0.42">
    <rect x="856" y="76" width="30" height="24" rx="1" fill="#2E5BFF" opacity="0.13"/>
    <rect x="898" y="76" width="30" height="24" rx="1" fill="#2E5BFF" opacity="0.18"/>
    <rect x="941" y="76" width="30" height="24" rx="1" fill="#00FFC2" opacity="0.1"/>
    <rect x="982" y="76" width="25" height="24" rx="1" fill="#2E5BFF" opacity="0.13"/>
    <rect x="856" y="114" width="30" height="24" rx="1" fill="#00FFC2" opacity="0.09"/>
    <rect x="898" y="114" width="30" height="24" rx="1" fill="#2E5BFF" opacity="0.15"/>
    <rect x="941" y="114" width="30" height="24" rx="1" fill="#2E5BFF" opacity="0.1"/>
    <rect x="982" y="114" width="25" height="24" rx="1" fill="#00FFC2" opacity="0.09"/>
    <rect x="856" y="152" width="30" height="24" rx="1" fill="#2E5BFF" opacity="0.15"/>
    <rect x="898" y="152" width="30" height="24" rx="1" fill="#2E5BFF" opacity="0.1"/>
    <rect x="941" y="152" width="30" height="24" rx="1" fill="#00FFC2" opacity="0.1"/>
    <rect x="982" y="152" width="25" height="24" rx="1" fill="#2E5BFF" opacity="0.13"/>
    <rect x="856" y="190" width="30" height="24" rx="1" fill="#2E5BFF" opacity="0.1"/>
    <rect x="898" y="190" width="30" height="24" rx="1" fill="#00FFC2" opacity="0.09"/>
    <rect x="941" y="190" width="30" height="24" rx="1" fill="#2E5BFF" opacity="0.15"/>
    <rect x="982" y="190" width="25" height="24" rx="1" fill="#2E5BFF" opacity="0.1"/>
    <rect x="856" y="228" width="30" height="24" rx="1" fill="#00FFC2" opacity="0.09"/>
    <rect x="898" y="228" width="30" height="24" rx="1" fill="#2E5BFF" opacity="0.18"/>
    <rect x="941" y="228" width="30" height="24" rx="1" fill="#2E5BFF" opacity="0.1"/>
    <rect x="982" y="228" width="25" height="24" rx="1" fill="#00FFC2" opacity="0.09"/>
    <rect x="856" y="266" width="30" height="24" rx="1" fill="#2E5BFF" opacity="0.15"/>
    <rect x="898" y="266" width="30" height="24" rx="1" fill="#00FFC2" opacity="0.09"/>
    <rect x="941" y="266" width="30" height="24" rx="1" fill="#2E5BFF" opacity="0.13"/>
    <rect x="982" y="266" width="25" height="24" rx="1" fill="#2E5BFF" opacity="0.1"/>
    <rect x="856" y="304" width="30" height="24" rx="1" fill="#2E5BFF" opacity="0.1"/>
    <rect x="898" y="304" width="30" height="24" rx="1" fill="#2E5BFF" opacity="0.15"/>
    <rect x="941" y="304" width="30" height="24" rx="1" fill="#00FFC2" opacity="0.09"/>
    <rect x="982" y="304" width="25" height="24" rx="1" fill="#2E5BFF" opacity="0.13"/>
    <rect x="856" y="342" width="30" height="24" rx="1" fill="#00FFC2" opacity="0.09"/>
    <rect x="898" y="342" width="30" height="24" rx="1" fill="#2E5BFF" opacity="0.13"/>
    <rect x="941" y="342" width="30" height="24" rx="1" fill="#2E5BFF" opacity="0.1"/>
    <rect x="982" y="342" width="25" height="24" rx="1" fill="#00FFC2" opacity="0.09"/>
    <rect x="856" y="380" width="30" height="24" rx="1" fill="#2E5BFF" opacity="0.15"/>
    <rect x="898" y="380" width="30" height="24" rx="1" fill="#2E5BFF" opacity="0.1"/>
    <rect x="941" y="380" width="30" height="24" rx="1" fill="#00FFC2" opacity="0.09"/>
    <rect x="982" y="380" width="25" height="24" rx="1" fill="#2E5BFF" opacity="0.13"/>
    <rect x="856" y="418" width="30" height="24" rx="1" fill="#2E5BFF" opacity="0.1"/>
    <rect x="898" y="418" width="30" height="24" rx="1" fill="#00FFC2" opacity="0.09"/>
    <rect x="941" y="418" width="30" height="24" rx="1" fill="#2E5BFF" opacity="0.15"/>
    <rect x="982" y="418" width="25" height="24" rx="1" fill="#2E5BFF" opacity="0.1"/>
    <rect x="856" y="456" width="30" height="24" rx="1" fill="#00FFC2" opacity="0.09"/>
    <rect x="898" y="456" width="30" height="24" rx="1" fill="#2E5BFF" opacity="0.18"/>
    <rect x="941" y="456" width="30" height="24" rx="1" fill="#2E5BFF" opacity="0.1"/>
    <rect x="982" y="456" width="25" height="24" rx="1" fill="#00FFC2" opacity="0.09"/>
    <rect x="856" y="494" width="30" height="24" rx="1" fill="#2E5BFF" opacity="0.13"/>
    <rect x="898" y="494" width="30" height="24" rx="1" fill="#2E5BFF" opacity="0.1"/>
    <rect x="941" y="494" width="30" height="24" rx="1" fill="#00FFC2" opacity="0.09"/>
    <rect x="982" y="494" width="25" height="24" rx="1" fill="#2E5BFF" opacity="0.13"/>
    <rect x="856" y="532" width="30" height="24" rx="1" fill="#00FFC2" opacity="0.09"/>
    <rect x="898" y="532" width="30" height="24" rx="1" fill="#2E5BFF" opacity="0.15"/>
    <rect x="941" y="532" width="30" height="24" rx="1" fill="#2E5BFF" opacity="0.1"/>
    <rect x="982" y="532" width="25" height="24" rx="1" fill="#2E5BFF" opacity="0.09"/>
  </g>

  <!-- Secondary right building -->
  <rect x="1030" y="160" width="105" height="420" fill="url(#bldB)" rx="2"/>
  <rect x="1030" y="160" width="105" height="420" fill="none" stroke="#378ADD" stroke-width="0.7" opacity="0.2"/>
  <line x1="1063" y1="160" x2="1063" y2="580" stroke="#378ADD" stroke-width="0.4" opacity="0.18"/>
  <line x1="1100" y1="160" x2="1100" y2="580" stroke="#378ADD" stroke-width="0.4" opacity="0.18"/>
  <g stroke="#378ADD" stroke-width="0.3" opacity="0.12">
    <line x1="1030" y1="196" x2="1135" y2="196"/><line x1="1030" y1="232" x2="1135" y2="232"/>
    <line x1="1030" y1="268" x2="1135" y2="268"/><line x1="1030" y1="304" x2="1135" y2="304"/>
    <line x1="1030" y1="340" x2="1135" y2="340"/><line x1="1030" y1="376" x2="1135" y2="376"/>
    <line x1="1030" y1="412" x2="1135" y2="412"/><line x1="1030" y1="448" x2="1135" y2="448"/>
  </g>
  <g opacity="0.35">
    <rect x="1036" y="170" width="20" height="16" rx="1" fill="#2E5BFF" opacity="0.15"/>
    <rect x="1068" y="170" width="20" height="16" rx="1" fill="#00FFC2" opacity="0.12"/>
    <rect x="1106" y="170" width="20" height="16" rx="1" fill="#2E5BFF" opacity="0.15"/>
    <rect x="1036" y="202" width="20" height="16" rx="1" fill="#00FFC2" opacity="0.1"/>
    <rect x="1068" y="202" width="20" height="16" rx="1" fill="#2E5BFF" opacity="0.18"/>
    <rect x="1106" y="202" width="20" height="16" rx="1" fill="#2E5BFF" opacity="0.12"/>
    <rect x="1036" y="234" width="20" height="16" rx="1" fill="#2E5BFF" opacity="0.15"/>
    <rect x="1068" y="234" width="20" height="16" rx="1" fill="#2E5BFF" opacity="0.1"/>
    <rect x="1106" y="234" width="20" height="16" rx="1" fill="#00FFC2" opacity="0.1"/>
    <rect x="1036" y="266" width="20" height="16" rx="1" fill="#00FFC2" opacity="0.09"/>
    <rect x="1068" y="266" width="20" height="16" rx="1" fill="#2E5BFF" opacity="0.15"/>
    <rect x="1106" y="266" width="20" height="16" rx="1" fill="#2E5BFF" opacity="0.12"/>
  </g>
  <rect x="1148" y="225" width="75" height="355" fill="url(#bldC)" rx="2"/>
  <rect x="1148" y="225" width="75" height="355" fill="none" stroke="#378ADD" stroke-width="0.5" opacity="0.18"/>

  <!-- ═══════════════════════════════════════════════
       ILLUSTRATION: STANDARD FORM PANEL
       7 prescribed sections + staging bar chart
  ═══════════════════════════════════════════════ -->

  <!-- Form card -->
  <rect x="652" y="95" width="190" height="318" rx="7" fill="url(#docG)" opacity="0.97"/>
  <rect x="652" y="95" width="190" height="318" rx="7" fill="none" stroke="#2E5BFF" stroke-width="1.2" opacity="0.35"/>
  <!-- Clipboard clip -->
  <rect x="724" y="85" width="46" height="26" rx="5" fill="#0C447C"/>
  <rect x="732" y="91" width="30" height="14" rx="3" fill="#185FA5"/>
  <!-- Header bar -->
  <rect x="652" y="95" width="190" height="30" rx="7" fill="#0C447C"/>
  <rect x="652" y="112" width="190" height="13" fill="#0C447C"/>
  <text x="747" y="114" text-anchor="middle" font-family="Inter,sans-serif" font-size="9" font-weight="600" fill="#85B7EB" letter-spacing="1.5">PRESCRIBED STANDARD FORM</text>

  <!-- 7 form sections — numbered list -->
  <!-- Section 1 -->
  <circle cx="670" cy="145" r="7" fill="#2E5BFF" opacity="0.15"/>
  <text x="670" y="148" text-anchor="middle" font-family="Inter,sans-serif" font-size="7" font-weight="700" fill="#2E5BFF">1</text>
  <text x="683" y="143" font-family="Inter,sans-serif" font-size="8" font-weight="600" fill="#121C2D">Building &amp; scheme details</text>
  <rect x="683" y="147" width="148" height="3" rx="1.5" fill="#E2E8F0"/>

  <!-- Section 2 -->
  <circle cx="670" cy="165" r="7" fill="#2E5BFF" opacity="0.15"/>
  <text x="670" y="168" text-anchor="middle" font-family="Inter,sans-serif" font-size="7" font-weight="700" fill="#2E5BFF">2</text>
  <text x="683" y="163" font-family="Inter,sans-serif" font-size="8" font-weight="600" fill="#121C2D">Asset schedule</text>
  <rect x="683" y="167" width="130" height="3" rx="1.5" fill="#E2E8F0"/>
  <rect x="683" y="173" width="110" height="3" rx="1.5" fill="#E2E8F0"/>

  <!-- Section 3 -->
  <circle cx="670" cy="191" r="7" fill="#2E5BFF" opacity="0.15"/>
  <text x="670" y="194" text-anchor="middle" font-family="Inter,sans-serif" font-size="7" font-weight="700" fill="#2E5BFF">3</text>
  <text x="683" y="189" font-family="Inter,sans-serif" font-size="8" font-weight="600" fill="#121C2D">Cost estimates by asset type</text>
  <rect x="683" y="193" width="148" height="3" rx="1.5" fill="#E2E8F0"/>
  <rect x="683" y="199" width="120" height="3" rx="1.5" fill="#E2E8F0"/>

  <!-- Section 4 — staging (highlighted) -->
  <rect x="660" y="209" width="172" height="38" rx="4" fill="rgba(46,91,255,0.06)" stroke="#2E5BFF" stroke-width="0.7" stroke-opacity="0.3"/>
  <circle cx="670" cy="221" r="7" fill="#2E5BFF" opacity="0.25"/>
  <text x="670" y="224" text-anchor="middle" font-family="Inter,sans-serif" font-size="7" font-weight="700" fill="#2E5BFF">4</text>
  <text x="683" y="219" font-family="Inter,sans-serif" font-size="8" font-weight="600" fill="#2E5BFF">Staging schedule</text>
  <!-- Mini staging bars Yrs 1-3 / 4-6 / 7-10 -->
  <rect x="683" y="223" width="40" height="7" rx="2" fill="url(#stgA)" opacity="0.8"/>
  <text x="683" y="233" font-family="Inter,sans-serif" font-size="6" font-weight="300" fill="#64748B">Yr 1&#x2013;3</text>
  <rect x="729" y="223" width="32" height="7" rx="2" fill="url(#stgB)" opacity="0.7"/>
  <text x="729" y="233" font-family="Inter,sans-serif" font-size="6" font-weight="300" fill="#64748B">Yr 4&#x2013;6</text>
  <rect x="767" y="223" width="22" height="7" rx="2" fill="url(#stgC)" opacity="0.8"/>
  <text x="767" y="233" font-family="Inter,sans-serif" font-size="6" font-weight="300" fill="#64748B">Yr 7&#x2013;10</text>
  <rect x="795" y="221" width="32" height="7" rx="2" fill="#E2E8F0"/>

  <!-- Section 5 -->
  <circle cx="670" cy="258" r="7" fill="#2E5BFF" opacity="0.15"/>
  <text x="670" y="261" text-anchor="middle" font-family="Inter,sans-serif" font-size="7" font-weight="700" fill="#2E5BFF">5</text>
  <text x="683" y="256" font-family="Inter,sans-serif" font-size="8" font-weight="600" fill="#121C2D">Contingency allowance</text>
  <rect x="683" y="260" width="115" height="3" rx="1.5" fill="#E2E8F0"/>

  <!-- Section 6 -->
  <circle cx="670" cy="276" r="7" fill="#2E5BFF" opacity="0.15"/>
  <text x="670" y="279" text-anchor="middle" font-family="Inter,sans-serif" font-size="7" font-weight="700" fill="#2E5BFF">6</text>
  <text x="683" y="274" font-family="Inter,sans-serif" font-size="8" font-weight="600" fill="#121C2D">Annual contribution calc.</text>
  <rect x="683" y="278" width="140" height="3" rx="1.5" fill="#E2E8F0"/>
  <rect x="683" y="284" width="95" height="3" rx="1.5" fill="#E2E8F0"/>

  <!-- Section 7 -->
  <circle cx="670" cy="300" r="7" fill="#00FFC2" opacity="0.25"/>
  <text x="670" y="303" text-anchor="middle" font-family="Inter,sans-serif" font-size="7" font-weight="700" fill="#0F6E56">7</text>
  <text x="683" y="298" font-family="Inter,sans-serif" font-size="8" font-weight="600" fill="#121C2D">Review triggers</text>
  <rect x="683" y="302" width="100" height="3" rx="1.5" fill="#E2E8F0"/>

  <!-- Divider -->
  <line x1="660" y1="315" x2="832" y2="315" stroke="#B5D4F4" stroke-width="0.8" opacity="0.6"/>

  <!-- Certified tick -->
  <circle cx="820" cy="335" r="15" fill="#00FFC2" opacity="0.15"/>
  <circle cx="820" cy="335" r="15" fill="none" stroke="#00FFC2" stroke-width="1.5"/>
  <polyline points="811,335 818,342 829,326" stroke="#00FFC2" stroke-width="2.5" stroke-linecap="round" stroke-linejoin="round" fill="none"/>
  <text x="668" y="332" font-family="Inter,sans-serif" font-size="8" font-weight="300" fill="#64748B">All 7 sections required.</text>
  <text x="668" y="344" font-family="Inter,sans-serif" font-size="8" font-weight="300" fill="#64748B">No exceptions from Apr 1.</text>

  <!-- Action badge -->
  <rect x="652" y="420" width="190" height="30" rx="6" fill="url(#badgeG)"/>
  <text x="747" y="440" text-anchor="middle" font-family="Inter,sans-serif" font-size="10" font-weight="600" fill="white" letter-spacing="1">STANDARD FORM</text>

  <!-- ═══════════════════════════════════════════════
       QS CERTIFIED BADGE — same position
  ═══════════════════════════════════════════════ -->
  <circle cx="615" cy="298" r="48" fill="#042C53" opacity="0.88"/>
  <circle cx="615" cy="298" r="48" fill="none" stroke="url(#accentV)" stroke-width="2.5"/>
  <circle cx="615" cy="298" r="40" fill="none" stroke="rgba(46,91,255,0.18)" stroke-width="1"/>
  <text x="615" y="276" text-anchor="middle" font-family="Inter,sans-serif" font-size="8" font-weight="400" fill="#85B7EB" letter-spacing="1.5">INDEPENDENT</text>
  <text x="615" y="298" text-anchor="middle" font-family="Inter,sans-serif" font-size="19" font-weight="700" fill="white">QS</text>
  <text x="615" y="313" text-anchor="middle" font-family="Inter,sans-serif" font-size="7" font-weight="300" fill="#00FFC2" letter-spacing="1.5">CERTIFIED</text>
  <!-- 3+ storeys label -->
  <text x="615" y="330" text-anchor="middle" font-family="Inter,sans-serif" font-size="7" font-weight="400" fill="#85B7EB">3+ storeys only</text>

  <!-- ═══════════════════════════════════════════════
       STAT CARDS — bottom right, same positions
  ═══════════════════════════════════════════════ -->
  <rect x="840" y="420" width="160" height="62" rx="5" fill="white" fill-opacity="0.85" stroke="#2E5BFF" stroke-width="0.8" stroke-opacity="0.3"/>
  <rect x="840" y="420" width="3" height="62" fill="#2E5BFF"/>
  <text x="858" y="445" font-family="Inter,sans-serif" font-size="22" font-weight="600" fill="#121C2D">$2.5K&#x2013;$8K</text>
  <text x="858" y="461" font-family="Inter,sans-serif" font-size="10" font-weight="300" fill="#64748B">Surveyor certification</text>
  <text x="858" y="474" font-family="Inter,sans-serif" font-size="10" font-weight="300" fill="#64748B">for multi-storey buildings</text>

  <rect x="1012" y="420" width="152" height="62" rx="5" fill="white" fill-opacity="0.85" stroke="#00FFC2" stroke-width="0.8" stroke-opacity="0.5"/>
  <rect x="1012" y="420" width="3" height="62" fill="#00FFC2"/>
  <text x="1030" y="445" font-family="Inter,sans-serif" font-size="22" font-weight="600" fill="#121C2D">7 <tspan font-size="14" font-weight="300" fill="#64748B">sections</tspan></text>
  <text x="1030" y="461" font-family="Inter,sans-serif" font-size="10" font-weight="300" fill="#64748B">all mandatory in the</text>
  <text x="1030" y="474" font-family="Inter,sans-serif" font-size="10" font-weight="300" fill="#64748B">prescribed standard form</text>

  <!-- Left accent bar -->
  <rect x="0" y="0" width="6" height="630" fill="url(#accentV)"/>

  <!-- Eyebrow -->
  <text x="72" y="58" font-family="Inter,sans-serif" font-size="13" font-weight="400" fill="#64748B" letter-spacing="2.5">THE STRATA EDIT  &#xB7;  COMPLIANCE &amp; REGULATION</text>
  <rect x="72" y="70" width="280" height="1" fill="url(#accentH)" opacity="0.4"/>

  <!-- Headline -->
  <text font-family="Inter,sans-serif" fill="#121C2D">
    <tspan x="72" y="148" font-size="58" font-weight="300" letter-spacing="-1">The April 2026</tspan>
    <tspan x="72" dy="70" font-size="58" font-weight="300" letter-spacing="-1">Capital Works</tspan>
    <tspan x="72" dy="70" font-size="58" font-weight="700" letter-spacing="-1" fill="#2E5BFF">Fund Reforms.</tspan>
  </text>
  <circle cx="388" cy="286" r="7" fill="#00FFC2"/>

  <!-- Divider -->
  <rect x="72" y="316" width="300" height="1.5" fill="url(#accentH)" opacity="0.6"/>

  <!-- Subhead -->
  <text x="72" y="346" font-family="Inter,sans-serif" font-size="17" font-weight="300" fill="#334155" letter-spacing="0.2">Are your 10-year plans ready?</text>

  <!-- Stat pills -->
  <rect x="72" y="378" width="190" height="32" rx="16" fill="rgba(46,91,255,0.07)" stroke="rgba(46,91,255,0.35)" stroke-width="1"/>
  <text x="167" y="399" text-anchor="middle" font-family="Inter,sans-serif" font-size="12" font-weight="600" fill="#2E5BFF">Apr 1, 2026 deadline</text>

  <rect x="272" y="378" width="200" height="32" rx="16" fill="rgba(0,255,194,0.07)" stroke="rgba(15,110,86,0.35)" stroke-width="1"/>
  <text x="372" y="399" text-anchor="middle" font-family="Inter,sans-serif" font-size="12" font-weight="600" fill="#0F6E56">3+ storeys: QS required</text>

  <rect x="72" y="422" width="175" height="32" rx="16" fill="rgba(46,91,255,0.06)" stroke="rgba(46,91,255,0.28)" stroke-width="1"/>
  <text x="159" y="443" text-anchor="middle" font-family="Inter,sans-serif" font-size="12" font-weight="600" fill="#185FA5">$2.5K&#x2013;$8K surveyor fee</text>

  <!-- Slim timeline bar -->
  <line x1="0" y1="496" x2="1200" y2="496" stroke="#D4E8FA" stroke-width="1" opacity="0.8"/>
  <rect x="72" y="510" width="1076" height="3" rx="1.5" fill="#D4E8FA"/>
  <rect x="72" y="510" width="1076" height="3" rx="1.5" fill="url(#timelineG)" opacity="0.75"/>

  <!-- Now -->
  <circle cx="72" cy="511" r="6" fill="#2E5BFF"/>
  <text x="84" y="507" font-family="Inter,sans-serif" font-size="9" font-weight="600" fill="#121C2D">Now</text>
  <text x="84" y="522" font-family="Inter,sans-serif" font-size="9" font-weight="300" fill="#64748B">Audit existing plans</text>

  <!-- Jan–Mar -->
  <circle cx="360" cy="511" r="6" fill="#185FA5"/>
  <text x="372" y="507" font-family="Inter,sans-serif" font-size="9" font-weight="600" fill="#121C2D">Jan&#x2013;Mar 2026</text>
  <text x="372" y="522" font-family="Inter,sans-serif" font-size="9" font-weight="300" fill="#64748B">Engage QS · gather asset data</text>

  <!-- Apr 1 -->
  <circle cx="730" cy="511" r="8" fill="url(#accentV)"/>
  <text x="744" y="507" font-family="Inter,sans-serif" font-size="9" font-weight="700" fill="#2E5BFF">Apr 1 &#x2014; Standard form mandatory</text>
  <text x="744" y="522" font-family="Inter,sans-serif" font-size="9" font-weight="300" fill="#64748B">All new &amp; reviewed plans must comply</text>

  <!-- Ongoing -->
  <circle cx="1100" cy="511" r="6" fill="#00FFC2"/>
  <text x="1090" y="507" text-anchor="end" font-family="Inter,sans-serif" font-size="9" font-weight="600" fill="#121C2D">Ongoing</text>
  <text x="1090" y="522" text-anchor="end" font-family="Inter,sans-serif" font-size="9" font-weight="300" fill="#64748B">All new plans standard form</text>

  </g>
</svg>
