<svg width="1200" height="630" viewBox="0 0 1200 630" xmlns="http://www.w3.org/2000/svg">
  <defs>
    <linearGradient id="sky" x1="0" y1="0" x2="0" y2="1">
      <stop offset="0%" stop-color="#E6F1FB"/>
      <stop offset="55%" stop-color="#F0F7FF"/>
      <stop offset="100%" stop-color="#F8FAFC"/>
    </linearGradient>
    <linearGradient id="bldA" x1="0" y1="0" x2="0" y2="1">
      <stop offset="0%" stop-color="#D4E8FA"/>
      <stop offset="100%" stop-color="#85B7EB"/>
    </linearGradient>
    <linearGradient id="bldB" x1="0" y1="0" x2="0" y2="1">
      <stop offset="0%" stop-color="#B5D4F4"/>
      <stop offset="100%" stop-color="#378ADD"/>
    </linearGradient>
    <linearGradient id="bldC" x1="0" y1="0" x2="0" y2="1">
      <stop offset="0%" stop-color="#E6F1FB"/>
      <stop offset="100%" stop-color="#B5D4F4"/>
    </linearGradient>
    <linearGradient id="accentV" x1="0" y1="0" x2="0" y2="1">
      <stop offset="0%" stop-color="#2E5BFF"/>
      <stop offset="100%" stop-color="#00FFC2"/>
    </linearGradient>
    <linearGradient id="accentH" x1="0" y1="0" x2="1" y2="0">
      <stop offset="0%" stop-color="#2E5BFF"/>
      <stop offset="100%" stop-color="#2E5BFF" stop-opacity="0"/>
    </linearGradient>
    <linearGradient id="docG" x1="0" y1="0" x2="0" y2="1">
      <stop offset="0%" stop-color="#FFFFFF"/>
      <stop offset="100%" stop-color="#E6F1FB"/>
    </linearGradient>
    <linearGradient id="badgeG" x1="0" y1="0" x2="0" y2="1">
      <stop offset="0%" stop-color="#2E5BFF"/>
      <stop offset="100%" stop-color="#185FA5"/>
    </linearGradient>
    <linearGradient id="ground" x1="0" y1="0" x2="0" y2="1">
      <stop offset="0%" stop-color="#B5D4F4"/>
      <stop offset="100%" stop-color="#85B7EB"/>
    </linearGradient>
    <!-- Horizontal bar fills for time breakdown -->
    <linearGradient id="barEmail" x1="0" y1="0" x2="1" y2="0">
      <stop offset="0%" stop-color="#64748B"/>
      <stop offset="100%" stop-color="#94A3B8"/>
    </linearGradient>
    <linearGradient id="barInvoice" x1="0" y1="0" x2="1" y2="0">
      <stop offset="0%" stop-color="#2E5BFF"/>
      <stop offset="100%" stop-color="#378ADD"/>
    </linearGradient>
    <linearGradient id="barDocs" x1="0" y1="0" x2="1" y2="0">
      <stop offset="0%" stop-color="#185FA5"/>
      <stop offset="100%" stop-color="#2E5BFF"/>
    </linearGradient>
    <linearGradient id="barCompliance" x1="0" y1="0" x2="1" y2="0">
      <stop offset="0%" stop-color="#00FFC2"/>
      <stop offset="100%" stop-color="#1D9E75"/>
    </linearGradient>
    <linearGradient id="barOther" x1="0" y1="0" x2="1" y2="0">
      <stop offset="0%" stop-color="#B5D4F4"/>
      <stop offset="100%" stop-color="#85B7EB"/>
    </linearGradient>
    <clipPath id="mainClip"><rect width="1200" height="630"/></clipPath>
  </defs>

  <g clip-path="url(#mainClip)">

  <rect width="1200" height="630" fill="url(#sky)"/>

  <!-- Grid -->
  <g stroke="#2E5BFF" stroke-width="0.4" opacity="0.05">
    <line x1="0" y1="126" x2="1200" y2="126"/><line x1="0" y1="252" x2="1200" y2="252"/>
    <line x1="0" y1="378" x2="1200" y2="378"/><line x1="0" y1="504" x2="1200" y2="504"/>
    <line x1="200" y1="0" x2="200" y2="630"/><line x1="400" y1="0" x2="400" y2="630"/>
    <line x1="600" y1="0" x2="600" y2="630"/><line x1="800" y1="0" x2="800" y2="630"/>
    <line x1="1000" y1="0" x2="1000" y2="630"/>
  </g>
  <ellipse cx="600" cy="480" rx="600" ry="200" fill="#2E5BFF" opacity="0.03"/>

  <!-- Ground -->
  <rect x="0" y="580" width="1200" height="50" fill="url(#ground)" opacity="0.3"/>
  <line x1="0" y1="580" x2="1200" y2="580" stroke="#185FA5" stroke-width="0.8" opacity="0.18"/>

  <!-- Distant buildings -->
  <rect x="700" y="400" width="28" height="180" fill="#D4E8FA" opacity="0.65"/>
  <rect x="742" y="375" width="36" height="205" fill="#B5D4F4" opacity="0.55"/>
  <rect x="792" y="355" width="42" height="225" fill="#D4E8FA" opacity="0.6"/>

  <!-- Main tall building -->
  <rect x="850" y="68" width="165" height="512" fill="url(#bldA)" rx="3"/>
  <rect x="850" y="68" width="165" height="512" fill="none" stroke="#378ADD" stroke-width="0.9" opacity="0.25"/>
  <line x1="893" y1="68" x2="893" y2="580" stroke="#378ADD" stroke-width="0.5" opacity="0.2"/>
  <line x1="936" y1="68" x2="936" y2="580" stroke="#378ADD" stroke-width="0.5" opacity="0.2"/>
  <line x1="979" y1="68" x2="979" y2="580" stroke="#378ADD" stroke-width="0.5" opacity="0.2"/>
  <g stroke="#378ADD" stroke-width="0.4" opacity="0.15">
    <line x1="850" y1="106" x2="1015" y2="106"/><line x1="850" y1="144" x2="1015" y2="144"/>
    <line x1="850" y1="182" x2="1015" y2="182"/><line x1="850" y1="220" x2="1015" y2="220"/>
    <line x1="850" y1="258" x2="1015" y2="258"/><line x1="850" y1="296" x2="1015" y2="296"/>
    <line x1="850" y1="334" x2="1015" y2="334"/><line x1="850" y1="372" x2="1015" y2="372"/>
    <line x1="850" y1="410" x2="1015" y2="410"/><line x1="850" y1="448" x2="1015" y2="448"/>
    <line x1="850" y1="486" x2="1015" y2="486"/><line x1="850" y1="524" x2="1015" y2="524"/>
    <line x1="850" y1="562" x2="1015" y2="562"/>
  </g>
  <g opacity="0.42">
    <rect x="856" y="76" width="30" height="24" rx="1" fill="#2E5BFF" opacity="0.13"/>
    <rect x="898" y="76" width="30" height="24" rx="1" fill="#2E5BFF" opacity="0.18"/>
    <rect x="941" y="76" width="30" height="24" rx="1" fill="#00FFC2" opacity="0.1"/>
    <rect x="982" y="76" width="25" height="24" rx="1" fill="#2E5BFF" opacity="0.13"/>
    <rect x="856" y="114" width="30" height="24" rx="1" fill="#00FFC2" opacity="0.09"/>
    <rect x="898" y="114" width="30" height="24" rx="1" fill="#2E5BFF" opacity="0.15"/>
    <rect x="941" y="114" width="30" height="24" rx="1" fill="#2E5BFF" opacity="0.1"/>
    <rect x="982" y="114" width="25" height="24" rx="1" fill="#00FFC2" opacity="0.09"/>
    <rect x="856" y="152" width="30" height="24" rx="1" fill="#2E5BFF" opacity="0.15"/>
    <rect x="898" y="152" width="30" height="24" rx="1" fill="#2E5BFF" opacity="0.1"/>
    <rect x="941" y="152" width="30" height="24" rx="1" fill="#00FFC2" opacity="0.1"/>
    <rect x="982" y="152" width="25" height="24" rx="1" fill="#2E5BFF" opacity="0.13"/>
    <rect x="856" y="190" width="30" height="24" rx="1" fill="#2E5BFF" opacity="0.1"/>
    <rect x="898" y="190" width="30" height="24" rx="1" fill="#00FFC2" opacity="0.09"/>
    <rect x="941" y="190" width="30" height="24" rx="1" fill="#2E5BFF" opacity="0.15"/>
    <rect x="982" y="190" width="25" height="24" rx="1" fill="#2E5BFF" opacity="0.1"/>
    <rect x="856" y="228" width="30" height="24" rx="1" fill="#00FFC2" opacity="0.09"/>
    <rect x="898" y="228" width="30" height="24" rx="1" fill="#2E5BFF" opacity="0.18"/>
    <rect x="941" y="228" width="30" height="24" rx="1" fill="#2E5BFF" opacity="0.1"/>
    <rect x="982" y="228" width="25" height="24" rx="1" fill="#00FFC2" opacity="0.09"/>
    <rect x="856" y="266" width="30" height="24" rx="1" fill="#2E5BFF" opacity="0.15"/>
    <rect x="898" y="266" width="30" height="24" rx="1" fill="#00FFC2" opacity="0.09"/>
    <rect x="941" y="266" width="30" height="24" rx="1" fill="#2E5BFF" opacity="0.13"/>
    <rect x="982" y="266" width="25" height="24" rx="1" fill="#2E5BFF" opacity="0.1"/>
    <rect x="856" y="304" width="30" height="24" rx="1" fill="#2E5BFF" opacity="0.1"/>
    <rect x="898" y="304" width="30" height="24" rx="1" fill="#2E5BFF" opacity="0.15"/>
    <rect x="941" y="304" width="30" height="24" rx="1" fill="#00FFC2" opacity="0.09"/>
    <rect x="982" y="304" width="25" height="24" rx="1" fill="#2E5BFF" opacity="0.13"/>
    <rect x="856" y="342" width="30" height="24" rx="1" fill="#00FFC2" opacity="0.09"/>
    <rect x="898" y="342" width="30" height="24" rx="1" fill="#2E5BFF" opacity="0.13"/>
    <rect x="941" y="342" width="30" height="24" rx="1" fill="#2E5BFF" opacity="0.1"/>
    <rect x="982" y="342" width="25" height="24" rx="1" fill="#00FFC2" opacity="0.09"/>
    <rect x="856" y="380" width="30" height="24" rx="1" fill="#2E5BFF" opacity="0.15"/>
    <rect x="898" y="380" width="30" height="24" rx="1" fill="#2E5BFF" opacity="0.1"/>
    <rect x="941" y="380" width="30" height="24" rx="1" fill="#00FFC2" opacity="0.09"/>
    <rect x="982" y="380" width="25" height="24" rx="1" fill="#2E5BFF" opacity="0.13"/>
    <rect x="856" y="418" width="30" height="24" rx="1" fill="#2E5BFF" opacity="0.1"/>
    <rect x="898" y="418" width="30" height="24" rx="1" fill="#00FFC2" opacity="0.09"/>
    <rect x="941" y="418" width="30" height="24" rx="1" fill="#2E5BFF" opacity="0.15"/>
    <rect x="982" y="418" width="25" height="24" rx="1" fill="#2E5BFF" opacity="0.1"/>
    <rect x="856" y="456" width="30" height="24" rx="1" fill="#00FFC2" opacity="0.09"/>
    <rect x="898" y="456" width="30" height="24" rx="1" fill="#2E5BFF" opacity="0.18"/>
    <rect x="941" y="456" width="30" height="24" rx="1" fill="#2E5BFF" opacity="0.1"/>
    <rect x="982" y="456" width="25" height="24" rx="1" fill="#00FFC2" opacity="0.09"/>
    <rect x="856" y="494" width="30" height="24" rx="1" fill="#2E5BFF" opacity="0.13"/>
    <rect x="898" y="494" width="30" height="24" rx="1" fill="#2E5BFF" opacity="0.1"/>
    <rect x="941" y="494" width="30" height="24" rx="1" fill="#00FFC2" opacity="0.09"/>
    <rect x="982" y="494" width="25" height="24" rx="1" fill="#2E5BFF" opacity="0.13"/>
    <rect x="856" y="532" width="30" height="24" rx="1" fill="#00FFC2" opacity="0.09"/>
    <rect x="898" y="532" width="30" height="24" rx="1" fill="#2E5BFF" opacity="0.15"/>
    <rect x="941" y="532" width="30" height="24" rx="1" fill="#2E5BFF" opacity="0.1"/>
    <rect x="982" y="532" width="25" height="24" rx="1" fill="#2E5BFF" opacity="0.09"/>
  </g>

  <!-- Secondary right building -->
  <rect x="1030" y="160" width="105" height="420" fill="url(#bldB)" rx="2"/>
  <rect x="1030" y="160" width="105" height="420" fill="none" stroke="#378ADD" stroke-width="0.7" opacity="0.2"/>
  <line x1="1063" y1="160" x2="1063" y2="580" stroke="#378ADD" stroke-width="0.4" opacity="0.18"/>
  <line x1="1100" y1="160" x2="1100" y2="580" stroke="#378ADD" stroke-width="0.4" opacity="0.18"/>
  <g stroke="#378ADD" stroke-width="0.3" opacity="0.12">
    <line x1="1030" y1="196" x2="1135" y2="196"/><line x1="1030" y1="232" x2="1135" y2="232"/>
    <line x1="1030" y1="268" x2="1135" y2="268"/><line x1="1030" y1="304" x2="1135" y2="304"/>
    <line x1="1030" y1="340" x2="1135" y2="340"/><line x1="1030" y1="376" x2="1135" y2="376"/>
  </g>
  <g opacity="0.35">
    <rect x="1036" y="170" width="20" height="16" rx="1" fill="#2E5BFF" opacity="0.15"/>
    <rect x="1068" y="170" width="20" height="16" rx="1" fill="#00FFC2" opacity="0.12"/>
    <rect x="1106" y="170" width="20" height="16" rx="1" fill="#2E5BFF" opacity="0.15"/>
    <rect x="1036" y="202" width="20" height="16" rx="1" fill="#00FFC2" opacity="0.1"/>
    <rect x="1068" y="202" width="20" height="16" rx="1" fill="#2E5BFF" opacity="0.18"/>
    <rect x="1106" y="202" width="20" height="16" rx="1" fill="#2E5BFF" opacity="0.12"/>
    <rect x="1036" y="234" width="20" height="16" rx="1" fill="#2E5BFF" opacity="0.15"/>
    <rect x="1068" y="234" width="20" height="16" rx="1" fill="#2E5BFF" opacity="0.1"/>
    <rect x="1106" y="234" width="20" height="16" rx="1" fill="#00FFC2" opacity="0.1"/>
  </g>
  <rect x="1148" y="225" width="75" height="355" fill="url(#bldC)" rx="2"/>
  <rect x="1148" y="225" width="75" height="355" fill="none" stroke="#378ADD" stroke-width="0.5" opacity="0.18"/>

  <!-- ═══════════════════════════════════════════════
       ILLUSTRATION: WHERE THE 30HRS GOES
       Horizontal bar chart — time breakdown panel
  ═══════════════════════════════════════════════ -->

  <!-- Panel card -->
  <rect x="652" y="95" width="190" height="322" rx="7" fill="url(#docG)" opacity="0.97"/>
  <rect x="652" y="95" width="190" height="322" rx="7" fill="none" stroke="#2E5BFF" stroke-width="1.2" opacity="0.35"/>
  <!-- Header -->
  <rect x="652" y="95" width="190" height="30" rx="7" fill="#0C447C"/>
  <rect x="652" y="112" width="190" height="13" fill="#0C447C"/>
  <text x="747" y="114" text-anchor="middle" font-family="Inter,sans-serif" font-size="9" font-weight="600" fill="#85B7EB" letter-spacing="1.5">30 HRS/WEEK ADMIN</text>

  <!-- X-axis label -->
  <text x="664" y="143" font-family="Inter,sans-serif" font-size="7" font-weight="300" fill="#94A3B8">0h</text>
  <text x="700" y="143" font-family="Inter,sans-serif" font-size="7" font-weight="300" fill="#94A3B8">3h</text>
  <text x="736" y="143" font-family="Inter,sans-serif" font-size="7" font-weight="300" fill="#94A3B8">6h</text>
  <text x="772" y="143" font-family="Inter,sans-serif" font-size="7" font-weight="300" fill="#94A3B8">9h</text>
  <text x="808" y="143" font-family="Inter,sans-serif" font-size="7" font-weight="300" fill="#94A3B8">12h</text>
  <!-- Vertical grid lines -->
  <g stroke="#E2E8F0" stroke-width="0.6">
    <line x1="700" y1="147" x2="700" y2="375"/>
    <line x1="736" y1="147" x2="736" y2="375"/>
    <line x1="772" y1="147" x2="772" y2="375"/>
    <line x1="808" y1="147" x2="808" y2="375"/>
  </g>

  <!-- Bar 1: Email 10–12h — slate, widest -->
  <text x="664" y="161" font-family="Inter,sans-serif" font-size="8" font-weight="600" fill="#64748B">Email triage</text>
  <rect x="664" y="164" width="160" height="10" rx="2" fill="#E2E8F0"/>
  <rect x="664" y="164" width="144" height="10" rx="2" fill="url(#barEmail)"/>
  <text x="812" y="173" font-family="Inter,sans-serif" font-size="7" font-weight="700" fill="#64748B">11h</text>

  <!-- Bar 2: Invoice 4–6h — cobalt -->
  <text x="664" y="191" font-family="Inter,sans-serif" font-size="8" font-weight="600" fill="#121C2D">Invoice processing</text>
  <rect x="664" y="194" width="160" height="10" rx="2" fill="#E2E8F0"/>
  <rect x="664" y="194" width="72" height="10" rx="2" fill="url(#barInvoice)"/>
  <text x="740" y="203" font-family="Inter,sans-serif" font-size="7" font-weight="700" fill="#2E5BFF">5h</text>

  <!-- Bar 3: Document filing 3–4h — blue -->
  <text x="664" y="221" font-family="Inter,sans-serif" font-size="8" font-weight="600" fill="#121C2D">Document filing</text>
  <rect x="664" y="224" width="160" height="10" rx="2" fill="#E2E8F0"/>
  <rect x="664" y="224" width="56" height="10" rx="2" fill="url(#barDocs)"/>
  <text x="724" y="233" font-family="Inter,sans-serif" font-size="7" font-weight="700" fill="#185FA5">3.5h</text>

  <!-- Bar 4: Compliance tracking 2–3h — mint -->
  <text x="664" y="251" font-family="Inter,sans-serif" font-size="8" font-weight="600" fill="#121C2D">Compliance tracking</text>
  <rect x="664" y="254" width="160" height="10" rx="2" fill="#E2E8F0"/>
  <rect x="664" y="254" width="36" height="10" rx="2" fill="url(#barCompliance)"/>
  <text x="704" y="263" font-family="Inter,sans-serif" font-size="7" font-weight="700" fill="#0F6E56">2.5h</text>

  <!-- Bar 5: Committee support 2–3h — light blue -->
  <text x="664" y="281" font-family="Inter,sans-serif" font-size="8" font-weight="600" fill="#121C2D">Committee support</text>
  <rect x="664" y="284" width="160" height="10" rx="2" fill="#E2E8F0"/>
  <rect x="664" y="284" width="36" height="10" rx="2" fill="url(#barOther)"/>
  <text x="704" y="293" font-family="Inter,sans-serif" font-size="7" font-weight="700" fill="#64748B">2.5h</text>

  <!-- Bar 6: Data extraction 1–2h — slate light -->
  <text x="664" y="311" font-family="Inter,sans-serif" font-size="8" font-weight="600" fill="#121C2D">Data extraction</text>
  <rect x="664" y="314" width="160" height="10" rx="2" fill="#E2E8F0"/>
  <rect x="664" y="314" width="22" height="10" rx="2" fill="url(#barOther)" opacity="0.6"/>
  <text x="690" y="323" font-family="Inter,sans-serif" font-size="7" font-weight="700" fill="#94A3B8">1.5h</text>

  <!-- Divider -->
  <line x1="662" y1="336" x2="832" y2="336" stroke="#B5D4F4" stroke-width="0.8" opacity="0.6"/>

  <!-- Total cost callout -->
  <rect x="662" y="342" width="172" height="62" rx="5" fill="rgba(46,91,255,0.06)" stroke="#2E5BFF" stroke-width="0.8" stroke-opacity="0.3"/>
  <text x="672" y="358" font-family="Inter,sans-serif" font-size="7" font-weight="400" fill="#64748B" letter-spacing="0.8">ANNUAL COST PER MANAGER</text>
  <text x="672" y="380" font-family="Inter,sans-serif" font-size="22" font-weight="700" fill="#2E5BFF">$76K</text>
  <text x="710" y="380" font-family="Inter,sans-serif" font-size="10" font-weight="300" fill="#64748B"> wasted</text>
  <text x="672" y="395" font-family="Inter,sans-serif" font-size="8" font-weight="300" fill="#64748B">direct cost + lost revenue capacity</text>

  <!-- Action badge -->
  <rect x="652" y="424" width="190" height="30" rx="6" fill="url(#badgeG)"/>
  <text x="747" y="444" text-anchor="middle" font-family="Inter,sans-serif" font-size="10" font-weight="600" fill="white" letter-spacing="1">AUTOMATE OR DELEGATE</text>

  <!-- ═══════════════════════════════════════════════
       ROI BADGE — replaces QS/clock/neural circle
       Shows 220% ROI in a clean ring
  ═══════════════════════════════════════════════ -->
  <circle cx="615" cy="285" r="48" fill="#042C53" opacity="0.88"/>
  <circle cx="615" cy="285" r="48" fill="none" stroke="url(#accentV)" stroke-width="2.5"/>
  <circle cx="615" cy="285" r="40" fill="none" stroke="rgba(46,91,255,0.18)" stroke-width="1"/>
  <!-- ROI ring: 220% shown as nearly-full arc -->
  <!-- circumference = 2π×28 ≈ 176 -->
  <circle cx="615" cy="285" r="28" fill="none" stroke="#0C447C" stroke-width="7" opacity="0.4"/>
  <circle cx="615" cy="285" r="28" fill="none" stroke="url(#accentV)" stroke-width="7"
    stroke-dasharray="158 18" stroke-dashoffset="0" transform="rotate(-90 615 285)"/>
  <text x="615" y="278" text-anchor="middle" font-family="Inter,sans-serif" font-size="16" font-weight="700" fill="white">220%</text>
  <text x="615" y="292" text-anchor="middle" font-family="Inter,sans-serif" font-size="8" font-weight="300" fill="#85B7EB">ROI year 1</text>
  <text x="615" y="322" text-anchor="middle" font-family="Inter,sans-serif" font-size="7" font-weight="300" fill="#00FFC2" letter-spacing="1.5">5.5 MONTH PAYBACK</text>

  <!-- ═══════════════════════════════════════════════
       STAT CARDS — bottom right
  ═══════════════════════════════════════════════ -->
  <rect x="840" y="440" width="160" height="62" rx="5" fill="white" fill-opacity="0.85" stroke="#2E5BFF" stroke-width="0.8" stroke-opacity="0.3"/>
  <rect x="840" y="440" width="3" height="62" fill="#2E5BFF"/>
  <text x="858" y="465" font-family="Inter,sans-serif" font-size="22" font-weight="600" fill="#121C2D">$229K</text>
  <text x="858" y="481" font-family="Inter,sans-serif" font-size="10" font-weight="300" fill="#64748B">annual cost for a</text>
  <text x="858" y="494" font-family="Inter,sans-serif" font-size="10" font-weight="300" fill="#64748B">3-manager agency</text>

  <rect x="1012" y="440" width="152" height="62" rx="5" fill="white" fill-opacity="0.85" stroke="#00FFC2" stroke-width="0.8" stroke-opacity="0.5"/>
  <rect x="1012" y="440" width="3" height="62" fill="#00FFC2"/>
  <text x="1030" y="465" font-family="Inter,sans-serif" font-size="22" font-weight="600" fill="#121C2D">60<tspan font-size="14" font-weight="300" fill="#64748B">–70%</tspan></text>
  <text x="1030" y="481" font-family="Inter,sans-serif" font-size="10" font-weight="300" fill="#64748B">cost reduction with</text>
  <text x="1030" y="494" font-family="Inter,sans-serif" font-size="10" font-weight="300" fill="#64748B">automation</text>

  <!-- Left accent bar -->
  <rect x="0" y="0" width="6" height="630" fill="url(#accentV)"/>

  <!-- Eyebrow -->
  <text x="72" y="58" font-family="Inter,sans-serif" font-size="13" font-weight="400" fill="#64748B" letter-spacing="2.5">THE STRATA EDIT  &#xB7;  OPERATIONAL EFFICIENCY</text>
  <rect x="72" y="70" width="280" height="1" fill="url(#accentH)" opacity="0.4"/>

  <!-- Headline -->
  <text font-family="Inter,sans-serif" fill="#121C2D">
    <tspan x="72" y="148" font-size="58" font-weight="300" letter-spacing="-1">Death by</tspan>
    <tspan x="72" dy="70" font-size="58" font-weight="300" letter-spacing="-1">Data Entry.</tspan>
    <tspan x="72" dy="70" font-size="58" font-weight="700" letter-spacing="-1" fill="#2E5BFF">What it&#x2019;s really</tspan>
    <tspan x="72" dy="70" font-size="58" font-weight="700" letter-spacing="-1" fill="#2E5BFF">costing you.</tspan>
  </text>
  <circle cx="454" cy="356" r="7" fill="#00FFC2"/>

  <!-- Divider -->
  <rect x="72" y="380" width="300" height="1.5" fill="url(#accentH)" opacity="0.6"/>

  <!-- Subhead -->
  <text x="72" y="410" font-family="Inter,sans-serif" font-size="16" font-weight="300" fill="#334155" letter-spacing="0.2">Manual processes cost more than you think.</text>

  <!-- Stat pills -->
  <rect x="72" y="436" width="188" height="32" rx="16" fill="rgba(46,91,255,0.07)" stroke="rgba(46,91,255,0.35)" stroke-width="1"/>
  <text x="166" y="457" text-anchor="middle" font-family="Inter,sans-serif" font-size="12" font-weight="600" fill="#2E5BFF">6–8 hrs/week wasted</text>

  <rect x="270" y="436" width="185" height="32" rx="16" fill="rgba(0,255,194,0.07)" stroke="rgba(15,110,86,0.35)" stroke-width="1"/>
  <text x="362" y="457" text-anchor="middle" font-family="Inter,sans-serif" font-size="12" font-weight="600" fill="#0F6E56">220% ROI on fix</text>

  <rect x="72" y="480" width="182" height="32" rx="16" fill="rgba(46,91,255,0.06)" stroke="rgba(46,91,255,0.28)" stroke-width="1"/>
  <text x="163" y="501" text-anchor="middle" font-family="Inter,sans-serif" font-size="12" font-weight="600" fill="#185FA5">5.5 month payback</text>

  </g>
</svg>
