<svg width="1200" height="630" viewBox="0 0 1200 630" xmlns="http://www.w3.org/2000/svg">
  <defs>
    <linearGradient id="sky" x1="0" y1="0" x2="0" y2="1">
      <stop offset="0%" stop-color="#020d1f"/>
      <stop offset="40%" stop-color="#042C53"/>
      <stop offset="75%" stop-color="#0C447C"/>
      <stop offset="100%" stop-color="#185FA5"/>
    </linearGradient>
    <linearGradient id="ground" x1="0" y1="0" x2="0" y2="1">
      <stop offset="0%" stop-color="#021626"/>
      <stop offset="100%" stop-color="#010a14"/>
    </linearGradient>
    <linearGradient id="bldA" x1="0" y1="0" x2="0" y2="1">
      <stop offset="0%" stop-color="#0C447C"/>
      <stop offset="100%" stop-color="#020d1f"/>
    </linearGradient>
    <linearGradient id="bldB" x1="0" y1="0" x2="0" y2="1">
      <stop offset="0%" stop-color="#185FA5"/>
      <stop offset="100%" stop-color="#042C53"/>
    </linearGradient>
    <linearGradient id="bldC" x1="0" y1="0" x2="0" y2="1">
      <stop offset="0%" stop-color="#052e5c"/>
      <stop offset="100%" stop-color="#020d1f"/>
    </linearGradient>
    <linearGradient id="accentV" x1="0" y1="0" x2="0" y2="1">
      <stop offset="0%" stop-color="#2E5BFF"/>
      <stop offset="100%" stop-color="#00FFC2"/>
    </linearGradient>
    <linearGradient id="accentH" x1="0" y1="0" x2="1" y2="0">
      <stop offset="0%" stop-color="#00FFC2"/>
      <stop offset="100%" stop-color="#00FFC2" stop-opacity="0"/>
    </linearGradient>
    <linearGradient id="timelineG" x1="0" y1="0" x2="1" y2="0">
      <stop offset="0%" stop-color="#2E5BFF"/>
      <stop offset="100%" stop-color="#00FFC2"/>
    </linearGradient>
    <!-- Trust arc gradient -->
    <linearGradient id="trustArc" x1="0" y1="0" x2="1" y2="0">
      <stop offset="0%" stop-color="#FF4D4D"/>
      <stop offset="40%" stop-color="#2E5BFF"/>
      <stop offset="100%" stop-color="#00FFC2"/>
    </linearGradient>
    <!-- Node connection lines -->
    <linearGradient id="connG" x1="0" y1="0" x2="1" y2="0">
      <stop offset="0%" stop-color="#2E5BFF" stop-opacity="0.6"/>
      <stop offset="100%" stop-color="#00FFC2" stop-opacity="0.6"/>
    </linearGradient>
    <clipPath id="mainClip"><rect width="1200" height="630"/></clipPath>
  </defs>

  <g clip-path="url(#mainClip)">

  <rect width="1200" height="630" fill="url(#sky)"/>

  <!-- Grid -->
  <g stroke="#2E5BFF" stroke-width="0.5" opacity="0.05">
    <line x1="0" y1="126" x2="1200" y2="126"/><line x1="0" y1="252" x2="1200" y2="252"/>
    <line x1="0" y1="378" x2="1200" y2="378"/><line x1="0" y1="504" x2="1200" y2="504"/>
    <line x1="200" y1="0" x2="200" y2="630"/><line x1="400" y1="0" x2="400" y2="630"/>
    <line x1="600" y1="0" x2="600" y2="630"/><line x1="800" y1="0" x2="800" y2="630"/>
    <line x1="1000" y1="0" x2="1000" y2="630"/>
  </g>
  <ellipse cx="600" cy="200" rx="500" ry="300" fill="#2E5BFF" opacity="0.07"/>

  <!-- Ground -->
  <rect x="0" y="580" width="1200" height="50" fill="url(#ground)"/>
  <line x1="0" y1="580" x2="1200" y2="580" stroke="#2E5BFF" stroke-width="0.8" opacity="0.3"/>

  <!-- Distant buildings -->
  <rect x="700" y="400" width="28" height="180" fill="#042C53" opacity="0.55"/>
  <rect x="742" y="375" width="36" height="205" fill="#042C53" opacity="0.5"/>
  <rect x="792" y="355" width="42" height="225" fill="#052e5c" opacity="0.55"/>

  <!-- Main tall building -->
  <rect x="850" y="68" width="165" height="512" fill="url(#bldA)" rx="2"/>
  <rect x="850" y="68" width="165" height="512" fill="none" stroke="#378ADD" stroke-width="0.7" opacity="0.2"/>
  <line x1="893" y1="68" x2="893" y2="580" stroke="#378ADD" stroke-width="0.5" opacity="0.18"/>
  <line x1="936" y1="68" x2="936" y2="580" stroke="#378ADD" stroke-width="0.5" opacity="0.18"/>
  <line x1="979" y1="68" x2="979" y2="580" stroke="#378ADD" stroke-width="0.5" opacity="0.18"/>
  <g stroke="#378ADD" stroke-width="0.4" opacity="0.12">
    <line x1="850" y1="106" x2="1015" y2="106"/><line x1="850" y1="144" x2="1015" y2="144"/>
    <line x1="850" y1="182" x2="1015" y2="182"/><line x1="850" y1="220" x2="1015" y2="220"/>
    <line x1="850" y1="258" x2="1015" y2="258"/><line x1="850" y1="296" x2="1015" y2="296"/>
    <line x1="850" y1="334" x2="1015" y2="334"/><line x1="850" y1="372" x2="1015" y2="372"/>
    <line x1="850" y1="410" x2="1015" y2="410"/><line x1="850" y1="448" x2="1015" y2="448"/>
    <line x1="850" y1="486" x2="1015" y2="486"/><line x1="850" y1="524" x2="1015" y2="524"/>
  </g>
  <g opacity="0.35">
    <rect x="856" y="76" width="30" height="24" rx="1" fill="#2E5BFF" opacity="0.2"/>
    <rect x="898" y="76" width="30" height="24" rx="1" fill="#00FFC2" opacity="0.15"/>
    <rect x="941" y="76" width="30" height="24" rx="1" fill="#2E5BFF" opacity="0.18"/>
    <rect x="982" y="76" width="25" height="24" rx="1" fill="#B5D4F4" opacity="0.12"/>
    <rect x="856" y="114" width="30" height="24" rx="1" fill="#B5D4F4" opacity="0.1"/>
    <rect x="898" y="114" width="30" height="24" rx="1" fill="#2E5BFF" opacity="0.2"/>
    <rect x="941" y="114" width="30" height="24" rx="1" fill="#00FFC2" opacity="0.12"/>
    <rect x="982" y="114" width="25" height="24" rx="1" fill="#2E5BFF" opacity="0.18"/>
    <rect x="856" y="152" width="30" height="24" rx="1" fill="#2E5BFF" opacity="0.18"/>
    <rect x="898" y="152" width="30" height="24" rx="1" fill="#B5D4F4" opacity="0.12"/>
    <rect x="941" y="152" width="30" height="24" rx="1" fill="#2E5BFF" opacity="0.2"/>
    <rect x="982" y="152" width="25" height="24" rx="1" fill="#00FFC2" opacity="0.12"/>
    <rect x="856" y="190" width="30" height="24" rx="1" fill="#00FFC2" opacity="0.12"/>
    <rect x="898" y="190" width="30" height="24" rx="1" fill="#2E5BFF" opacity="0.2"/>
    <rect x="941" y="190" width="30" height="24" rx="1" fill="#B5D4F4" opacity="0.12"/>
    <rect x="982" y="190" width="25" height="24" rx="1" fill="#2E5BFF" opacity="0.18"/>
    <rect x="856" y="228" width="30" height="24" rx="1" fill="#2E5BFF" opacity="0.15"/>
    <rect x="898" y="228" width="30" height="24" rx="1" fill="#00FFC2" opacity="0.12"/>
    <rect x="941" y="228" width="30" height="24" rx="1" fill="#2E5BFF" opacity="0.2"/>
    <rect x="982" y="228" width="25" height="24" rx="1" fill="#B5D4F4" opacity="0.1"/>
    <rect x="856" y="266" width="30" height="24" rx="1" fill="#B5D4F4" opacity="0.1"/>
    <rect x="898" y="266" width="30" height="24" rx="1" fill="#2E5BFF" opacity="0.18"/>
    <rect x="941" y="266" width="30" height="24" rx="1" fill="#00FFC2" opacity="0.12"/>
    <rect x="982" y="266" width="25" height="24" rx="1" fill="#2E5BFF" opacity="0.2"/>
    <rect x="856" y="304" width="30" height="24" rx="1" fill="#2E5BFF" opacity="0.2"/>
    <rect x="898" y="304" width="30" height="24" rx="1" fill="#B5D4F4" opacity="0.12"/>
    <rect x="941" y="304" width="30" height="24" rx="1" fill="#2E5BFF" opacity="0.18"/>
    <rect x="982" y="304" width="25" height="24" rx="1" fill="#00FFC2" opacity="0.12"/>
    <rect x="856" y="342" width="30" height="24" rx="1" fill="#00FFC2" opacity="0.12"/>
    <rect x="898" y="342" width="30" height="24" rx="1" fill="#2E5BFF" opacity="0.2"/>
    <rect x="941" y="342" width="30" height="24" rx="1" fill="#B5D4F4" opacity="0.1"/>
    <rect x="982" y="342" width="25" height="24" rx="1" fill="#2E5BFF" opacity="0.18"/>
    <rect x="856" y="380" width="30" height="24" rx="1" fill="#2E5BFF" opacity="0.18"/>
    <rect x="898" y="380" width="30" height="24" rx="1" fill="#00FFC2" opacity="0.12"/>
    <rect x="941" y="380" width="30" height="24" rx="1" fill="#2E5BFF" opacity="0.2"/>
    <rect x="982" y="380" width="25" height="24" rx="1" fill="#B5D4F4" opacity="0.1"/>
    <rect x="856" y="418" width="30" height="24" rx="1" fill="#B5D4F4" opacity="0.1"/>
    <rect x="898" y="418" width="30" height="24" rx="1" fill="#2E5BFF" opacity="0.2"/>
    <rect x="941" y="418" width="30" height="24" rx="1" fill="#00FFC2" opacity="0.12"/>
    <rect x="982" y="418" width="25" height="24" rx="1" fill="#2E5BFF" opacity="0.18"/>
    <rect x="856" y="456" width="30" height="24" rx="1" fill="#2E5BFF" opacity="0.2"/>
    <rect x="898" y="456" width="30" height="24" rx="1" fill="#B5D4F4" opacity="0.12"/>
    <rect x="941" y="456" width="30" height="24" rx="1" fill="#2E5BFF" opacity="0.18"/>
    <rect x="982" y="456" width="25" height="24" rx="1" fill="#00FFC2" opacity="0.12"/>
    <rect x="856" y="494" width="30" height="24" rx="1" fill="#00FFC2" opacity="0.12"/>
    <rect x="898" y="494" width="30" height="24" rx="1" fill="#2E5BFF" opacity="0.2"/>
    <rect x="941" y="494" width="30" height="24" rx="1" fill="#B5D4F4" opacity="0.1"/>
    <rect x="982" y="494" width="25" height="24" rx="1" fill="#2E5BFF" opacity="0.18"/>
  </g>

  <!-- Secondary right building -->
  <rect x="1030" y="160" width="105" height="420" fill="url(#bldB)" rx="2"/>
  <rect x="1030" y="160" width="105" height="420" fill="none" stroke="#378ADD" stroke-width="0.6" opacity="0.18"/>
  <line x1="1063" y1="160" x2="1063" y2="580" stroke="#378ADD" stroke-width="0.4" opacity="0.15"/>
  <line x1="1100" y1="160" x2="1100" y2="580" stroke="#378ADD" stroke-width="0.4" opacity="0.15"/>
  <g opacity="0.3">
    <rect x="1036" y="170" width="20" height="16" rx="1" fill="#2E5BFF" opacity="0.2"/>
    <rect x="1068" y="170" width="20" height="16" rx="1" fill="#00FFC2" opacity="0.15"/>
    <rect x="1106" y="170" width="20" height="16" rx="1" fill="#2E5BFF" opacity="0.2"/>
    <rect x="1036" y="202" width="20" height="16" rx="1" fill="#00FFC2" opacity="0.12"/>
    <rect x="1068" y="202" width="20" height="16" rx="1" fill="#2E5BFF" opacity="0.22"/>
    <rect x="1106" y="202" width="20" height="16" rx="1" fill="#B5D4F4" opacity="0.15"/>
    <rect x="1036" y="234" width="20" height="16" rx="1" fill="#2E5BFF" opacity="0.2"/>
    <rect x="1068" y="234" width="20" height="16" rx="1" fill="#B5D4F4" opacity="0.12"/>
    <rect x="1106" y="234" width="20" height="16" rx="1" fill="#00FFC2" opacity="0.12"/>
  </g>
  <rect x="1148" y="225" width="75" height="355" fill="url(#bldC)" rx="2"/>
  <rect x="1148" y="225" width="75" height="355" fill="none" stroke="#378ADD" stroke-width="0.5" opacity="0.15"/>

  <!-- ═══════════════════════════════════════════════
       ILLUSTRATION: OWNER JOURNEY ARC
       A curved path showing the trust journey:
       Complaint → Heard → Informed → Ally → Community
       with floating nodes along the arc
  ═══════════════════════════════════════════════ -->

  <!-- Journey arc — a gentle curve from left to right -->
  <!-- Using a bezier path that rises then levels, suggesting growth -->
  <path d="M 630 430 C 660 380 700 280 750 240 C 800 200 820 190 840 188"
    fill="none" stroke="url(#connG)" stroke-width="1.5" stroke-dasharray="5 4" opacity="0.5"/>

  <!-- Soft glow behind the arc -->
  <path d="M 630 430 C 660 380 700 280 750 240 C 800 200 820 190 840 188"
    fill="none" stroke="#2E5BFF" stroke-width="12" opacity="0.04"/>

  <!-- Node 1: COMPLAINT — red/tense, bottom left -->
  <circle cx="630" cy="430" r="32" fill="#042C53" opacity="0.9"/>
  <circle cx="630" cy="430" r="32" fill="none" stroke="#FF4D4D" stroke-width="1.5" opacity="0.6"/>
  <circle cx="630" cy="430" r="25" fill="none" stroke="#FF4D4D" stroke-width="0.5" opacity="0.25"/>
  <text x="630" y="424" text-anchor="middle" font-family="Inter,sans-serif" font-size="8" font-weight="600" fill="#FF7A7A" letter-spacing="0.5">COMPLAINT</text>
  <text x="630" y="437" text-anchor="middle" font-family="Inter,sans-serif" font-size="7" font-weight="300" fill="#64748B">unheard</text>
  <!-- Small label below -->
  <text x="630" y="472" text-anchor="middle" font-family="Inter,sans-serif" font-size="8" font-weight="300" fill="#64748B">Listen first</text>

  <!-- Node 2: HEARD — amber, rising -->
  <circle cx="700" cy="328" r="28" fill="#042C53" opacity="0.9"/>
  <circle cx="700" cy="328" r="28" fill="none" stroke="#FF9500" stroke-width="1.5" opacity="0.6"/>
  <circle cx="700" cy="328" r="22" fill="none" stroke="#FF9500" stroke-width="0.5" opacity="0.2"/>
  <text x="700" y="323" text-anchor="middle" font-family="Inter,sans-serif" font-size="8" font-weight="600" fill="#FFB340">HEARD</text>
  <text x="700" y="335" text-anchor="middle" font-family="Inter,sans-serif" font-size="7" font-weight="300" fill="#64748B">validated</text>
  <text x="700" y="366" text-anchor="middle" font-family="Inter,sans-serif" font-size="8" font-weight="300" fill="#64748B">Respond thoughtfully</text>

  <!-- Node 3: INFORMED — cobalt, mid-rise -->
  <circle cx="755" cy="240" r="30" fill="#042C53" opacity="0.9"/>
  <circle cx="755" cy="240" r="30" fill="none" stroke="#2E5BFF" stroke-width="1.8" opacity="0.8"/>
  <circle cx="755" cy="240" r="22" fill="none" stroke="#2E5BFF" stroke-width="0.5" opacity="0.25"/>
  <text x="755" y="235" text-anchor="middle" font-family="Inter,sans-serif" font-size="8" font-weight="600" fill="#85B7EB">INFORMED</text>
  <text x="755" y="248" text-anchor="middle" font-family="Inter,sans-serif" font-size="7" font-weight="300" fill="#64748B">transparent</text>
  <text x="755" y="280" text-anchor="middle" font-family="Inter,sans-serif" font-size="8" font-weight="300" fill="#64748B">Proactive comms</text>

  <!-- Node 4: ALLY — light mint, near top -->
  <circle cx="818" cy="182" r="26" fill="#042C53" opacity="0.9"/>
  <circle cx="818" cy="182" r="26" fill="none" stroke="#00FFC2" stroke-width="1.8" opacity="0.9"/>
  <circle cx="818" cy="182" r="19" fill="none" stroke="#00FFC2" stroke-width="0.5" opacity="0.25"/>
  <text x="818" y="178" text-anchor="middle" font-family="Inter,sans-serif" font-size="8" font-weight="700" fill="#00FFC2">ALLY</text>
  <text x="818" y="190" text-anchor="middle" font-family="Inter,sans-serif" font-size="7" font-weight="300" fill="#64748B">trusted</text>
  <text x="818" y="218" text-anchor="middle" font-family="Inter,sans-serif" font-size="8" font-weight="300" fill="#64748B">Follow up always</text>

  <!-- Extended arc to community -->
  <path d="M 840 188 C 860 186 870 182 840 188" fill="none"/>

  <!-- Orbital community glow — the destination -->
  <circle cx="840" cy="185" r="52" fill="#00FFC2" opacity="0.03"/>
  <circle cx="840" cy="185" r="44" fill="#00FFC2" opacity="0.04"/>
  <!-- Community node — large, mint, top right of illustration -->
  <circle cx="840" cy="138" r="38" fill="#042C53" opacity="0.92"/>
  <circle cx="840" cy="138" r="38" fill="none" stroke="url(#accentV)" stroke-width="2.5"/>
  <circle cx="840" cy="138" r="30" fill="none" stroke="rgba(0,255,194,0.2)" stroke-width="1"/>
  <text x="840" y="130" text-anchor="middle" font-family="Inter,sans-serif" font-size="9" font-weight="700" fill="#00FFC2" letter-spacing="1">COMMUNITY</text>
  <text x="840" y="145" text-anchor="middle" font-family="Inter,sans-serif" font-size="7" font-weight="300" fill="#85B7EB">advocate · renews</text>
  <text x="840" y="186" text-anchor="middle" font-family="Inter,sans-serif" font-size="8" font-weight="300" fill="#64748B">Build relationship</text>

  <!-- Connecting dot between arc end and community node -->
  <line x1="840" y1="176" x2="840" y2="188" stroke="url(#connG)" stroke-width="1.5" stroke-dasharray="3 3" opacity="0.5"/>

  <!-- Floating micro-labels: the manager actions between nodes -->
  <!-- Between node 1→2 -->
  <text x="658" y="390" font-family="Inter,sans-serif" font-size="7" font-weight="300" fill="#64748B" transform="rotate(-38 658 390)">listen</text>
  <!-- Between node 2→3 -->
  <text x="720" y="292" font-family="Inter,sans-serif" font-size="7" font-weight="300" fill="#64748B" transform="rotate(-28 720 292)">transparency</text>
  <!-- Between node 3→4 -->
  <text x="780" y="218" font-family="Inter,sans-serif" font-size="7" font-weight="300" fill="#64748B" transform="rotate(-18 780 218)">follow up</text>

  <!-- ═══════════════════════════════════════════════
       TRUST METER — replaces QS/clock/neural badge
       A semicircular gauge showing trust level
  ═══════════════════════════════════════════════ -->
  <!-- Outer ring -->
  <circle cx="670" cy="350" r="48" fill="#042C53" opacity="0.9"/>
  <circle cx="670" cy="350" r="48" fill="none" stroke="url(#accentV)" stroke-width="2.5"/>
  <circle cx="670" cy="350" r="40" fill="none" stroke="rgba(46,91,255,0.15)" stroke-width="1"/>

  <!-- Gauge track — semicircle top half (180deg arc) -->
  <!-- Using stroke-dasharray on a circle: circumference = 2π×28 ≈ 176 -->
  <!-- Half circle = 88 units of dash, then 88 gap, rotated to start left -->
  <circle cx="670" cy="350" r="26" fill="none" stroke="#0C447C" stroke-width="8" opacity="0.5"
    stroke-dasharray="88 88" stroke-dashoffset="0" transform="rotate(-180 670 350)"/>
  <!-- Fill — 80% of the half-arc = ~70 units, in mint-to-cobalt -->
  <circle cx="670" cy="350" r="26" fill="none" stroke="url(#accentV)" stroke-width="8"
    stroke-dasharray="70 106" stroke-dashoffset="0" transform="rotate(-180 670 350)"/>

  <!-- Needle -->
  <line x1="670" y1="350" x2="651" y2="332" stroke="#00FFC2" stroke-width="2" stroke-linecap="round" opacity="0.9"/>
  <circle cx="670" cy="350" r="3" fill="#00FFC2" opacity="0.9"/>

  <!-- Labels on gauge -->
  <text x="642" y="356" font-family="Inter,sans-serif" font-size="6" font-weight="300" fill="#64748B">low</text>
  <text x="693" y="356" font-family="Inter,sans-serif" font-size="6" font-weight="300" fill="#00FFC2">high</text>

  <!-- Centre text -->
  <text x="670" y="370" text-anchor="middle" font-family="Inter,sans-serif" font-size="7" font-weight="400" fill="#85B7EB" letter-spacing="1.5">TRUST LEVEL</text>
  <text x="670" y="384" text-anchor="middle" font-family="Inter,sans-serif" font-size="7" font-weight="300" fill="#00FFC2" letter-spacing="1">PROACTIVE</text>

  <!-- ═══════════════════════════════════════════════
       STAT CARDS — bottom right
  ═══════════════════════════════════════════════ -->
  <rect x="840" y="420" width="160" height="62" rx="5" fill="#0C447C" fill-opacity="0.4" stroke="#2E5BFF" stroke-width="0.8" stroke-opacity="0.35"/>
  <rect x="840" y="420" width="3" height="62" fill="#2E5BFF"/>
  <text x="858" y="445" font-family="Inter,sans-serif" font-size="22" font-weight="600" fill="#E6F1FB">2 hrs</text>
  <text x="858" y="461" font-family="Inter,sans-serif" font-size="10" font-weight="300" fill="#85B7EB">proactive comms/week</text>
  <text x="858" y="474" font-family="Inter,sans-serif" font-size="10" font-weight="300" fill="#64748B">saves 10 hrs in complaints</text>

  <rect x="1012" y="420" width="152" height="62" rx="5" fill="#0C447C" fill-opacity="0.4" stroke="#00FFC2" stroke-width="0.8" stroke-opacity="0.4"/>
  <rect x="1012" y="420" width="3" height="62" fill="#00FFC2"/>
  <text x="1030" y="445" font-family="Inter,sans-serif" font-size="22" font-weight="600" fill="#E6F1FB">&#x23;</text>
  <text x="1052" y="445" font-family="Inter,sans-serif" font-size="14" font-weight="300" fill="#85B7EB">1 reason</text>
  <text x="1030" y="461" font-family="Inter,sans-serif" font-size="10" font-weight="300" fill="#85B7EB">committees leave:</text>
  <text x="1030" y="474" font-family="Inter,sans-serif" font-size="10" font-weight="300" fill="#64748B">feeling disrespected</text>

  <!-- Left accent bar -->
  <rect x="0" y="0" width="6" height="630" fill="url(#accentV)"/>

  <!-- Eyebrow -->
  <text x="72" y="58" font-family="Inter,sans-serif" font-size="13" font-weight="400" fill="rgba(133,183,235,0.75)" letter-spacing="2.5">THE STRATA EDIT  &#xB7;  THE HUMAN SIDE</text>
  <rect x="72" y="70" width="280" height="1" fill="url(#accentH)" opacity="0.5"/>

  <!-- Headline -->
  <text font-family="Inter,sans-serif" fill="#E6F1FB">
    <tspan x="72" y="148" font-size="58" font-weight="300" letter-spacing="-1">From Complaints</tspan>
    <tspan x="72" dy="68" font-size="58" font-weight="300" letter-spacing="-1">to Community.</tspan>
    <tspan x="72" dy="68" font-size="58" font-weight="700" letter-spacing="-1" fill="#00FFC2">How the best</tspan>
    <tspan x="72" dy="68" font-size="58" font-weight="700" letter-spacing="-1" fill="#00FFC2">managers build trust.</tspan>
  </text>
  <circle cx="468" cy="352" r="7" fill="#2E5BFF"/>

  <!-- Divider -->
  <rect x="72" y="376" width="320" height="1.5" fill="url(#accentH)" opacity="0.7"/>

  <!-- Subhead -->
  <text x="72" y="405" font-family="Inter,sans-serif" font-size="15" font-weight="300" fill="rgba(181,212,244,0.85)">Proactive. Transparent. Relational.</text>

  <!-- Stat pills -->
  <rect x="72" y="432" width="190" height="28" rx="14" fill="rgba(46,91,255,0.18)" stroke="rgba(46,91,255,0.6)" stroke-width="1"/>
  <text x="167" y="451" text-anchor="middle" font-family="Inter,sans-serif" font-size="11" font-weight="600" fill="#85B7EB">Proactive beats reactive</text>

  <rect x="272" y="432" width="185" height="28" rx="14" fill="rgba(0,255,194,0.1)" stroke="rgba(0,255,194,0.5)" stroke-width="1"/>
  <text x="364" y="451" text-anchor="middle" font-family="Inter,sans-serif" font-size="11" font-weight="600" fill="#00FFC2">Listen before you respond</text>

  <rect x="72" y="470" width="210" height="28" rx="14" fill="rgba(46,91,255,0.15)" stroke="rgba(46,91,255,0.5)" stroke-width="1"/>
  <text x="177" y="489" text-anchor="middle" font-family="Inter,sans-serif" font-size="11" font-weight="600" fill="#85B7EB">Adversaries become advocates</text>

  <!-- Slim timeline bar -->
  <line x1="0" y1="528" x2="1200" y2="528" stroke="#0C447C" stroke-width="1" opacity="0.6"/>
  <rect x="72" y="542" width="1076" height="3" rx="1.5" fill="#0C447C" opacity="0.8"/>
  <rect x="72" y="542" width="1076" height="3" rx="1.5" fill="url(#timelineG)" opacity="0.65"/>

  <circle cx="72" cy="543" r="6" fill="#FF4D4D" opacity="0.8"/>
  <text x="84" y="539" font-family="Inter,sans-serif" font-size="9" font-weight="600" fill="#B5D4F4">Complaint arrives</text>
  <text x="84" y="554" font-family="Inter,sans-serif" font-size="9" font-weight="300" fill="#64748B">Listen · don&#x2019;t defend</text>

  <circle cx="340" cy="543" r="6" fill="#FF9500" opacity="0.8"/>
  <text x="352" y="539" font-family="Inter,sans-serif" font-size="9" font-weight="600" fill="#B5D4F4">Owner feels heard</text>
  <text x="352" y="554" font-family="Inter,sans-serif" font-size="9" font-weight="300" fill="#64748B">Respond thoughtfully · follow up</text>

  <circle cx="680" cy="543" r="8" fill="url(#accentV)"/>
  <text x="694" y="539" font-family="Inter,sans-serif" font-size="9" font-weight="700" fill="#2E5BFF">Trust established &#x2014; proactive rhythm set</text>
  <text x="694" y="554" font-family="Inter,sans-serif" font-size="9" font-weight="300" fill="#64748B">Monthly updates · budget forecasting · open financials</text>

  <circle cx="1010" cy="543" r="6" fill="#00FFC2"/>
  <text x="1000" y="539" text-anchor="end" font-family="Inter,sans-serif" font-size="9" font-weight="600" fill="#B5D4F4">Community built</text>
  <text x="1000" y="554" text-anchor="end" font-family="Inter,sans-serif" font-size="9" font-weight="300" fill="#64748B">Renews · refers · advocates</text>

  </g>
</svg>
