<svg width="1200" height="630" viewBox="0 0 1200 630" xmlns="http://www.w3.org/2000/svg">
<defs>
  <linearGradient id="sky" x1="0" y1="0" x2="0" y2="1"><stop offset="0%" stop-color="#E6F1FB"/><stop offset="55%" stop-color="#F0F7FF"/><stop offset="100%" stop-color="#F8FAFC"/></linearGradient>
  <linearGradient id="bldA" x1="0" y1="0" x2="0" y2="1"><stop offset="0%" stop-color="#D4E8FA"/><stop offset="100%" stop-color="#85B7EB"/></linearGradient>
  <linearGradient id="bldB" x1="0" y1="0" x2="0" y2="1"><stop offset="0%" stop-color="#B5D4F4"/><stop offset="100%" stop-color="#378ADD"/></linearGradient>
  <linearGradient id="bldC" x1="0" y1="0" x2="0" y2="1"><stop offset="0%" stop-color="#E6F1FB"/><stop offset="100%" stop-color="#B5D4F4"/></linearGradient>
  <linearGradient id="accentV" x1="0" y1="0" x2="0" y2="1"><stop offset="0%" stop-color="#2E5BFF"/><stop offset="100%" stop-color="#00FFC2"/></linearGradient>
  <linearGradient id="accentH" x1="0" y1="0" x2="1" y2="0"><stop offset="0%" stop-color="#2E5BFF"/><stop offset="100%" stop-color="#2E5BFF" stop-opacity="0"/></linearGradient>
  <linearGradient id="docG" x1="0" y1="0" x2="0" y2="1"><stop offset="0%" stop-color="#FFFFFF"/><stop offset="100%" stop-color="#E6F1FB"/></linearGradient>
  <linearGradient id="badgeG" x1="0" y1="0" x2="0" y2="1"><stop offset="0%" stop-color="#2E5BFF"/><stop offset="100%" stop-color="#185FA5"/></linearGradient>
  <linearGradient id="ground" x1="0" y1="0" x2="0" y2="1"><stop offset="0%" stop-color="#B5D4F4"/><stop offset="100%" stop-color="#85B7EB"/></linearGradient>
  <clipPath id="mainClip"><rect width="1200" height="630"/></clipPath>
</defs>
<g clip-path="url(#mainClip)">
<rect width="1200" height="630" fill="url(#sky)"/>
<g stroke="#2E5BFF" stroke-width="0.4" opacity="0.05"><line x1="0" y1="126" x2="1200" y2="126"/><line x1="0" y1="252" x2="1200" y2="252"/><line x1="0" y1="378" x2="1200" y2="378"/><line x1="0" y1="504" x2="1200" y2="504"/><line x1="200" y1="0" x2="200" y2="630"/><line x1="400" y1="0" x2="400" y2="630"/><line x1="600" y1="0" x2="600" y2="630"/><line x1="800" y1="0" x2="800" y2="630"/><line x1="1000" y1="0" x2="1000" y2="630"/></g>
<ellipse cx="600" cy="480" rx="600" ry="200" fill="#2E5BFF" opacity="0.03"/>
<rect x="0" y="580" width="1200" height="50" fill="url(#ground)" opacity="0.3"/>
<line x1="0" y1="580" x2="1200" y2="580" stroke="#185FA5" stroke-width="0.8" opacity="0.18"/>
<rect x="700" y="400" width="28" height="180" fill="#D4E8FA" opacity="0.65"/><rect x="742" y="375" width="36" height="205" fill="#B5D4F4" opacity="0.55"/><rect x="792" y="355" width="42" height="225" fill="#D4E8FA" opacity="0.6"/>
<rect x="850" y="68" width="165" height="512" fill="url(#bldA)" rx="3"/><rect x="850" y="68" width="165" height="512" fill="none" stroke="#378ADD" stroke-width="0.9" opacity="0.25"/>
<line x1="893" y1="68" x2="893" y2="580" stroke="#378ADD" stroke-width="0.5" opacity="0.2"/><line x1="936" y1="68" x2="936" y2="580" stroke="#378ADD" stroke-width="0.5" opacity="0.2"/><line x1="979" y1="68" x2="979" y2="580" stroke="#378ADD" stroke-width="0.5" opacity="0.2"/>
<g stroke="#378ADD" stroke-width="0.4" opacity="0.15"><line x1="850" y1="106" x2="1015" y2="106"/><line x1="850" y1="144" x2="1015" y2="144"/><line x1="850" y1="182" x2="1015" y2="182"/><line x1="850" y1="220" x2="1015" y2="220"/><line x1="850" y1="258" x2="1015" y2="258"/><line x1="850" y1="296" x2="1015" y2="296"/><line x1="850" y1="334" x2="1015" y2="334"/><line x1="850" y1="372" x2="1015" y2="372"/><line x1="850" y1="410" x2="1015" y2="410"/><line x1="850" y1="448" x2="1015" y2="448"/></g>
<g opacity="0.42"><rect x="856" y="76" width="30" height="24" rx="1" fill="#2E5BFF" opacity="0.13"/><rect x="898" y="76" width="30" height="24" rx="1" fill="#2E5BFF" opacity="0.18"/><rect x="941" y="76" width="30" height="24" rx="1" fill="#00FFC2" opacity="0.1"/><rect x="856" y="114" width="30" height="24" rx="1" fill="#00FFC2" opacity="0.09"/><rect x="898" y="114" width="30" height="24" rx="1" fill="#2E5BFF" opacity="0.15"/><rect x="941" y="114" width="30" height="24" rx="1" fill="#2E5BFF" opacity="0.1"/><rect x="856" y="152" width="30" height="24" rx="1" fill="#2E5BFF" opacity="0.15"/><rect x="898" y="152" width="30" height="24" rx="1" fill="#2E5BFF" opacity="0.1"/><rect x="941" y="152" width="30" height="24" rx="1" fill="#00FFC2" opacity="0.1"/><rect x="856" y="190" width="30" height="24" rx="1" fill="#2E5BFF" opacity="0.1"/><rect x="898" y="190" width="30" height="24" rx="1" fill="#00FFC2" opacity="0.09"/><rect x="941" y="190" width="30" height="24" rx="1" fill="#2E5BFF" opacity="0.15"/><rect x="856" y="228" width="30" height="24" rx="1" fill="#00FFC2" opacity="0.09"/><rect x="898" y="228" width="30" height="24" rx="1" fill="#2E5BFF" opacity="0.18"/><rect x="941" y="228" width="30" height="24" rx="1" fill="#2E5BFF" opacity="0.1"/></g>
<rect x="1030" y="160" width="105" height="420" fill="url(#bldB)" rx="2"/><rect x="1030" y="160" width="105" height="420" fill="none" stroke="#378ADD" stroke-width="0.7" opacity="0.2"/>
<line x1="1063" y1="160" x2="1063" y2="580" stroke="#378ADD" stroke-width="0.4" opacity="0.18"/><line x1="1100" y1="160" x2="1100" y2="580" stroke="#378ADD" stroke-width="0.4" opacity="0.18"/>
<g opacity="0.35"><rect x="1036" y="170" width="20" height="16" rx="1" fill="#2E5BFF" opacity="0.15"/><rect x="1068" y="170" width="20" height="16" rx="1" fill="#00FFC2" opacity="0.12"/><rect x="1106" y="170" width="20" height="16" rx="1" fill="#2E5BFF" opacity="0.15"/></g>
<rect x="1148" y="225" width="75" height="355" fill="url(#bldC)" rx="2"/><rect x="1148" y="225" width="75" height="355" fill="none" stroke="#378ADD" stroke-width="0.5" opacity="0.18"/>

<!-- ILLUSTRATION: TWO CAREER PATH COMPARISONS
     Strata (left col, flat) vs Other Property (right col, ascending) -->
<!-- Panel card -->
<rect x="652" y="95" width="190" height="318" rx="7" fill="url(#docG)" opacity="0.97"/>
<rect x="652" y="95" width="190" height="318" rx="7" fill="none" stroke="#2E5BFF" stroke-width="1.2" opacity="0.35"/>
<rect x="652" y="95" width="190" height="30" rx="7" fill="#0C447C"/>
<rect x="652" y="112" width="190" height="13" fill="#0C447C"/>
<text x="747" y="114" text-anchor="middle" font-family="Inter,sans-serif" font-size="9" font-weight="600" fill="#85B7EB" letter-spacing="1.5">CAREER PATH COMPARISON</text>

<!-- Strata column -->
<text x="700" y="145" text-anchor="middle" font-family="Inter,sans-serif" font-size="8" font-weight="600" fill="#64748B" letter-spacing="0.5">STRATA (NOW)</text>
<!-- Career steps — flat/limited -->
<rect x="664" y="152" width="70" height="22" rx="3" fill="rgba(46,91,255,0.1)" stroke="#2E5BFF" stroke-width="0.6" stroke-opacity="0.4"/>
<text x="699" y="167" text-anchor="middle" font-family="Inter,sans-serif" font-size="7" font-weight="300" fill="#64748B">Junior admin</text>
<line x1="699" y1="174" x2="699" y2="184" stroke="#B5D4F4" stroke-width="1"/>
<rect x="664" y="184" width="70" height="22" rx="3" fill="rgba(46,91,255,0.1)" stroke="#2E5BFF" stroke-width="0.6" stroke-opacity="0.4"/>
<text x="699" y="199" text-anchor="middle" font-family="Inter,sans-serif" font-size="7" font-weight="300" fill="#64748B">Coordinator</text>
<line x1="699" y1="206" x2="699" y2="216" stroke="#B5D4F4" stroke-width="1"/>
<rect x="664" y="216" width="70" height="22" rx="3" fill="rgba(46,91,255,0.12)" stroke="#2E5BFF" stroke-width="0.8" stroke-opacity="0.5"/>
<text x="699" y="231" text-anchor="middle" font-family="Inter,sans-serif" font-size="7" font-weight="600" fill="#2E5BFF">Lic. Manager</text>
<line x1="699" y1="238" x2="699" y2="248" stroke="#B5D4F4" stroke-width="1" stroke-dasharray="3 3" opacity="0.5"/>
<!-- Ceiling -->
<rect x="656" y="248" width="86" height="16" rx="3" fill="rgba(100,116,139,0.1)" stroke="#64748B" stroke-width="0.6" stroke-dasharray="3 2" opacity="0.5"/>
<text x="699" y="259" text-anchor="middle" font-family="Inter,sans-serif" font-size="6.5" font-weight="400" fill="#64748B">?? ceiling ??</text>

<!-- Other property column -->
<text x="794" y="145" text-anchor="middle" font-family="Inter,sans-serif" font-size="8" font-weight="600" fill="#0F6E56" letter-spacing="0.5">OTHER PROPERTY</text>
<!-- Career steps — ascending, clear -->
<rect x="758" y="248" width="70" height="22" rx="3" fill="rgba(0,255,194,0.08)" stroke="#00FFC2" stroke-width="0.6" stroke-opacity="0.4"/>
<text x="793" y="263" text-anchor="middle" font-family="Inter,sans-serif" font-size="7" font-weight="300" fill="#64748B">Junior PM</text>
<line x1="793" y1="248" x2="793" y2="238" stroke="#00FFC2" stroke-width="1"/>
<rect x="758" y="216" width="70" height="22" rx="3" fill="rgba(0,255,194,0.1)" stroke="#00FFC2" stroke-width="0.6" stroke-opacity="0.5"/>
<text x="793" y="231" text-anchor="middle" font-family="Inter,sans-serif" font-size="7" font-weight="300" fill="#64748B">Senior PM</text>
<line x1="793" y1="216" x2="793" y2="206" stroke="#00FFC2" stroke-width="1"/>
<rect x="758" y="184" width="70" height="22" rx="3" fill="rgba(0,255,194,0.14)" stroke="#00FFC2" stroke-width="0.8"/>
<text x="793" y="199" text-anchor="middle" font-family="Inter,sans-serif" font-size="7" font-weight="300" fill="#121C2D">Portfolio Dir.</text>
<line x1="793" y1="184" x2="793" y2="174" stroke="#00FFC2" stroke-width="1"/>
<rect x="758" y="152" width="70" height="22" rx="3" fill="#00FFC2" fill-opacity="0.2" stroke="#00FFC2" stroke-width="1"/>
<text x="793" y="167" text-anchor="middle" font-family="Inter,sans-serif" font-size="7" font-weight="600" fill="#0F6E56">Partner/Owner</text>
<!-- Up arrow -->
<polyline points="789,150 793,143 797,150" stroke="#00FFC2" stroke-width="1.5" fill="none" opacity="0.8"/>

<!-- Pay gap -->
<rect x="664" y="284" width="164" height="28" rx="4" fill="rgba(255,149,0,0.08)" stroke="rgba(255,149,0,0.4)" stroke-width="0.8"/>
<text x="746" y="297" text-anchor="middle" font-family="Inter,sans-serif" font-size="7.5" font-weight="600" fill="#FF9500">Pay gap: 15–20% below market</text>
<text x="746" y="308" text-anchor="middle" font-family="Inter,sans-serif" font-size="7" font-weight="300" fill="#64748B">at equivalent seniority and responsibility</text>

<!-- Retention fixes -->
<text x="664" y="330" font-family="Inter,sans-serif" font-size="8" font-weight="600" fill="#121C2D">Agencies that retain:</text>
<g><circle cx="670" cy="343" r="3" fill="#2E5BFF" opacity="0.7"/><text x="678" y="347" font-family="Inter,sans-serif" font-size="7.5" font-weight="300" fill="#64748B">Clear progression pathways</text></g>
<g><circle cx="670" cy="358" r="3" fill="#2E5BFF" opacity="0.7"/><text x="678" y="362" font-family="Inter,sans-serif" font-size="7.5" font-weight="300" fill="#64748B">Investment in training</text></g>
<g><circle cx="670" cy="373" r="3" fill="#00FFC2" opacity="0.7"/><text x="678" y="377" font-family="Inter,sans-serif" font-size="7.5" font-weight="300" fill="#64748B">Competitive pay · fair caseloads</text></g>
<g><circle cx="670" cy="388" r="3" fill="#00FFC2" opacity="0.7"/><text x="678" y="392" font-family="Inter,sans-serif" font-size="7.5" font-weight="300" fill="#64748B">Professional identity + culture</text></g>

<!-- Action badge -->
<rect x="652" y="420" width="190" height="30" rx="6" fill="url(#badgeG)"/>
<text x="747" y="440" text-anchor="middle" font-family="Inter,sans-serif" font-size="10" font-weight="600" fill="white" letter-spacing="1">MAKE IT A CAREER</text>

<!-- Turnover badge -->
<circle cx="615" cy="285" r="48" fill="#042C53" opacity="0.88"/>
<circle cx="615" cy="285" r="48" fill="none" stroke="url(#accentV)" stroke-width="2.5"/>
<circle cx="615" cy="285" r="40" fill="none" stroke="rgba(46,91,255,0.18)" stroke-width="1"/>
<text x="615" y="270" text-anchor="middle" font-family="Inter,sans-serif" font-size="8" font-weight="400" fill="#85B7EB" letter-spacing="1">ANNUAL</text>
<text x="615" y="288" text-anchor="middle" font-family="Inter,sans-serif" font-size="17" font-weight="700" fill="white">18–22%</text>
<text x="615" y="302" text-anchor="middle" font-family="Inter,sans-serif" font-size="7" font-weight="300" fill="#00FFC2" letter-spacing="1">TURNOVER RATE</text>

<!-- Stat cards -->
<rect x="840" y="420" width="155" height="62" rx="5" fill="white" fill-opacity="0.85" stroke="#2E5BFF" stroke-width="0.8" stroke-opacity="0.3"/>
<rect x="840" y="420" width="3" height="62" fill="#2E5BFF"/>
<text x="858" y="445" font-family="Inter,sans-serif" font-size="18" font-weight="600" fill="#121C2D">5–7 yr mark</text>
<text x="858" y="461" font-family="Inter,sans-serif" font-size="10" font-weight="300" fill="#64748B">peak exodus: experienced</text>
<text x="858" y="474" font-family="Inter,sans-serif" font-size="10" font-weight="300" fill="#64748B">managers choose to leave</text>

<rect x="1007" y="420" width="157" height="62" rx="5" fill="white" fill-opacity="0.85" stroke="#00FFC2" stroke-width="0.8" stroke-opacity="0.5"/>
<rect x="1007" y="420" width="3" height="62" fill="#00FFC2"/>
<text x="1025" y="445" font-family="Inter,sans-serif" font-size="18" font-weight="600" fill="#121C2D">20% pay gap</text>
<text x="1025" y="461" font-family="Inter,sans-serif" font-size="10" font-weight="300" fill="#64748B">vs commercial PM</text>
<text x="1025" y="474" font-family="Inter,sans-serif" font-size="10" font-weight="300" fill="#64748B">at same seniority</text>

<!-- Left accent bar -->
<rect x="0" y="0" width="6" height="630" fill="url(#accentV)"/>
<text x="72" y="58" font-family="Inter,sans-serif" font-size="13" font-weight="400" fill="#64748B" letter-spacing="2.5">THE STRATA EDIT  ·  BUSINESS GROWTH &amp; PROFITABILITY</text>
<rect x="72" y="70" width="280" height="1" fill="url(#accentH)" opacity="0.4"/>
<text font-family="Inter,sans-serif" fill="#121C2D"><tspan x="72" y="148" font-size="54" font-weight="300" letter-spacing="-1">The Strata</tspan><tspan x="72" dy="64" font-size="54" font-weight="300" letter-spacing="-1">Talent Crisis.</tspan><tspan x="72" dy="64" font-size="54" font-weight="700" letter-spacing="-1" fill="#2E5BFF">Rethink how you</tspan><tspan x="72" dy="64" font-size="54" font-weight="700" letter-spacing="-1" fill="#2E5BFF">attract talent.</tspan></text>
<circle cx="376" cy="340" r="7" fill="#00FFC2"/>
<rect x="72" y="362" width="300" height="1.5" fill="url(#accentH)" opacity="0.6"/>
<text x="72" y="390" font-family="Inter,sans-serif" font-size="16" font-weight="300" fill="#334155">The industry isn&#x2019;t just losing managers.</text>
<text x="72" y="409" font-family="Inter,sans-serif" font-size="16" font-weight="300" fill="#334155">It&#x2019;s failing to attract them in the first place.</text>
<rect x="72" y="432" width="175" height="30" rx="15" fill="rgba(46,91,255,0.07)" stroke="rgba(46,91,255,0.35)" stroke-width="1"/>
<text x="159" y="452" text-anchor="middle" font-family="Inter,sans-serif" font-size="12" font-weight="600" fill="#2E5BFF">18–22% annual turnover</text>
<rect x="257" y="432" width="175" height="30" rx="15" fill="rgba(0,255,194,0.07)" stroke="rgba(15,110,86,0.35)" stroke-width="1"/>
<text x="344" y="452" text-anchor="middle" font-family="Inter,sans-serif" font-size="12" font-weight="600" fill="#0F6E56">Career not just a job</text>
<rect x="72" y="474" width="195" height="30" rx="15" fill="rgba(46,91,255,0.06)" stroke="rgba(46,91,255,0.28)" stroke-width="1"/>
<text x="169" y="494" text-anchor="middle" font-family="Inter,sans-serif" font-size="12" font-weight="600" fill="#185FA5">Fix the value proposition</text>
</g>
</svg>
